<svg width="70" height="70" viewBox="0 0 70 70" fill="none" xmlns="http://www.w3.org/2000/svg">
<g clip-path="url(#clip0)">
<path d="M47.698 15.5002V18.948C47.698 19.5794 48.0749 20.1433 48.658 20.3849C49.2496 20.6299 49.9131 20.4877 50.3532 20.0478L54.682 15.7188H65.6114C67.8346 15.7188 69.6431 13.9102 69.6431 11.6871V4.0317C69.6431 1.80865 67.8346 0 65.6114 0H49.0079C46.7847 0 44.9762 1.80865 44.9762 4.0317V11.687C44.9761 13.4158 46.0951 14.9481 47.698 15.5002ZM47.026 4.0317C47.026 2.93891 47.9151 2.04982 49.0079 2.04982H65.6116C66.7044 2.04982 67.5934 2.93891 67.5934 4.0317V11.687C67.5934 12.7798 66.7044 13.6689 65.6116 13.6689H54.4392C54.0487 13.6689 53.6815 13.8209 53.4045 14.0972L49.748 17.7539V15.0548C49.748 14.3675 49.2634 13.7665 48.5957 13.6257C47.6862 13.4338 47.0262 12.6185 47.0262 11.6871V4.0317H47.026Z" fill="#FF335A"/>
<path d="M67.2631 60.1587H65.3138V27.9201C65.3138 25.7955 63.5854 24.0671 61.4608 24.0671H42.2841C41.7179 24.0671 41.2591 24.5259 41.2591 25.0921C41.2591 25.6582 41.7179 26.1171 42.2841 26.1171H61.4606C62.4549 26.1171 63.2638 26.9259 63.2638 27.9203V60.1588H59.8474V32.4359C59.8474 30.8356 58.5454 29.5337 56.9451 29.5337H36.0077C36.3085 28.7512 36.5162 27.9219 36.6113 27.0574C37.7002 26.8175 38.5173 25.8449 38.5173 24.6848C38.5173 23.7473 38.5173 16.6682 38.5173 15.8245C38.5173 13.7991 36.8783 12.1493 34.857 12.1321C34.7915 10.1531 33.1611 8.56348 31.1665 8.56348H21.9741C18.0237 8.56348 14.8099 11.7773 14.8099 15.7277V24.6848C14.8099 25.8449 15.6271 26.8175 16.716 27.0574C16.8112 27.922 17.0188 28.7512 17.3196 29.5337H13.0548C11.4545 29.5337 10.1526 30.8356 10.1526 32.4359V40.8085C8.80971 41.3125 7.64309 42.1479 6.73609 43.2025V27.9201C6.73609 26.9259 7.54492 26.1169 8.53928 26.1169H11.0951C11.6613 26.1169 12.1201 25.6581 12.1201 25.092C12.1201 24.5258 11.6613 24.067 11.0951 24.067H8.53928C6.41467 24.067 4.68627 25.7954 4.68627 27.92V48.6876V60.1585H2.7368C1.23604 60.1585 0.0151367 61.3796 0.0151367 62.8802C0.0151367 66.8062 3.20889 70 7.13463 70H62.8653C66.791 70 69.9848 66.8062 69.9848 62.8805C69.9848 61.3797 68.7637 60.1587 67.2631 60.1587ZM56.9451 31.5835C57.4151 31.5835 57.7975 31.9659 57.7975 32.4359V60.1588H48.6449V56.4034C48.6449 55.8373 48.1861 55.3784 47.6199 55.3784C47.0538 55.3784 46.5949 55.8373 46.5949 56.4034V60.1588H41.6742V56.9064C41.6742 56.3403 41.2153 55.8814 40.6492 55.8814C40.083 55.8814 39.6242 56.3403 39.6242 56.9064V60.1588H31.2871L29.0773 47.6981L29.9252 46.1788C30.0889 46.2146 30.255 46.2347 30.4215 46.2347C31.0068 46.2347 31.5917 46.0139 32.0481 45.5754L35.853 41.8702C36.1256 41.6048 36.3153 41.2819 36.4236 40.9368L42.0235 42.5807C44.7152 43.371 46.5951 45.8822 46.5951 48.6874V51.6118C46.5951 52.178 47.0539 52.6368 47.6201 52.6368C48.1862 52.6368 48.645 52.178 48.645 51.6118V48.6874C48.645 44.9787 46.1596 41.6587 42.601 40.6138L35.8371 38.6281C35.6509 38.4502 35.4353 38.304 35.1985 38.1986L33.7985 37.5749C33.386 37.391 32.9441 37.3162 32.5103 37.3443V34.0675C33.4531 33.3867 34.2738 32.5461 34.9319 31.5836H56.9451V31.5835ZM19.0092 40.0584L20.3824 39.4418C20.608 39.3406 20.871 39.3696 21.0691 39.5177L25.1144 42.5403L23.1274 44.1999C23.0148 44.2944 22.8509 44.2889 22.7446 44.1883L18.9488 40.3867V40.3865C18.8466 40.2845 18.884 40.1146 19.0092 40.0584ZM30.4602 35.2095V38.3396L26.7558 41.2081L22.8673 38.3025V35.2097C25.268 36.1987 27.9916 36.2266 30.4602 35.2095ZM34.3641 40.0711C34.4901 40.1269 34.5279 40.2992 34.4229 40.4016L30.623 44.1017C30.5154 44.2052 30.3491 44.21 30.2357 44.1131C30.2356 44.1131 30.2356 44.1131 30.2356 44.1131L28.39 42.5349L32.27 39.5307C32.4683 39.3767 32.7344 39.3449 32.9639 39.4472L34.3641 40.0711ZM25.9157 46.4927L25.1516 45.1803L26.759 43.8376L28.1978 45.0679L27.4028 46.4927H25.9157ZM26.1857 48.5425H27.1452L29.2053 60.1587H24.1267L26.1857 48.5425ZM44.1311 62.2086C43.7173 63.2862 42.6743 64.0545 41.4528 64.0545H28.547C27.3255 64.0545 26.2825 63.2862 25.8687 62.2086H44.1311ZM16.8598 15.7277C16.8598 12.9076 19.1541 10.6133 21.9742 10.6133H31.1666C32.0724 10.6133 32.8092 11.3501 32.8092 12.2558C32.8092 13.3177 33.6732 14.1818 34.7351 14.1818H34.825C35.7307 14.1818 36.4675 14.9186 36.4675 15.8243V20.6244H35.6492C35.191 20.6244 34.8181 20.2516 34.8181 19.7933V18.7775C34.8181 16.7416 32.8306 15.3051 30.8972 15.9438C28.1681 16.8458 25.1624 16.846 22.4333 15.9445C22.4302 15.9434 22.4259 15.9421 22.4218 15.9408C20.4936 15.3099 18.5094 16.7414 18.5094 18.7772V19.7934C18.5094 20.2517 18.1365 20.6245 17.6781 20.6245H16.8598V15.7277ZM16.8598 24.6848V22.6744H17.6781C19.2668 22.6744 20.5593 21.382 20.5593 19.7933V18.7771C20.5593 18.1391 21.1829 17.6896 21.7868 17.8897C21.7898 17.8908 21.7938 17.8921 21.7976 17.8932C24.9395 18.9294 28.3996 18.9284 31.5404 17.8902C32.1442 17.6901 32.7682 18.1387 32.7682 18.7775V19.7933C32.7682 21.382 34.0606 22.6744 35.6492 22.6744H36.4675V24.6848C36.4675 24.8941 36.2973 25.0642 36.0882 25.0642C35.3068 25.0642 34.6556 25.6774 34.6059 26.4605C34.3425 30.6388 30.854 33.9118 26.6638 33.9118C22.4737 33.9118 18.9851 30.6388 18.7215 26.4606C18.6723 25.6775 18.0213 25.0642 17.2394 25.0642C17.0301 25.0642 16.8598 24.894 16.8598 24.6848ZM13.0548 31.5835H18.3957C19.0538 32.546 19.8745 33.3865 20.8172 34.0674V37.3379C20.3868 37.3131 19.9496 37.3893 19.5427 37.5719L18.1695 38.1884C17.9345 38.2939 17.7204 38.4397 17.5352 38.6169L12.2024 40.1821V32.4361C12.2025 31.9659 12.5848 31.5835 13.0548 31.5835ZM6.73609 48.6877C6.73609 45.8822 8.61611 43.3711 11.3081 42.5809L11.4749 42.5319C11.4787 42.5308 11.4824 42.5297 11.4862 42.5286L16.945 40.9264C17.0514 41.2591 17.2353 41.5718 17.4982 41.8352V41.8351L21.3012 45.6438C21.3046 45.6472 21.308 45.6506 21.3114 45.6539C21.7652 46.0956 22.3529 46.319 22.9426 46.319C23.1004 46.319 23.258 46.301 23.4135 46.269L24.2518 47.7088L22.045 60.1588H13.7033V56.9064C13.7033 56.3403 13.2445 55.8814 12.6783 55.8814C12.1121 55.8814 11.6533 56.3403 11.6533 56.9064V60.1588H6.73609V48.6877ZM62.8653 67.9501H7.13463C4.33928 67.9501 2.06496 65.676 2.06496 62.8805C2.06496 62.51 2.36629 62.2086 2.7368 62.2086H23.7345C24.2074 64.4315 26.1852 66.1043 28.547 66.1043H41.4528C43.8146 66.1043 45.7924 64.4315 46.2653 62.2086H67.263C67.6335 62.2086 67.9348 62.51 67.9348 62.8805C67.935 65.6758 65.6606 67.9501 62.8653 67.9501Z" fill="white"/>
</g>
<defs>
<clipPath id="clip0">
<rect width="70" height="70" fill="white"/>
</clipPath>
</defs>
</svg>
