<svg width="70" height="70" viewBox="0 0 70 70" fill="none" xmlns="http://www.w3.org/2000/svg">
<g clip-path="url(#clip0)">
<path d="M63.3531 62.1847L61.8642 57.3135C61.6986 56.7721 61.1258 56.4669 60.5838 56.6326C60.0423 56.798 59.7374 57.3713 59.903 57.913L61.3918 62.784C61.7657 64.0086 61.5433 65.3012 60.7816 66.3303C60.0201 67.3591 58.8494 67.9492 57.5696 67.9492H49.5497C48.8525 67.9492 48.1647 67.6048 47.6129 66.9797C46.3906 65.5942 45.1479 64.4036 43.9086 63.4246C44.0962 62.9439 44.2004 62.4218 44.2004 61.8756C44.2004 59.5187 42.2829 57.6012 39.9259 57.6012C38.2427 57.6012 36.7842 58.5795 36.0875 59.997C35.3634 59.929 34.6364 59.929 33.9123 59.997C33.2157 58.5795 31.7572 57.6012 30.0739 57.6012C27.717 57.6012 25.7994 59.5187 25.7994 61.8756C25.7994 62.422 25.9036 62.9439 26.0912 63.4246C24.852 64.4036 23.6092 65.5944 22.3871 66.9796C21.8351 67.605 21.1473 67.9494 20.4502 67.9494H12.4305C11.1508 67.9494 9.9801 67.3593 9.21844 66.3305C8.45664 65.3014 8.2342 64.0087 8.60813 62.7843L13.5546 46.5983C13.8994 45.4703 14.9234 44.7126 16.1026 44.7126H23.8628C24.6994 44.7126 25.4975 45.1134 25.9985 45.7855C26.8846 46.9723 28.2978 47.6808 29.7786 47.6808H40.2212C41.7021 47.6808 43.1153 46.9723 44.002 45.7846C44.5023 45.1134 45.3004 44.7126 46.137 44.7126H53.8972C55.0764 44.7126 56.1004 45.4705 56.4452 46.5983L58.5042 53.3371C58.6696 53.8787 59.2431 54.1838 59.7844 54.0181C60.326 53.8527 60.6308 53.2794 60.4654 52.7379L58.4063 45.9989C57.7961 44.0029 55.984 42.6619 53.897 42.6619H46.1369C44.6558 42.6619 43.243 43.3712 42.3581 44.5586C41.857 45.2296 41.0582 45.63 40.2211 45.63H39.0959V36.2685C43.9182 35.0078 47.8712 31.5756 49.8443 27.0841H56.7408C60.1845 27.0841 62.9861 24.2825 62.9861 20.8388C62.9861 17.3951 60.1845 14.5935 56.7408 14.5935H51.2048V8.76422H54.64C56.0271 8.76422 57.1557 7.63561 57.1557 6.24846V2.51576C57.1561 1.12861 56.0275 0 54.6402 0H25.2065C24.6402 0 24.1811 0.459102 24.1811 1.02539C24.1811 1.59168 24.6402 2.05078 25.2065 2.05078H54.6404C54.8967 2.05078 55.1054 2.25941 55.1054 2.51576V6.24832C55.1054 6.50467 54.8967 6.7133 54.6404 6.7133H15.3598C15.1035 6.7133 14.8949 6.50467 14.8949 6.24832V2.51576C14.8949 2.25941 15.1035 2.05078 15.3598 2.05078H20.4213C20.9876 2.05078 21.4467 1.59168 21.4467 1.02539C21.4467 0.459102 20.9876 0 20.4213 0H15.3598C13.9727 0 12.8441 1.12861 12.8441 2.51576V6.24832C12.8441 7.63547 13.9727 8.76408 15.3598 8.76408H18.795V14.5932H13.259C9.81535 14.5932 7.01371 17.3949 7.01371 20.8385C7.01371 24.2822 9.81535 27.0838 13.259 27.0838H20.1555C22.1287 31.5753 26.0815 35.0075 30.9039 36.2682V45.6297H29.7788C28.9416 45.6297 28.1428 45.2292 27.6424 44.559C26.757 43.3709 25.3441 42.6616 23.8629 42.6616H16.1028C14.0158 42.6616 12.2037 44.0027 11.5935 45.9986L6.6469 62.185C6.08102 64.0378 6.41762 65.9933 7.57016 67.5504C8.72242 69.1072 10.494 70 12.4305 70H20.4504C21.7442 70 22.9781 69.4092 23.9251 68.3364C25.038 67.0749 26.162 65.9926 27.2763 65.1029C28.0267 65.7543 29.0048 66.15 30.0742 66.15C32.383 66.15 34.2687 64.3098 34.3449 62.0192C34.7813 61.9892 35.2187 61.9892 35.6552 62.0192C35.7314 64.3098 37.6171 66.15 39.9259 66.15C40.9953 66.15 41.9735 65.7543 42.7238 65.1029C43.8381 65.9928 44.9621 67.0749 46.0751 68.3365C47.0219 69.4092 48.2557 70 49.5495 70H57.5694C59.5059 70 61.2775 69.1072 62.4298 67.5504C63.5825 65.9935 63.9191 64.0378 63.3531 62.1847ZM56.7411 16.6441C59.0539 16.6441 60.9356 18.5258 60.9356 20.8387C60.9356 23.1515 59.0539 25.0332 56.7411 25.0332H50.5852C50.9888 23.6202 51.205 22.129 51.205 20.5882V16.6441H56.7411ZM13.259 25.0332C10.9462 25.0332 9.06449 23.1515 9.06449 20.8387C9.06449 18.5258 10.9462 16.6441 13.259 16.6441H18.795V20.5882C18.795 22.129 19.0113 23.6202 19.4149 25.0332H13.259ZM20.8458 20.5882V8.76422H49.1543V20.5882C49.1543 28.3928 42.8048 34.7424 35 34.7424C27.1953 34.7424 20.8458 28.3929 20.8458 20.5882ZM32.9547 36.6646C33.6248 36.7493 34.3074 36.7932 35 36.7932C35.6927 36.7932 36.3753 36.7493 37.0454 36.6646V45.6299H32.9547V36.6646ZM30.0742 64.0992C28.8481 64.0992 27.8505 63.1017 27.8505 61.8755C27.8505 60.6493 28.848 59.6519 30.0742 59.6519C31.3004 59.6519 32.2978 60.6494 32.2978 61.8755C32.2978 63.1016 31.3003 64.0992 30.0742 64.0992ZM39.9259 64.0992C38.6998 64.0992 37.7023 63.1017 37.7023 61.8755C37.7023 60.6493 38.6998 59.6519 39.9259 59.6519C41.152 59.6519 42.1496 60.6494 42.1496 61.8755C42.1496 63.1016 41.1521 64.0992 39.9259 64.0992Z" fill="white"/>
<path d="M19.5184 60.145H21.3241C22.4237 60.145 23.3184 59.2504 23.3184 58.1507V56.8693H24.5997C25.6993 56.8693 26.594 55.9748 26.594 54.875V53.0695C26.594 51.9699 25.6995 51.0752 24.5997 51.0752H23.3184V49.7939C23.3184 48.6942 22.4238 47.7996 21.3241 47.7996H19.5184C18.4188 47.7996 17.5241 48.6941 17.5241 49.7939V51.0752H16.2428C15.1432 51.0752 14.2485 51.9698 14.2485 53.0695V54.875C14.2485 55.9747 15.143 56.8693 16.2428 56.8693H17.5241V58.1507C17.5241 59.2504 18.4188 60.145 19.5184 60.145ZM16.2994 54.8186V53.126H18.3034C19.0045 53.126 19.575 52.5556 19.575 51.8544V49.8503H21.2676V51.8544C21.2676 52.5555 21.838 53.126 22.5392 53.126H24.5433V54.8186H22.5392C21.8381 54.8186 21.2676 55.389 21.2676 56.0902V58.0942H19.575V56.0902C19.575 55.3891 19.0046 54.8186 18.3034 54.8186H16.2994Z" fill="#FF335A"/>
<path d="M49.8226 47.8687C46.4569 47.8687 43.7187 50.6069 43.7187 53.9725C43.7187 57.3382 46.4569 60.0764 49.8226 60.0764C53.1882 60.0764 55.9264 57.3382 55.9264 53.9725C55.9264 50.6067 53.1882 47.8687 49.8226 47.8687ZM49.8226 58.0255C47.5877 58.0255 45.7695 56.2073 45.7695 53.9723C45.7695 51.7375 47.5877 49.9193 49.8226 49.9193C52.0574 49.9193 53.8757 51.7375 53.8757 53.9723C53.8757 56.2073 52.0574 58.0255 49.8226 58.0255Z" fill="#FF335A"/>
</g>
<defs>
<clipPath id="clip0">
<rect width="70" height="70" fill="white"/>
</clipPath>
</defs>
</svg>
