<svg width="70" height="70" viewBox="0 0 70 70" fill="none" xmlns="http://www.w3.org/2000/svg">
<g clip-path="url(#clip0)">
<path d="M65.625 44.8492C65.613 44.8492 65.6042 44.8557 65.5933 44.8557H63.4375V43.6624C66.0472 42.1476 67.8092 39.3323 67.8125 36.1068C67.8125 36.1057 67.8125 36.1057 67.8125 36.1046V32.819C67.8125 32.8179 67.8125 32.8179 67.8125 32.8168V30.6315C67.8125 25.8091 63.887 21.8859 59.0625 21.8859C54.238 21.8859 50.3125 25.8091 50.3125 30.6315V36.1046V36.1068C50.3158 39.3323 52.0778 42.1476 54.6875 43.6624V44.8557H52.5317C52.5197 44.8557 52.5109 44.8492 52.5 44.8492C50.0959 44.8492 48.1403 46.7982 48.1272 49.2001C48.1272 49.2045 48.125 49.2077 48.125 49.2121V49.2242V53.5915V53.6057C48.125 54.2106 48.6139 54.6995 49.2188 54.6995H68.9062C69.5111 54.6995 70 54.2106 70 53.6057V49.2242C70 46.8113 68.0378 44.8492 65.625 44.8492ZM59.0625 24.0734C62.5275 24.0734 65.3669 26.7727 65.602 30.1776L65.333 29.9107C65.0278 29.5727 64.5411 29.4393 64.0992 29.6318C64.0762 29.6416 61.6886 30.6523 58.9936 30.6523C56.3183 30.6523 54.0728 29.6416 54.0498 29.6307C53.6112 29.4295 53.1169 29.5552 52.8041 29.8888L52.523 30.1721C52.7603 26.7695 55.5986 24.0734 59.0625 24.0734ZM52.5 36.0992V33.2959L53.8781 31.9112C54.8745 32.2721 56.7766 32.8387 58.9936 32.8387C61.2358 32.8387 63.2231 32.2656 64.2425 31.9101L65.625 33.2806V36.0992C65.625 39.7162 62.6817 42.6584 59.0625 42.6584C55.4433 42.6584 52.5 39.7162 52.5 36.0992ZM59.0625 44.8459C59.8183 44.8459 60.5489 44.7387 61.25 44.5571V45.9331C61.25 46.3793 60.398 47.029 59.0625 47.029C57.727 47.029 56.875 46.3793 56.875 45.9331V44.5571C57.5761 44.7387 58.3067 44.8459 59.0625 44.8459ZM52.4781 47.0388C52.4858 47.0388 52.4923 47.0432 52.5 47.0432H54.9533C55.5494 48.3196 57.1331 49.2165 59.0625 49.2165C60.9919 49.2165 62.5756 48.3196 63.1717 47.0432H65.625C65.6327 47.0432 65.6392 47.0388 65.6469 47.0388C66.8434 47.0509 67.8125 48.0243 67.8125 49.2231V52.5109H50.3125V49.2231C50.3125 48.0243 51.2827 47.0509 52.4781 47.0388Z" fill="white"/>
<path d="M1.09375 54.6843H20.7812C21.3861 54.6843 21.875 54.1954 21.875 53.5906V49.2112C21.875 46.7984 19.9128 44.8362 17.5 44.8362C17.488 44.8362 17.4792 44.8428 17.4683 44.8428H15.3125V43.6495C17.9222 42.1357 19.6853 39.3193 19.6875 36.0928V36.0917V31.1698C19.6875 28.7668 18.7622 26.5804 17.2605 24.9289C17.2353 24.8961 17.2069 24.8676 17.1773 24.8381C15.4788 23.0192 13.0681 21.8729 10.3895 21.8729C5.26312 21.8729 1.09375 26.0434 1.09375 31.1698V31.7123C1.09375 31.7593 1.11563 31.7987 1.12 31.8436C1.12875 31.9168 1.13969 31.9868 1.16266 32.0546C1.18562 32.1236 1.21625 32.1826 1.25016 32.2439C1.28406 32.304 1.31906 32.3598 1.36391 32.4123C1.40984 32.467 1.46234 32.5118 1.51922 32.5567C1.57281 32.5982 1.62531 32.6365 1.68547 32.6693C1.75219 32.7043 1.82109 32.7262 1.89328 32.747C1.93594 32.759 1.96984 32.7842 2.01469 32.7918C2.07594 32.8017 2.12734 32.8039 2.1875 32.8126V36.0917V36.0928C2.18969 39.3193 3.95281 42.1357 6.5625 43.6495V44.8428H4.40672C4.39469 44.8428 4.38594 44.8362 4.375 44.8362C1.96219 44.8362 0 46.7984 0 49.2112V53.5906C0 54.1954 0.488906 54.6843 1.09375 54.6843ZM16.5911 27.7015C16.9531 28.3479 17.2178 29.0534 17.3655 29.8037C16.8656 29.4242 16.3931 29.1836 15.9305 29.0446L16.5911 27.7015ZM10.3895 24.0604C12.1844 24.0604 13.8195 24.7331 15.0719 25.8334L13.4509 29.1332C13.0178 29.2612 12.5694 29.4296 12.0925 29.6189C10.2769 30.3375 7.80719 31.2868 3.30312 30.7476C3.52297 27.0245 6.61172 24.0604 10.3895 24.0604ZM4.375 36.0873V33.05C8.61875 33.33 11.1464 32.3445 12.8975 31.6532C14.9581 30.8373 15.5728 30.6021 17.5 33.0478V36.0873C17.5 39.7043 14.5567 42.6454 10.9375 42.6454C7.31828 42.6454 4.375 39.7043 4.375 36.0873ZM10.9375 44.8329C11.6933 44.8329 12.4239 44.7257 13.125 44.5453V45.93V45.9311V45.9332C13.125 46.3795 12.273 47.0292 10.9375 47.0292C9.60203 47.0292 8.75 46.3795 8.75 45.9332V44.5453C9.45109 44.7268 10.1817 44.8329 10.9375 44.8329ZM4.35313 47.0259C4.36078 47.0259 4.36734 47.0303 4.375 47.0303H6.82281C7.41344 48.3132 9.00156 49.2167 10.9375 49.2167C12.8734 49.2167 14.4616 48.3132 15.0522 47.0303H17.5C17.5077 47.0303 17.5142 47.0259 17.5219 47.0259C18.7184 47.0379 19.6875 48.0125 19.6875 49.2112V52.4968H2.1875V49.2112C2.1875 48.0125 3.15766 47.0379 4.35313 47.0259Z" fill="white"/>
<path d="M42.6562 54.6842H40.4688V52.1095C43.7325 50.2162 45.9375 46.6911 45.9375 42.654V36.0894C45.9375 33.449 44.0552 31.2386 41.5625 30.7311V27.3394C41.5625 26.7345 41.0736 26.2456 40.4688 26.2456H33.9062C28.478 26.2456 24.0625 30.6611 24.0625 36.0894V42.7076C24.0625 42.7142 24.0658 42.7197 24.0658 42.7262C24.092 46.7326 26.2872 50.2272 29.5312 52.1106V54.6842H27.3438C23.7245 54.6842 20.7812 57.6275 20.7812 61.2467V65.6217C20.7812 66.8281 21.7623 67.8092 22.9688 67.8092H47.0312C48.2377 67.8092 49.2188 66.8281 49.2188 65.6217V61.2467C49.2188 57.6275 46.2755 54.6842 42.6562 54.6842ZM33.9062 28.4342H39.375V31.7154C39.375 32.3203 39.8639 32.8092 40.4688 32.8092C42.2778 32.8092 43.75 34.2814 43.75 36.0905V37.3417L42.175 36.2775C42.1291 36.2469 42.0766 36.2403 42.0284 36.2162C41.9683 36.1878 41.9125 36.1594 41.848 36.1429C41.7736 36.1211 41.6992 36.1156 41.6227 36.1112C41.5581 36.1079 41.498 36.1036 41.4323 36.1112C41.3558 36.1211 41.2847 36.1429 41.2114 36.1692C41.1677 36.1845 41.1228 36.1834 41.0802 36.2031C41.0594 36.214 39.0228 37.1842 35.5469 37.1842C31.9627 37.1842 28.8137 36.1572 28.7809 36.1462C28.758 36.1386 28.735 36.144 28.712 36.1375C28.6409 36.1178 28.5687 36.1145 28.4944 36.1112C28.4244 36.1079 28.3566 36.1014 28.2888 36.1112C28.2231 36.1211 28.163 36.144 28.0984 36.1648C28.0273 36.1889 27.9573 36.2129 27.8917 36.2512C27.8698 36.2633 27.8469 36.2644 27.8261 36.2775L26.25 37.3417V36.0905C26.25 31.8697 29.6855 28.4342 33.9062 28.4342ZM26.25 42.6551V39.982L28.6191 38.3819C29.727 38.6979 32.4527 39.3717 35.5469 39.3717C38.4552 39.3717 40.483 38.7723 41.4345 38.4179L43.75 39.982V42.6551C43.75 47.4786 39.8245 51.403 34.9989 51.403C30.1744 51.403 26.25 47.4786 26.25 42.6551ZM34.9989 53.5905C36.1419 53.5905 37.2444 53.4133 38.2812 53.0862V55.7747C38.2812 56.9625 36.7784 57.9665 35 57.9665C33.2216 57.9665 31.7188 56.9625 31.7188 55.7747V53.0862C32.7545 53.4133 33.8559 53.5905 34.9989 53.5905ZM27.3438 56.8717H29.727C30.3395 58.754 32.4603 60.154 35 60.154C37.5397 60.154 39.6616 58.754 40.273 56.8717H42.6562C45.0691 56.8717 47.0312 58.8339 47.0312 61.2467V65.6217H22.9742C22.972 65.6217 22.9709 65.6206 22.9688 65.6206V61.2467C22.9688 58.8339 24.9309 56.8717 27.3438 56.8717Z" fill="white"/>
<path d="M28.4375 14.2319V15.3257H27.3438C26.7389 15.3257 26.25 15.8146 26.25 16.4194C26.25 17.0243 26.7389 17.5132 27.3438 17.5132H28.4375V18.6069C28.4375 19.2118 28.9264 19.7007 29.5312 19.7007C30.1361 19.7007 30.625 19.2118 30.625 18.6069V17.5132H31.7188C32.3236 17.5132 32.8125 17.0243 32.8125 16.4194C32.8125 15.8146 32.3236 15.3257 31.7188 15.3257H30.625V14.2319C30.625 13.6271 30.1361 13.1382 29.5312 13.1382C28.9264 13.1382 28.4375 13.6271 28.4375 14.2319Z" fill="#FF335A"/>
<path d="M38.3501 17.5099C38.9539 17.5099 39.4439 17.021 39.4439 16.4161C39.4439 15.8113 38.9539 15.3224 38.3501 15.3224H38.3381C37.7344 15.3224 37.2509 15.8113 37.2509 16.4161C37.2509 17.021 37.7464 17.5099 38.3501 17.5099Z" fill="#FF335A"/>
<path d="M40.5376 15.3224C41.1414 15.3224 41.6314 14.8335 41.6314 14.2286C41.6314 13.6238 41.1414 13.1349 40.5376 13.1349H40.5256C39.9219 13.1349 39.4384 13.6238 39.4384 14.2286C39.4384 14.8335 39.9339 15.3224 40.5376 15.3224Z" fill="#FF335A"/>
<path d="M40.5398 17.5121H40.5278C39.924 17.5121 39.4406 18.001 39.4406 18.6058C39.4406 19.2107 39.935 19.6996 40.5398 19.6996C41.1436 19.6996 41.6336 19.2107 41.6336 18.6058C41.6336 18.001 41.1436 17.5121 40.5398 17.5121Z" fill="#FF335A"/>
<path d="M42.7274 17.5121C43.3311 17.5121 43.8211 17.0232 43.8211 16.4183C43.8211 15.8135 43.3311 15.3246 42.7274 15.3246H42.7154C42.1116 15.3246 41.6282 15.8135 41.6282 16.4183C41.6282 17.0232 42.1236 17.5121 42.7274 17.5121Z" fill="#FF335A"/>
<path d="M40.4469 6.56251C40.4425 6.56251 40.4403 6.5647 40.4359 6.5647H37.1667C35.3577 6.5647 33.8855 8.03689 33.8855 9.84595V9.85689H29.5312C25.912 9.85689 22.9688 12.8002 22.9688 16.4194C22.9688 20.0386 25.912 22.9819 29.5312 22.9819C31.7537 22.9819 33.7969 21.8564 35 20.0386C36.2031 21.8564 38.2463 22.9819 40.4688 22.9819C44.088 22.9819 47.0312 20.0386 47.0312 16.4194C47.0312 12.8002 44.088 9.85689 40.4688 9.85689H36.073V9.84595C36.073 9.2422 36.563 8.7522 37.1667 8.7522H40.4469C40.4545 8.7522 40.4611 8.74783 40.4688 8.74783C42.268 8.7358 43.727 7.27126 43.727 5.47095C43.727 3.66626 42.2614 2.19845 40.4589 2.19298C40.4545 2.19298 40.4523 2.1908 40.448 2.1908H29.5148C28.91 2.1908 28.4211 2.6797 28.4211 3.28455C28.4211 3.88939 28.91 4.3783 29.5148 4.3783H40.4425C40.4447 4.3783 40.4458 4.37939 40.448 4.37939C41.0506 4.37939 41.5395 4.8683 41.5395 5.47095C41.5395 6.07361 41.0495 6.56251 40.4469 6.56251ZM44.8438 16.4194C44.8438 18.8322 42.8816 20.7944 40.4688 20.7944C38.7341 20.7944 37.1623 19.7641 36.4634 18.1683C36.2895 17.7713 35.8958 17.5131 35.4616 17.5131H34.5384C34.1042 17.5131 33.7105 17.7702 33.5366 18.1683C32.8377 19.7641 31.2659 20.7944 29.5312 20.7944C27.1184 20.7944 25.1562 18.8322 25.1562 16.4194C25.1562 14.0066 27.1184 12.0444 29.5312 12.0444H40.4688C42.8816 12.0444 44.8438 14.0066 44.8438 16.4194Z" fill="#FF335A"/>
</g>
<defs>
<clipPath id="clip0">
<rect width="70" height="70" fill="white"/>
</clipPath>
</defs>
</svg>
