<svg width="70" height="70" viewBox="0 0 70 70" fill="none" xmlns="http://www.w3.org/2000/svg">
<g clip-path="url(#clip0)">
<path d="M30.625 47.0291L27.3427 47.0269V42.7689C31.9123 40.1166 34.9989 35.1805 34.9989 29.5291V17.4978C34.9989 13.6489 32.1398 10.4628 28.4364 9.92905V6.5603C28.4364 5.95546 27.9475 5.46655 27.3427 5.46655H18.5927C10.7516 5.46655 4.37281 11.8453 4.37281 19.6853C4.37281 19.6875 4.3739 19.6886 4.3739 19.6908V25.1486V25.1595V29.5291C4.3739 35.1826 7.46047 40.1176 12.0302 42.7689L12.0312 47.0269L8.76094 47.0291C8.75656 47.0291 8.75437 47.0269 8.75 47.0269C6.41047 47.0269 4.21312 47.9369 2.56047 49.5884C0.908905 51.2411 -0.00109482 53.4384 -1.06823e-06 55.7769L-0.00109482 62.3394V62.3405V62.3416C-0.00109482 63.548 0.979999 64.5291 2.1864 64.5291H37.1864C38.3928 64.5291 39.3739 63.548 39.3739 62.3416V55.7791C39.3739 50.9545 35.4495 47.0302 30.625 47.0291ZM18.5927 7.65405H26.2489V10.9353C26.2489 11.5401 26.7378 12.0291 27.3427 12.0291C30.3581 12.0291 32.8114 14.4823 32.8114 17.4978V22.5137L31.3972 21.0995C31.3939 21.0962 31.3895 21.0951 31.3862 21.0919C31.3108 21.0186 31.22 20.9694 31.1281 20.9201C31.0942 20.9016 31.0647 20.872 31.0297 20.8578C30.952 20.8272 30.8689 20.8228 30.7858 20.8108C30.7289 20.802 30.6753 20.7801 30.6184 20.7801C30.5692 20.7801 30.5211 20.802 30.4719 20.8086C30.3789 20.8217 30.2859 20.8316 30.1984 20.8676C30.1941 20.8698 30.1897 20.8687 30.1853 20.8709C30.1372 20.8917 25.3302 22.9666 19.6853 22.9666C14.0623 22.9666 9.23344 20.8917 9.18531 20.8709C9.18094 20.8687 9.17656 20.8698 9.17219 20.8676C9.06828 20.825 8.96 20.8097 8.85062 20.7987C8.81781 20.7955 8.78609 20.7791 8.75328 20.7791C8.67015 20.7791 8.58922 20.8053 8.50609 20.825C8.4514 20.8381 8.39344 20.8359 8.34203 20.8567C8.29937 20.8742 8.26547 20.9092 8.225 20.9311C8.14078 20.9781 8.05547 21.0219 7.98547 21.0908C7.98109 21.0941 7.97672 21.0951 7.97344 21.0984L6.55922 22.5126V19.6842C6.55922 19.6831 6.55812 19.6809 6.55812 19.6798C6.5625 13.0495 11.9591 7.65405 18.5927 7.65405ZM6.5614 29.5291V25.6058L9.0125 23.1558C10.6247 23.7661 14.8236 25.1541 19.6864 25.1541C24.5492 25.1541 28.7481 23.765 30.3603 23.1558L32.8114 25.6069V29.5291C32.8114 36.7664 26.9237 42.6541 19.6864 42.6541C12.4491 42.6541 6.5614 36.7664 6.5614 29.5291ZM19.6864 44.8416C21.6147 44.8416 23.4533 44.4675 25.1552 43.8145V47.5355L22.8069 49.1039L20.0342 48.1753C19.9927 48.1611 19.9511 48.1687 19.9084 48.16C19.8352 48.1436 19.763 48.1326 19.6853 48.1326C19.612 48.1326 19.5431 48.1447 19.4731 48.1589C19.4283 48.1676 19.3845 48.16 19.3408 48.1753L16.5692 49.1028L14.2187 47.5355L14.2177 43.8156C15.9195 44.4675 17.7581 44.8416 19.6864 44.8416ZM37.1864 62.3416H2.1864V62.3405V62.3394L2.1875 55.7769C2.1875 54.0225 2.8689 52.3742 4.10812 51.135C5.34406 49.8991 6.99015 49.2166 8.74125 49.2144C8.74453 49.2144 8.74672 49.2166 8.75 49.2166H8.75109L12.7925 49.2144L15.797 51.2203C15.8528 51.2564 15.9119 51.2772 15.9709 51.3012C16.0081 51.3187 16.042 51.3406 16.0814 51.3537C16.1875 51.3855 16.2958 51.4041 16.4041 51.4041H16.4052H16.4084C16.5134 51.403 16.6162 51.3822 16.7169 51.3526C16.7289 51.3494 16.7398 51.3516 16.7519 51.3472L19.6864 50.3661L22.6209 51.3472C22.633 51.3516 22.6439 51.3494 22.657 51.3526C22.7577 51.3822 22.8605 51.403 22.9644 51.4041H22.9677H22.9687C23.077 51.4041 23.1853 51.3855 23.2914 51.3526C23.3297 51.3406 23.3625 51.3187 23.4008 51.3023C23.4598 51.2772 23.52 51.2564 23.5747 51.2203L26.5803 49.2144L30.6228 49.2166H30.6239C34.2431 49.2166 37.1864 52.1598 37.1864 55.7791V62.3416Z" fill="white"/>
<path d="M19.7192 53.5916H19.7072C19.1034 53.5916 18.62 54.0805 18.62 54.6853C18.62 55.2901 19.1144 55.7791 19.7192 55.7791C20.323 55.7791 20.813 55.2901 20.813 54.6853C20.813 54.0805 20.323 53.5916 19.7192 53.5916Z" fill="white"/>
<path d="M19.7192 57.9666H19.7072C19.1034 57.9666 18.62 58.4555 18.62 59.0603C18.62 59.6651 19.1144 60.1541 19.7192 60.1541C20.323 60.1541 20.813 59.6651 20.813 59.0603C20.813 58.4555 20.323 57.9666 19.7192 57.9666Z" fill="white"/>
<path d="M42.117 38.15C42.2833 38.2452 42.4692 38.2922 42.6552 38.2922C42.8509 38.2922 43.0445 38.2397 43.2184 38.1358L48.4269 35.011H67.8125C68.4173 35.011 68.9062 34.5221 68.9062 33.9172V6.57129C68.9062 5.96645 68.4173 5.47754 67.8125 5.47754H39.375C38.7702 5.47754 38.2812 5.96645 38.2812 6.57129V33.9172C38.2812 34.5221 38.7702 35.011 39.375 35.011H41.5625V37.1985C41.5614 37.5922 41.7725 37.9554 42.117 38.15ZM40.4677 32.8235V7.66504H66.7177V32.8235H48.1228C47.9238 32.8235 47.7302 32.8771 47.5595 32.9799L43.7489 35.2669V33.9172C43.7489 33.3124 43.26 32.8235 42.6552 32.8235H40.4677Z" fill="white"/>
<path d="M48.9672 21.8947L48.2475 26.0739C48.1775 26.4841 48.3448 26.8997 48.6817 27.1447C48.872 27.2836 49.0984 27.3536 49.3248 27.3536C49.4987 27.3536 49.6726 27.3121 49.8334 27.2289L53.5937 25.2547L57.3453 27.2278C57.7139 27.4236 58.1601 27.3897 58.4981 27.1458C58.835 26.9008 59.0034 26.4863 58.9323 26.0761L58.2192 21.8958L61.2565 18.9317C61.5541 18.6408 61.6612 18.2066 61.5333 17.8106C61.4042 17.4158 61.0619 17.1271 60.6495 17.0669L56.4506 16.4566L54.5737 12.6514C54.2062 11.9033 52.9801 11.9033 52.6126 12.6514L50.7358 16.4566L46.5369 17.0669C46.1245 17.1271 45.7833 17.4147 45.6531 17.8106C45.5251 18.2066 45.6312 18.6419 45.9298 18.9317L48.9672 21.8947ZM51.6184 18.538C51.975 18.4866 52.2823 18.2624 52.442 17.9397L53.5926 15.6067L54.7433 17.9397C54.903 18.2624 55.2103 18.4866 55.5669 18.538L58.1415 18.9121L56.2789 20.7299C56.0219 20.9803 55.9037 21.3435 55.965 21.6967L56.4025 24.2616L54.1012 23.0519C53.9415 22.9677 53.7665 22.9261 53.5915 22.9261C53.4176 22.9261 53.2426 22.9677 53.083 23.0508L50.7784 24.2616L51.2192 21.6989C51.2804 21.3446 51.1623 20.9814 50.9053 20.7299L49.0426 18.9121L51.6184 18.538Z" fill="white"/>
<path d="M51.3986 55.7725H50.3049V54.6798C50.3049 54.075 49.816 53.5861 49.2111 53.5861C48.6063 53.5861 48.1174 54.075 48.1174 54.6798V55.7725H47.0236C46.4188 55.7725 45.9299 56.2614 45.9299 56.8662C45.9299 57.4711 46.4188 57.96 47.0236 57.96H48.1174V59.0526C48.1174 59.6575 48.6063 60.1464 49.2111 60.1464C49.816 60.1464 50.3049 59.6575 50.3049 59.0526V57.96H51.3986C52.0035 57.96 52.4924 57.4711 52.4924 56.8662C52.4924 56.2614 52.0035 55.7725 51.3986 55.7725Z" fill="#FF335A"/>
<path d="M60.1945 55.7725H60.1825C59.5787 55.7725 59.0953 56.2614 59.0953 56.8662C59.0953 57.4711 59.5897 57.96 60.1945 57.96C60.7983 57.96 61.2883 57.4711 61.2883 56.8662C61.2883 56.2614 60.7983 55.7725 60.1945 55.7725Z" fill="#FF335A"/>
<path d="M62.382 55.7736C62.9858 55.7736 63.4758 55.2847 63.4758 54.6798C63.4758 54.075 62.9858 53.5861 62.382 53.5861H62.37C61.7662 53.5861 61.2828 54.075 61.2828 54.6798C61.2828 55.2847 61.7772 55.7736 62.382 55.7736Z" fill="#FF335A"/>
<path d="M62.3842 57.96H62.3722C61.7685 57.96 61.285 58.4489 61.285 59.0537C61.285 59.6586 61.7794 60.1475 62.3842 60.1475C62.988 60.1475 63.478 59.6586 63.478 59.0537C63.478 58.4489 62.988 57.96 62.3842 57.96Z" fill="#FF335A"/>
<path d="M64.5717 55.7736H64.5597C63.956 55.7736 63.4725 56.2625 63.4725 56.8673C63.4725 57.4722 63.9669 57.9611 64.5717 57.9611C65.1755 57.9611 65.6655 57.4722 65.6655 56.8673C65.6655 56.2625 65.1755 55.7736 64.5717 55.7736Z" fill="#FF335A"/>
<path d="M62.3514 49.222H56.8641V49.2133C56.8641 47.4042 55.3919 45.932 53.5828 45.932H47.0236C47.0214 45.932 47.0203 45.9309 47.0181 45.9309C46.4155 45.9309 45.9266 45.442 45.9266 44.8394C45.9266 44.2367 46.4155 43.7478 47.0181 43.7478C47.0225 43.7478 47.0247 43.7456 47.0291 43.7456H68.8997C69.5045 43.7456 69.9934 43.2567 69.9934 42.6519C69.9934 42.047 69.5045 41.5581 68.8997 41.5581H47.0181C47.0105 41.5581 47.0039 41.5625 46.9962 41.5625C45.197 41.5745 43.738 43.039 43.738 44.8394C43.738 46.644 45.2036 48.1119 47.0061 48.1173C47.0105 48.1173 47.0127 48.1195 47.017 48.1195H53.5817C54.1855 48.1195 54.6755 48.6095 54.6755 49.2133V49.222H49.2209C45.0002 49.222 41.5647 52.6575 41.5647 56.8783C41.5647 61.099 45.0002 64.5334 49.2209 64.5334C51.9378 64.5334 54.4184 63.0864 55.7823 60.8125C57.1462 63.0864 59.6269 64.5334 62.3438 64.5334C66.5645 64.5334 70 61.099 70 56.8783C70.0011 52.6597 66.57 49.2253 62.3514 49.222ZM62.3448 62.3459C60.0327 62.3459 57.9611 60.877 57.1911 58.6906C57.0358 58.2531 56.6223 57.96 56.1597 57.96H55.4072C54.9434 57.96 54.53 58.2531 54.3758 58.6906C53.6058 60.877 51.5342 62.3459 49.222 62.3459C46.2066 62.3459 43.7533 59.8937 43.7533 56.8783C43.7533 53.8628 46.2066 51.4095 49.222 51.4095H62.3503C65.3625 51.4128 67.8136 53.865 67.8136 56.8783C67.8136 59.8937 65.3603 62.3459 62.3448 62.3459Z" fill="#FF335A"/>
</g>
<defs>
<clipPath id="clip0">
<rect width="70" height="70" fill="white"/>
</clipPath>
</defs>
</svg>
