<svg width="70" height="70" viewBox="0 0 70 70" fill="none" xmlns="http://www.w3.org/2000/svg">
<path d="M0.853118 45.3545L15.3169 48.7309V61.6733C15.3136 61.7094 15.295 61.7422 15.295 61.7794C15.295 64.2009 17.2659 66.1719 19.6875 66.1719C19.7116 66.1719 19.7323 66.1598 19.7564 66.1577H48.0638C48.0867 66.1598 48.1075 66.1719 48.1327 66.1719C50.5542 66.1719 52.5252 64.2009 52.5252 61.7794C52.5252 61.7269 52.5022 61.682 52.4956 61.6306V48.7287L65.6338 45.6641V50.7073L63.49 58.2181C63.4747 58.2695 63.4845 58.3198 63.478 58.3723C63.4703 58.4227 63.4484 58.4664 63.4484 58.5189C63.4484 58.5419 63.4605 58.5605 63.4616 58.5834C63.467 58.6611 63.4856 58.7322 63.5064 58.8066C63.525 58.8722 63.5381 58.9356 63.5687 58.9947C63.5994 59.0581 63.6409 59.1095 63.6836 59.1653C63.7262 59.2233 63.7645 59.2791 63.8181 59.325C63.8673 59.3698 63.9253 59.4005 63.9822 59.4366C64.0478 59.4759 64.1091 59.5142 64.1823 59.5405C64.2042 59.5481 64.2195 59.5645 64.2425 59.5711C64.342 59.5984 64.4416 59.6116 64.54 59.6127H64.5422H68.8997H68.9019C69.0003 59.6116 69.0998 59.5995 69.1983 59.5711C69.2213 59.5645 69.2355 59.5481 69.2573 59.5416C69.3317 59.5153 69.3952 59.477 69.4619 59.4366C69.5188 59.4016 69.5756 59.3698 69.6237 59.3261C69.6773 59.278 69.7167 59.2222 69.7594 59.1664C69.8009 59.1106 69.8436 59.0581 69.8731 58.9969C69.9027 58.9356 69.918 58.8711 69.9366 58.8044C69.9573 58.7322 69.9759 58.6622 69.9803 58.5867C69.9825 58.5638 69.9945 58.543 69.9945 58.5189C69.9945 58.4653 69.9716 58.4194 69.965 58.3691C69.9584 58.3188 69.9672 58.2695 69.953 58.2203L67.8223 50.7095V44.2892C67.8223 44.0387 67.7239 43.8178 67.5817 43.633C67.5741 43.6231 67.5686 43.6111 67.5598 43.6023C67.4997 43.5302 67.4308 43.4711 67.3542 43.4153C67.3214 43.3912 67.2875 43.3683 67.2525 43.3464C67.1847 43.3092 67.1169 43.2808 67.0414 43.2578C67.013 43.2491 66.99 43.2305 66.9605 43.2239L34.1469 35.5666C33.9828 35.5283 33.8133 35.5283 33.6492 35.5666L0.853118 43.225C0.358743 43.3398 0.00874329 43.7817 0.00874329 44.2903C0.00874329 44.7989 0.358743 45.2386 0.853118 45.3545ZM50.3256 61.8866C50.2677 63.0416 49.3259 63.9636 48.1611 63.98C48.1425 63.9789 48.1272 63.9691 48.1075 63.9691H19.6875C19.6711 63.9691 19.658 63.9778 19.6416 63.9789C18.4756 63.9548 17.5328 63.0208 17.4912 61.8592C17.4923 61.8363 17.5044 61.8166 17.5044 61.7925V49.2417L33.6492 53.0097C33.7312 53.0294 33.8144 53.0381 33.8986 53.0381C33.9828 53.0381 34.0648 53.0283 34.148 53.0097L50.307 49.2395V61.7936C50.3059 61.8253 50.3223 61.8548 50.3256 61.8866ZM66.722 54.8581L67.4505 57.4252H65.9892L66.722 54.8581ZM33.8975 37.7551L61.8953 44.2903L33.8975 50.8222L5.91281 44.2892L33.8975 37.7551Z" fill="white"/>
<path d="M47.04 59.6149H20.79C20.1852 59.6149 19.6963 60.1038 19.6963 60.7086C19.6963 61.3135 20.1852 61.8024 20.79 61.8024H47.04C47.6449 61.8024 48.1338 61.3135 48.1338 60.7086C48.1338 60.1038 47.6449 59.6149 47.04 59.6149Z" fill="white"/>
<path d="M25.1552 35.5513C28.9319 35.5513 32.3148 33.4283 33.9708 30.0825H36.0303C37.6862 33.4283 41.0681 35.5513 44.8459 35.5513C50.2742 35.5513 54.6897 31.1358 54.6897 25.7086V21.3314C54.6897 15.9042 50.2742 11.4877 44.8459 11.4877H36.0883V11.4844C36.0883 10.8817 36.5783 10.3906 37.182 10.3906H43.7467C43.7544 10.3906 43.7609 10.3863 43.7686 10.3863C45.5667 10.3742 47.0269 8.90969 47.0269 7.10938C47.0269 5.30469 45.5612 3.83688 43.7587 3.83141C43.7544 3.83141 43.7522 3.82922 43.7478 3.82922H26.2434C25.6386 3.82922 25.1497 4.31922 25.1497 4.92297C25.1497 5.52672 25.6386 6.01672 26.2434 6.01672H43.7402C43.7423 6.01672 43.7434 6.01782 43.7456 6.01782C44.3483 6.01782 44.8372 6.50782 44.8372 7.10938C44.8372 7.71094 44.3483 8.20094 43.7456 8.20094C43.7412 8.20094 43.7391 8.20313 43.7347 8.20313H37.1809C35.3719 8.20313 33.8997 9.67532 33.8997 11.4844V11.4877H25.1552C19.7269 11.4877 15.3114 15.9042 15.3114 21.3314V25.7086C15.3114 31.1358 19.7269 35.5513 25.1552 35.5513ZM25.1552 33.3638C21.6825 33.3638 18.748 31.0384 17.8139 27.8655C19.6175 29.89 22.2359 31.1741 25.1552 31.1741C27.8633 31.1741 30.3581 30.0683 32.1694 28.2166V28.7394C30.9531 31.5514 28.2264 33.3638 25.1552 33.3638ZM35.6431 27.895H34.3569V25.7064H35.6431V27.895ZM44.8448 33.3638C41.7736 33.3638 39.0469 31.5514 37.8306 28.7394V28.2166C39.6419 30.0683 42.1378 31.1741 44.8448 31.1741C47.7641 31.1741 50.3825 29.89 52.1861 27.8655C51.252 31.0384 48.3175 33.3638 44.8448 33.3638ZM25.1552 13.6752H44.8448C49.0656 13.6752 52.5011 17.1095 52.5011 21.3314C52.5011 25.5522 49.0656 28.9866 44.8448 28.9866C41.7134 28.9866 38.9287 27.1086 37.7508 24.2014C37.7497 24.1992 37.7475 24.197 37.7464 24.1949C37.7387 24.1774 37.7256 24.1642 37.7191 24.1478C37.6709 24.0472 37.6097 23.9564 37.5364 23.8766C37.5102 23.847 37.4795 23.8241 37.4489 23.7967C37.38 23.7366 37.3067 23.6863 37.2258 23.6458C37.1908 23.6272 37.1569 23.6086 37.1197 23.5944C36.9994 23.5484 36.8714 23.5178 36.7369 23.5178H33.2631C33.1286 23.5178 33.0028 23.5495 32.8803 23.5944C32.8431 23.6086 32.8103 23.6272 32.7742 23.6447C32.6933 23.6863 32.6189 23.7355 32.5511 23.7956C32.5205 23.8219 32.4898 23.8459 32.4636 23.8755C32.3903 23.9553 32.328 24.0461 32.2798 24.1467C32.2722 24.1631 32.2591 24.1763 32.2536 24.1927C32.2525 24.1949 32.2503 24.197 32.2492 24.1992C31.0712 27.1053 28.2866 28.9844 25.1552 28.9844C20.9344 28.9844 17.4989 25.55 17.4989 21.3292C17.4989 17.1095 20.9344 13.6752 25.1552 13.6752Z" fill="#FF335A"/>
<path d="M22.9688 22.4252H24.0625V23.5189C24.0625 24.1227 24.5514 24.6127 25.1562 24.6127C25.7611 24.6127 26.25 24.1227 26.25 23.5189V22.4252H27.3438C27.9486 22.4252 28.4375 21.9352 28.4375 21.3314C28.4375 20.7277 27.9486 20.2377 27.3438 20.2377H26.25V19.1439C26.25 18.5402 25.7611 18.0502 25.1562 18.0502C24.5514 18.0502 24.0625 18.5402 24.0625 19.1439V20.2377H22.9688C22.3639 20.2377 21.875 20.7277 21.875 21.3314C21.875 21.9352 22.3639 22.4252 22.9688 22.4252Z" fill="#FF335A"/>
<path d="M42.723 22.4252C43.3267 22.4252 43.8167 21.9352 43.8167 21.3314C43.8167 20.7277 43.3267 20.2377 42.723 20.2377H42.7109C42.1072 20.2377 41.6237 20.7277 41.6237 21.3314C41.6237 21.9352 42.1181 22.4252 42.723 22.4252Z" fill="#FF335A"/>
<path d="M44.9105 20.2377C45.5142 20.2377 46.0042 19.7477 46.0042 19.1439C46.0042 18.5402 45.5142 18.0502 44.9105 18.0502H44.8984C44.2947 18.0502 43.8112 18.5402 43.8112 19.1439C43.8112 19.7477 44.3056 20.2377 44.9105 20.2377Z" fill="#FF335A"/>
<path d="M44.9127 22.4263H44.9006C44.2969 22.4263 43.8134 22.9163 43.8134 23.52C43.8134 24.1238 44.3078 24.6138 44.9127 24.6138C45.5164 24.6138 46.0064 24.1238 46.0064 23.52C46.0064 22.9163 45.5153 22.4263 44.9127 22.4263Z" fill="#FF335A"/>
<path d="M47.1002 22.4263C47.7039 22.4263 48.1939 21.9363 48.1939 21.3325C48.1939 20.7288 47.7039 20.2388 47.1002 20.2388H47.0881C46.4844 20.2388 46.0009 20.7288 46.0009 21.3325C46.0009 21.9363 46.4953 22.4263 47.1002 22.4263Z" fill="#FF335A"/>
</svg>
