<svg width="295" height="60" viewBox="0 0 295 60" fill="none" xmlns="http://www.w3.org/2000/svg">
<g clip-path="url(#clip0)">
<path d="M3.98511 32.2635C3.85445 32.1982 3.65846 32.1329 3.46248 32.1982C3.26649 32.1982 3.13583 32.2635 2.93984 32.3942C2.80918 32.4595 2.67852 32.5902 2.61319 32.7862C2.54786 32.9168 2.48253 33.1128 2.54786 33.3088C2.54786 33.5048 2.61319 33.6355 2.67852 33.8314C2.74385 33.9621 2.87451 34.0928 3.0705 34.1581C3.20116 34.2234 3.39715 34.2888 3.59313 34.2234C3.78912 34.2234 3.91978 34.1581 4.11577 34.0274C4.24643 33.9621 4.37709 33.8314 4.44242 33.6355C4.50775 33.5048 4.57308 33.3088 4.50775 33.1128C4.50775 32.9168 4.44242 32.7862 4.37709 32.5902C4.24643 32.4595 4.11577 32.3289 3.98511 32.2635Z" fill="white"/>
<path d="M16.1365 51.9278L15.5485 51.6011L14.5685 53.2997L15.1565 53.6264C15.3525 53.757 15.4832 53.757 15.6791 53.8223C15.8751 53.8223 16.0058 53.8223 16.1365 53.6917C16.2671 53.6264 16.3978 53.4957 16.5284 53.2997C16.5938 53.1037 16.6591 52.9731 16.6591 52.7771C16.6591 52.5811 16.5938 52.4504 16.5284 52.3198C16.4631 52.1891 16.3324 52.0584 16.1365 51.9278Z" fill="white"/>
<path d="M26.0013 55.0636L25.4133 54.9983L25.2826 56.1089L25.8706 56.1742C26.0666 56.1742 26.2626 56.1742 26.3932 56.0436C26.5239 55.9782 26.5892 55.8476 26.5892 55.6516C26.5892 55.4556 26.5892 55.3249 26.4586 55.1943C26.3932 55.1943 26.2626 55.1289 26.0013 55.0636Z" fill="white"/>
<path d="M7.31691 16.6497L7.97021 17.8257L8.62351 16.9764L7.31691 16.6497Z" fill="white"/>
<path d="M4.05044 27.8865L4.24643 26.8412L2.93983 27.1678L4.05044 27.8865Z" fill="white"/>
<path d="M48.6707 17.891C48.8014 17.9563 48.9974 17.891 49.128 17.8257C49.2587 17.695 49.324 17.5643 49.3893 17.4337C49.3893 17.303 49.324 17.107 49.1934 16.911L48.8667 16.3884L47.9521 17.0417L48.2787 17.5643C48.3441 17.7603 48.4747 17.8257 48.6707 17.891Z" fill="white"/>
<path d="M11.1061 13.6445C11.2367 13.7752 11.3674 13.9059 11.5634 13.9712C11.7594 14.0365 11.89 14.0365 12.086 13.9712C12.282 13.9059 12.4127 13.8405 12.5433 13.7099C12.674 13.5792 12.8046 13.4486 12.87 13.2526C12.9353 13.1219 12.9353 12.9259 12.87 12.7299C12.8046 12.5339 12.7393 12.4033 12.6086 12.2726C12.478 12.142 12.3473 12.0113 12.1513 11.946C11.9553 11.8806 11.8247 11.8806 11.6287 11.946C11.4327 12.0113 11.3021 12.0766 11.1714 12.2073C11.0407 12.3379 10.9101 12.4686 10.8447 12.6646C10.7794 12.7953 10.7794 12.9912 10.8447 13.1872C10.9101 13.3179 10.9754 13.5139 11.1061 13.6445Z" fill="white"/>
<path d="M41.0925 10.5087C41.2231 10.5087 41.3538 10.378 41.4844 10.2474C41.5498 10.1167 41.6151 9.92073 41.5498 9.79007C41.4844 9.65941 41.3538 9.52875 41.1578 9.39809L40.6351 9.07144L40.0472 10.0514L40.5698 10.378C40.7658 10.5087 40.8965 10.574 41.0925 10.5087Z" fill="white"/>
<path d="M31.097 7.63421C31.097 7.37289 30.901 7.1769 30.509 7.1769L29.6597 7.11157L29.5944 7.89553L30.509 7.96086C30.901 8.02619 31.097 7.89553 31.097 7.63421Z" fill="white"/>
<path d="M30.901 6.65423C31.0317 6.5889 31.0317 6.52357 31.097 6.39291C31.097 6.26225 31.097 6.13159 30.9663 6.06626C30.901 6.00093 30.7703 6.00093 30.5744 5.9356L29.8557 5.87027L29.7251 6.65423L30.4437 6.71956C30.6397 6.78489 30.8357 6.71956 30.901 6.65423Z" fill="white"/>
<path d="M30.9663 56.3702L32.0116 56.1742L31.293 55.0636L30.9663 56.3702Z" fill="white"/>
<path d="M44.8162 49.6413C44.6856 49.5107 44.5549 49.38 44.3589 49.3147C44.1629 49.2494 44.0323 49.2494 43.8363 49.2494C43.6403 49.2494 43.5097 49.38 43.379 49.5107C43.2483 49.6413 43.1177 49.772 43.0523 49.968C42.987 50.0986 42.987 50.2946 42.987 50.4906C43.0523 50.6866 43.1177 50.8173 43.2483 50.9479C43.379 51.0786 43.5097 51.2092 43.7056 51.2746C43.9016 51.3399 44.0323 51.3399 44.2283 51.3399C44.4243 51.2746 44.5549 51.2092 44.6856 51.0786C44.8162 50.9479 44.9469 50.8173 45.0122 50.6213C45.0776 50.4253 45.0776 50.2946 45.0776 50.0986C45.0122 49.9027 44.9469 49.772 44.8162 49.6413Z" fill="white"/>
<path d="M52.5251 28.605C52.6558 28.7357 52.7865 28.7357 52.9825 28.7357C53.1784 28.7357 53.3091 28.605 53.3744 28.4743C53.4398 28.3437 53.5051 28.1477 53.4398 27.9517L53.3744 27.3637L52.2638 27.4944L52.3292 28.0824C52.3945 28.2784 52.4598 28.4743 52.5251 28.605Z" fill="white"/>
<path d="M51.8066 23.052C51.9372 22.9214 52.0025 22.7907 52.0025 22.5947C52.0025 22.3987 52.0025 22.2681 51.9372 22.0721C51.8719 21.8761 51.7412 21.7454 51.6106 21.6148C51.4799 21.4841 51.3493 21.4188 51.1533 21.4188C50.9573 21.4188 50.8266 21.4188 50.6306 21.4841C50.4346 21.5495 50.304 21.6801 50.1733 21.8108C50.0427 21.9414 49.9773 22.0721 49.9773 22.2681C49.9773 22.4641 49.9773 22.5947 50.0427 22.7907C50.108 22.9867 50.2386 23.1174 50.3693 23.248C50.5 23.3787 50.6306 23.444 50.8266 23.444C51.0226 23.444 51.1533 23.444 51.3492 23.3787C51.5452 23.3134 51.6759 23.248 51.8066 23.052Z" fill="white"/>
<path d="M56.1836 52.1891L51.2839 47.2894C54.3544 42.7816 56.1836 37.3593 56.1836 31.4796C56.1836 15.9964 43.575 3.38776 28.0918 3.38776C12.6087 3.38776 0 15.9964 0 31.4796C0 46.9627 12.6087 59.5714 28.0918 59.5714C33.9715 59.5714 39.3939 57.7422 43.9016 54.6716L48.8014 59.5714H50.8919L56.1836 54.2797V52.1891ZM48.8667 15.7351L49.52 16.715C49.6507 16.911 49.7813 17.107 49.7813 17.303C49.8466 17.499 49.7813 17.695 49.716 17.8256C49.6507 18.0216 49.52 18.1523 49.3893 18.283C49.1933 18.4136 49.0627 18.4789 48.8667 18.4789C48.6707 18.4789 48.54 18.4136 48.3441 18.3483C48.1481 18.2176 48.0174 18.087 47.8867 17.891L47.4948 17.3683L46.8415 17.8256L46.5148 17.3683L48.8667 15.7351ZM43.6403 13.3179C43.6403 13.4485 43.7056 13.6445 43.771 13.7752C43.8363 13.9059 43.967 14.0365 44.0976 14.1672C44.2283 14.2978 44.3589 14.3632 44.4896 14.4285C44.6203 14.4285 44.6856 14.4285 44.8162 14.3632C44.8816 14.2978 44.8816 14.2325 44.8816 14.1672C44.8816 14.1018 44.8162 14.0365 44.8162 13.9059C44.7509 13.8405 44.6856 13.7099 44.6203 13.5792C44.4896 13.3832 44.4243 13.2526 44.3589 13.1219C44.2936 12.9912 44.2936 12.8606 44.2936 12.7299C44.2936 12.5993 44.3589 12.4686 44.4896 12.3379C44.6203 12.2073 44.7509 12.1419 44.8816 12.1419C45.0122 12.0766 45.2082 12.1419 45.3389 12.2073C45.5349 12.2726 45.6655 12.4033 45.8615 12.5339C45.9922 12.6646 46.1228 12.7952 46.1882 12.9259C46.2535 13.0566 46.3188 13.1872 46.3842 13.3832L45.9922 13.5792C45.9269 13.4485 45.8615 13.3179 45.7962 13.1872C45.7309 13.0566 45.6655 12.9912 45.5349 12.8606C45.4042 12.7299 45.2736 12.6646 45.1429 12.5993C45.0122 12.5993 44.9469 12.5993 44.8162 12.7299C44.7509 12.7952 44.7509 12.8606 44.7509 12.9259C44.7509 12.9912 44.8162 13.0566 44.8162 13.1872C44.8816 13.2526 44.9469 13.3832 45.0122 13.5139C45.1429 13.7099 45.2082 13.8405 45.2736 13.9712C45.3389 14.1018 45.3389 14.2325 45.3389 14.3632C45.3389 14.4938 45.2736 14.6245 45.1429 14.7551C45.0122 14.8858 44.8816 14.9511 44.7509 14.9511C44.6203 15.0165 44.4243 14.9511 44.2936 14.8858C44.0976 14.8205 43.967 14.6898 43.771 14.5592C43.6403 14.4285 43.5096 14.2325 43.379 14.0365C43.2483 13.8405 43.183 13.7099 43.183 13.5139L43.6403 13.3179ZM40.3738 8.48348L41.3538 9.07145C41.5498 9.20211 41.7457 9.33277 41.8764 9.52876C42.0071 9.65942 42.0724 9.85541 42.0724 10.0514C42.0724 10.2474 42.0071 10.378 41.9417 10.574C41.8111 10.77 41.6804 10.9007 41.5498 10.966C41.3538 11.0313 41.2231 11.0967 40.9618 11.0313L41.0271 12.1419L40.5045 11.8153L40.4391 10.8354C40.4391 10.8354 40.3738 10.8354 40.3738 10.77L39.8512 10.4434L39.4592 11.162L39.0019 10.9007L40.3738 8.48348ZM35.2128 6.39293L37.1727 7.04623L37.042 7.4382L35.6047 6.9809L35.4088 7.69952L36.7154 8.0915L36.5847 8.48348L35.2781 8.0915L35.0168 8.81013L36.5194 9.33277L36.3887 9.72475L34.3635 9.07145L35.2128 6.39293ZM29.3331 5.41298L30.6397 5.54364C30.9663 5.54364 31.2276 5.6743 31.3583 5.80496C31.5543 5.93562 31.6196 6.13161 31.5543 6.39293C31.5543 6.52359 31.489 6.65425 31.4236 6.78491C31.3583 6.91557 31.2276 6.9809 31.1623 6.9809C31.293 7.04623 31.4236 7.11156 31.489 7.24221C31.5543 7.37287 31.6196 7.50353 31.5543 7.69952C31.5543 7.96084 31.4236 8.0915 31.2276 8.22216C31.0317 8.35282 30.7703 8.35282 30.3784 8.35282L29.0064 8.22216L29.3331 5.41298ZM23.9107 5.73963L24.8907 6.9809L25.544 5.47831L26.0666 5.41298L25.2173 7.37287L25.348 8.35282L24.8253 8.48348L24.6947 7.50353L23.3881 5.80496L23.9107 5.73963ZM18.423 7.96084C18.4883 7.69952 18.5537 7.50353 18.7497 7.30754C18.9456 7.11156 19.1416 6.9809 19.403 6.85024C19.5989 6.78491 19.8603 6.71958 20.0562 6.71958C20.2522 6.71958 20.4482 6.78491 20.6442 6.91557L20.4482 7.30754C20.1216 7.24221 19.8603 7.17688 19.5989 7.30754C19.403 7.37287 19.2723 7.50353 19.1416 7.63419C19.011 7.76485 18.9456 7.89551 18.9456 8.0915C18.9456 8.28749 18.9456 8.41815 19.011 8.61414C19.0763 8.81013 19.207 8.94079 19.3376 9.07145C19.4683 9.20211 19.5989 9.26744 19.7949 9.26744C19.9909 9.26744 20.1216 9.26744 20.3176 9.20211C20.5789 9.07145 20.7749 8.94079 20.9055 8.61414L21.3628 8.81013C21.2322 8.94079 21.1015 9.13678 20.9055 9.26744C20.7749 9.3981 20.5789 9.52876 20.3176 9.59409C20.0562 9.65942 19.7949 9.72475 19.5336 9.65942C19.2723 9.59409 19.0763 9.52876 18.815 9.33277C18.619 9.20211 18.4883 8.94079 18.3577 8.67947C18.3577 8.48348 18.3577 8.22216 18.423 7.96084ZM10.3874 12.5339C10.4528 12.2726 10.6488 12.0766 10.8447 11.8806C11.0407 11.6846 11.3021 11.554 11.5634 11.4887C11.8247 11.4233 12.086 11.4233 12.3473 11.4887C12.6087 11.554 12.8046 11.6846 13.0006 11.946C13.1313 12.1419 13.2619 12.2726 13.3273 12.4686C13.3926 12.6646 13.3926 12.8606 13.3926 13.0566C13.3926 13.2526 13.262 13.4485 13.1966 13.6445C13.3273 13.6445 13.3926 13.6445 13.4579 13.6445C13.5233 13.6445 13.5886 13.5792 13.6539 13.5139C13.7846 13.3832 13.8499 13.2526 13.8499 12.9912L14.2419 13.0566C14.2419 13.1872 14.2419 13.3179 14.1766 13.4485C14.1112 13.5792 14.0459 13.7099 13.9152 13.7752C13.7846 13.9059 13.5886 13.9712 13.4579 14.0365C13.262 14.1018 13.066 14.1018 12.7393 14.0365C12.5433 14.1672 12.282 14.2978 12.086 14.2978C11.8247 14.3632 11.6287 14.2978 11.3674 14.2325C11.1714 14.1672 10.9101 14.0365 10.7794 13.8405C10.5834 13.6445 10.4528 13.3832 10.4528 13.1219C10.3221 13.0566 10.3221 12.7952 10.3874 12.5339ZM6.99029 16.1271L10.0608 16.715L9.73414 17.1723L9.01551 17.0417L8.16623 18.2176L8.5582 18.8056L8.23155 19.2629L6.66364 16.5844L6.99029 16.1271ZM2.48253 26.8412L5.4877 26.0572L5.42237 26.5798L4.70375 26.7758L4.44243 28.1478L5.03039 28.5397L4.96507 29.0624L2.4172 27.3638L2.48253 26.8412ZM5.35704 32.6555C5.29171 32.8515 5.16105 33.0475 4.96507 33.2435C4.96507 33.5048 4.89974 33.7661 4.76908 33.9621C4.63842 34.1581 4.50776 34.3541 4.31177 34.4847C4.11578 34.6154 3.85446 34.6807 3.59314 34.6807C3.33182 34.6807 3.0705 34.6807 2.80918 34.5501C2.54786 34.4194 2.4172 34.2888 2.22121 34.0274C2.09055 33.8314 2.02522 33.5701 1.95989 33.2435C1.95989 32.9822 1.95989 32.7208 2.09055 32.4595C2.22121 32.1982 2.35187 32.0022 2.54786 31.8715C2.74385 31.7409 3.00517 31.6102 3.26649 31.6102C3.46248 31.6102 3.7238 31.6102 3.91979 31.6756C4.11578 31.7409 4.31177 31.8715 4.44243 32.0022C4.57309 32.1329 4.70375 32.3289 4.76908 32.5248C4.83441 32.4595 4.89973 32.3289 4.96507 32.2635C4.96507 32.1982 5.03039 32.1329 5.03039 32.0022C5.03039 31.8062 4.89974 31.6756 4.76908 31.5449L5.03039 31.2836C5.22638 31.4796 5.29171 31.6102 5.35704 31.7409C5.42237 31.8716 5.4877 32.0022 5.4877 32.1329C5.4877 32.3289 5.4877 32.4595 5.35704 32.6555ZM5.87968 23.5093L4.63842 21.2228L3.98512 22.7254L3.59314 22.5294L4.50776 20.3735L4.83441 20.5042L6.07567 22.7907L6.72897 21.2228L7.12095 21.4188L6.20633 23.64L5.87968 23.5093ZM8.68886 46.5708L8.29688 46.8321L7.51293 45.7215L6.59831 46.3748L6.27166 45.9175L8.5582 44.2842L9.73414 45.9828L9.40749 46.2441L8.49287 45.0028L7.77425 45.5255L8.68886 46.5708ZM12.8046 49.6413L11.694 48.596L11.1714 49.1186L12.1513 50.0332L11.89 50.3599L10.9101 49.4453L10.3874 50.0332L11.5634 51.1438L11.2367 51.4705L9.66881 50.0332L11.5634 47.9427L13.066 49.3146L12.8046 49.6413ZM17.0511 53.561C16.9204 53.8224 16.7244 53.953 16.5284 54.0837C16.3325 54.2143 16.0711 54.2797 15.8098 54.2143C15.5485 54.2143 15.2872 54.0837 15.0259 53.953L13.9806 53.3651L15.4178 50.8825L16.4631 51.4705C16.7244 51.6012 16.9204 51.7971 17.0511 51.9931C17.1817 52.1891 17.2471 52.4504 17.2471 52.7118C17.2471 53.1037 17.1817 53.2997 17.0511 53.561ZM22.0815 54.4103L20.6442 53.953L20.4482 54.6716L21.7548 55.0636L21.5588 55.4556L20.2522 55.0636L19.9909 55.7823L21.5588 56.3049L21.4282 56.6969L19.403 56.0436L20.2522 53.3651L22.2121 53.953L22.0815 54.4103ZM27.0465 57.5462L26.4586 57.4808L25.9359 56.6315C25.9359 56.6315 25.8706 56.6315 25.8053 56.6315L25.152 56.5662L25.0866 57.4155L24.564 57.3502L24.8253 54.541L26.0013 54.6716C26.2626 54.6716 26.4586 54.737 26.6546 54.8676C26.8505 54.933 26.9812 55.0636 27.0465 55.2596C27.1119 55.3903 27.1772 55.5863 27.1119 55.7823C27.1119 55.9782 27.0465 56.1742 26.9159 56.3049C26.7852 56.4356 26.6546 56.5662 26.4586 56.6315L27.0465 57.5462ZM32.5996 57.2195L32.2076 56.6315L30.8357 56.8275L30.6397 57.5462L30.117 57.6115L30.9663 54.6063L31.489 54.541L33.1222 57.1542L32.5996 57.2195ZM36.9113 56.0436L36.3887 56.2396L35.6047 54.0184L34.6901 54.345L34.6248 53.8224L36.9113 53.0384L37.042 53.4304L36.1274 53.757L36.9113 56.0436ZM40.6351 54.345L39.1979 51.8625L39.6552 51.6012L41.0271 54.0837L40.6351 54.345ZM28.0918 52.5811C16.3978 52.5811 6.99029 43.1083 6.99029 31.4796C6.99029 19.7855 16.4631 10.378 28.0918 10.378C36.9767 10.378 44.5549 15.8657 47.6908 23.64H41.0924C38.4139 19.2629 33.5795 16.2577 28.0918 16.2577C19.7296 16.2577 12.87 23.052 12.87 31.4796C12.87 39.8418 19.6643 46.7014 28.0918 46.7014C33.5795 46.7014 38.4139 43.7616 41.0924 39.3191H47.6908C44.5549 47.0934 36.9767 52.5811 28.0918 52.5811ZM34.8208 29.781V34.1581H25.6093V41.0831H20.3829V21.8108H22.0815H26.5239H35.8661V26.3838H25.6093V29.781H34.8208ZM45.4695 50.7519C45.4042 51.0132 45.2082 51.2092 45.0122 51.4052C44.8162 51.6012 44.5549 51.7318 44.2936 51.7971C44.0323 51.8625 43.771 51.8625 43.5096 51.7318C43.2483 51.6665 43.0523 51.4705 42.8563 51.2745C42.6604 51.0785 42.595 50.8172 42.5297 50.5559C42.4644 50.2946 42.5297 50.0332 42.595 49.8372C42.6604 49.5759 42.8563 49.3799 43.0523 49.1839C43.2483 48.988 43.5096 48.8573 43.771 48.792C44.0323 48.7266 44.2936 48.7266 44.5549 48.8573C44.8162 48.9226 45.0122 49.1186 45.2082 49.3146C45.4042 49.5106 45.4695 49.7719 45.5349 50.0332C45.6002 50.2292 45.6002 50.4905 45.4695 50.7519ZM49.6507 46.1788L47.1681 46.3094L48.736 47.42L48.4094 47.812L46.1228 46.1134L46.3842 45.8521L48.8667 45.7215L47.2988 44.6109L47.6254 44.2189L49.912 45.9175L49.6507 46.1788ZM50.8266 23.9666C50.5653 23.9013 50.3693 23.836 50.1733 23.64C49.9773 23.444 49.8466 23.248 49.716 22.9867C49.5853 22.7254 49.5853 22.4641 49.5853 22.2027C49.5853 21.9414 49.716 21.6801 49.8466 21.4841C49.9773 21.2881 50.2386 21.1575 50.4999 21.0268C50.7613 20.8961 51.0226 20.8961 51.2839 20.9615C51.5452 21.0268 51.7412 21.0921 51.9372 21.2881C52.1332 21.4841 52.2638 21.6801 52.3945 21.9414C52.5252 22.2027 52.5252 22.4641 52.5252 22.7254C52.5252 22.9867 52.3945 23.248 52.2638 23.444C52.1332 23.64 51.8719 23.7707 51.6105 23.9013C51.3492 23.9666 51.0879 24.032 50.8266 23.9666ZM51.9372 28.1478L51.8719 27.4945L51.0226 27.6251L50.9572 27.1025L53.7664 26.7105L53.8971 27.8864C53.9624 28.1478 53.8971 28.3437 53.8971 28.5397C53.8318 28.7357 53.7664 28.8664 53.6358 28.997C53.5051 29.1277 53.3091 29.193 53.1131 29.193C52.9171 29.193 52.7211 29.193 52.5252 29.1277C52.3292 29.0624 52.1985 28.9317 52.1332 28.7357L51.2839 29.5197L51.2186 28.9317L51.9372 28.2131C51.9372 28.2784 51.9372 28.2131 51.9372 28.1478ZM51.2839 32.9168L53.6358 33.1128L53.7011 32.1982H54.1584L53.9624 34.6154H53.5051L53.5704 33.7008L51.2186 33.4395L51.2839 32.9168Z" fill="white"/>
</g>
<path d="M82.6966 24.3863L84.9933 26.1244L85.9865 24.9036L83.9588 23.3104C84.8071 22.462 85.4072 21.3653 85.7589 20.0204C85.9865 19.1513 86.1107 18.2202 86.1107 17.2684C86.1107 15.2199 85.6141 13.5439 84.6416 12.2196C83.3794 10.5436 81.4344 9.69525 78.8272 9.69525C76.3235 9.69525 74.4199 10.6264 73.137 12.4472C72.1438 13.875 71.6472 15.5924 71.6472 17.5995C71.6472 19.8135 72.2266 21.655 73.3853 23.1241C74.6889 24.6139 76.4891 25.3795 78.7858 25.3795C79.5514 25.3795 80.2549 25.2968 80.8964 25.1105C81.5378 24.9243 82.1379 24.676 82.6966 24.3863ZM80.2136 23.4966C79.8411 23.5587 79.448 23.5794 79.0341 23.5794C77.296 23.5794 75.9925 23.0621 75.082 21.9861C74.1923 20.9308 73.7371 19.5238 73.7371 17.7236C73.7371 15.6131 74.1923 14.0405 75.1441 13.0059C76.0752 11.992 77.3374 11.4954 78.9514 11.4954C80.5239 11.4954 81.7654 12.0127 82.6966 13.0887C83.607 14.144 84.0622 15.551 84.0622 17.2891C84.0622 18.0961 83.9381 18.9237 83.7311 19.7928C83.5035 20.6618 83.0897 21.4481 82.469 22.1516L80.5446 20.6411L79.5307 21.8826L81.1654 23.1655C80.8757 23.3311 80.5653 23.4345 80.2136 23.4966ZM100.498 24.945L95.1182 10.1091H92.8421L87.2554 24.945H89.3038L90.9178 20.4963H96.7942L98.284 24.945H100.498ZM91.4972 18.8617L93.8767 12.3024L96.1321 18.8617H91.4972ZM101.884 11.8679H110.326L101.222 23.269V24.945H112.913V23.1862H103.767L112.913 11.8265V10.1091H101.884V11.8679ZM126.949 24.945L121.569 10.1091H119.293L113.706 24.945H115.754L117.368 20.4963H123.245L124.735 24.945H126.949ZM117.948 18.8617L120.327 12.3024L122.583 18.8617H117.948ZM139.053 24.3863L141.35 26.1244L142.343 24.9036L140.315 23.3104C141.164 22.462 141.764 21.3653 142.115 20.0204C142.343 19.1513 142.467 18.2202 142.467 17.2684C142.467 15.2199 141.971 13.5439 140.998 12.2196C139.736 10.5436 137.791 9.69525 135.184 9.69525C132.68 9.69525 130.776 10.6264 129.494 12.4472C128.5 13.875 128.004 15.5924 128.004 17.5995C128.004 19.8135 128.583 21.655 129.742 23.1241C131.045 24.6139 132.846 25.3795 135.142 25.3795C135.908 25.3795 136.611 25.2968 137.253 25.1105C137.894 24.9243 138.494 24.676 139.053 24.3863ZM136.57 23.4966C136.198 23.5587 135.804 23.5794 135.391 23.5794C133.653 23.5794 132.349 23.0621 131.439 21.9861C130.549 20.9308 130.094 19.5238 130.094 17.7236C130.094 15.6131 130.549 14.0405 131.501 13.0059C132.432 11.992 133.694 11.4954 135.308 11.4954C136.88 11.4954 138.122 12.0127 139.053 13.0887C139.964 14.144 140.419 15.551 140.419 17.2891C140.419 18.0961 140.295 18.9237 140.088 19.7928C139.86 20.6618 139.446 21.4481 138.825 22.1516L136.901 20.6411L135.887 21.8826L137.522 23.1655C137.232 23.3311 136.922 23.4345 136.57 23.4966ZM161.268 11.185C160.234 10.1918 158.765 9.69525 156.882 9.69525C154.689 9.69525 152.95 10.4608 151.709 11.992C150.55 13.3784 149.971 15.1785 149.971 17.3719C149.971 20.248 150.736 22.3792 152.288 23.7656C153.447 24.8002 154.895 25.3381 156.634 25.3381C158.62 25.3381 160.213 24.6967 161.393 23.4138C162.386 22.3585 162.965 21.055 163.131 19.4824H161.165C160.979 20.4756 160.668 21.2619 160.255 21.8619C159.468 23 158.351 23.5587 156.861 23.5587C155.268 23.5587 154.047 23.0207 153.24 21.924C152.433 20.8481 152.019 19.441 152.019 17.7029C152.019 15.5924 152.475 14.0198 153.364 12.9852C154.275 11.9713 155.454 11.454 156.903 11.454C158.103 11.454 159.034 11.723 159.717 12.2817C160.358 12.8404 160.813 13.606 161.041 14.5578H162.986C162.882 13.2956 162.303 12.1782 161.268 11.185ZM171.028 17.227L166.766 10.1091H164.428L170.035 18.9651V24.945H172.042V18.9651L177.65 10.1091H175.291L171.028 17.227ZM185.699 10.1091H179.326V24.945H185.595C187.54 24.945 188.968 24.3656 189.858 23.2069C190.458 22.4206 190.768 21.5723 190.768 20.6204C190.768 19.4617 190.437 18.572 189.775 17.9305C189.402 17.5788 188.823 17.2477 188.057 16.958C188.575 16.689 188.989 16.3993 189.258 16.089C189.796 15.4889 190.044 14.7233 190.044 13.7715C190.044 12.9852 189.837 12.2817 189.402 11.661C188.657 10.6264 187.437 10.1091 185.699 10.1091ZM184.954 16.3787H181.291V11.7851H184.871C185.761 11.7851 186.423 11.8679 186.857 12.0541C187.644 12.4059 188.037 13.0473 188.037 14.0198C188.037 14.9923 187.664 15.6544 186.919 16.0269C186.443 16.2545 185.802 16.3787 184.954 16.3787ZM185.616 23.2276H181.291V18.0133H185.285C186.112 18.0133 186.795 18.0961 187.313 18.3237C188.264 18.7168 188.761 19.441 188.761 20.517C188.761 21.1584 188.595 21.6964 188.264 22.1516C187.726 22.8758 186.857 23.2276 185.616 23.2276ZM204.176 11.9299V10.1091H193.354V24.945H204.342V23.1862H195.32V18.1374H203.514V16.42H195.32V11.9299H204.176ZM214.087 10.1091H207.218V24.945H209.225V18.572H213.798C214.625 18.572 215.225 18.6754 215.618 18.8617C216.281 19.1927 216.632 19.8342 216.694 20.8067L216.818 23.269C216.839 23.8483 216.881 24.2415 216.922 24.4484C216.963 24.6553 217.005 24.8209 217.067 24.945H219.55V24.6139C219.219 24.4898 219.012 24.1794 218.888 23.7035C218.826 23.4345 218.764 23 218.764 22.4413L218.681 20.4549C218.66 19.5859 218.495 18.9651 218.205 18.572C217.894 18.1995 217.46 17.8891 216.881 17.6408C217.543 17.3098 218.06 16.8546 218.432 16.2959C218.784 15.7165 218.97 14.9923 218.97 14.1026C218.97 12.4059 218.288 11.2264 216.881 10.6057C216.156 10.2746 215.225 10.1091 214.087 10.1091ZM213.88 16.8959H209.225V11.8265H214.129C214.832 11.8265 215.37 11.9299 215.784 12.1369C216.55 12.5093 216.943 13.2335 216.943 14.2888C216.943 15.282 216.653 15.9648 216.115 16.3373C215.556 16.7097 214.811 16.8959 213.88 16.8959ZM223.226 20.1652H221.323C221.302 21.7585 221.819 23.0207 222.875 23.9725C223.909 24.9036 225.358 25.3795 227.199 25.3795C228.792 25.3795 230.179 25.0278 231.379 24.3243C232.558 23.6207 233.158 22.4413 233.158 20.786C233.158 19.4617 232.682 18.4685 231.751 17.765C231.193 17.3719 230.427 17.0615 229.413 16.8339L227.344 16.358C225.937 16.0269 225.047 15.7579 224.633 15.551C224.033 15.2199 223.744 14.6819 223.744 13.9577C223.744 13.2956 223.992 12.7162 224.509 12.2196C225.026 11.723 225.896 11.4747 227.075 11.4747C228.523 11.4747 229.579 11.8472 230.199 12.6335C230.53 13.0473 230.737 13.668 230.841 14.4543H232.724C232.724 12.8197 232.186 11.5989 231.11 10.854C230.013 10.1091 228.689 9.73663 227.137 9.73663C225.44 9.73663 224.137 10.1505 223.206 11.0195C222.295 11.8679 221.819 12.9645 221.819 14.2888C221.819 15.5303 222.295 16.4614 223.247 17.0822C223.785 17.4339 224.716 17.765 226.02 18.0547L228.047 18.5099C229.123 18.7582 229.93 19.0479 230.448 19.3789C230.944 19.7307 231.193 20.3101 231.193 21.117C231.193 22.193 230.613 22.9379 229.392 23.3517C228.792 23.5794 228.089 23.6828 227.344 23.6828C225.647 23.6828 224.488 23.1862 223.806 22.2137C223.454 21.6757 223.268 20.9929 223.226 20.1652ZM242.573 10.1091H235.889V24.945H237.917V18.6754H242.573C244.063 18.6754 245.18 18.2409 245.904 17.3719C246.628 16.5235 246.98 15.5096 246.98 14.3509C246.98 13.0059 246.587 11.9713 245.759 11.2057C244.952 10.4815 243.897 10.1091 242.573 10.1091ZM243.732 12.1369C244.539 12.53 244.952 13.2749 244.952 14.3716C244.952 15.3441 244.663 16.0062 244.104 16.3993C243.545 16.7718 242.8 16.9787 241.911 16.9787H237.917V11.8265H241.911C242.697 11.8265 243.297 11.9299 243.732 12.1369ZM261.733 12.2196C260.471 10.5436 258.526 9.69525 255.919 9.69525C253.415 9.69525 251.511 10.6264 250.229 12.4472C249.235 13.875 248.739 15.5924 248.739 17.5995C248.739 19.8135 249.318 21.655 250.498 23.1241C251.801 24.6139 253.581 25.3795 255.877 25.3795C258.319 25.3795 260.202 24.5105 261.526 22.7931C262.644 21.324 263.202 19.4824 263.202 17.2684C263.202 15.2199 262.706 13.5439 261.733 12.2196ZM259.974 21.6757C259.167 22.9379 257.885 23.5794 256.126 23.5794C254.243 23.5794 252.898 23.0207 252.07 21.8826C251.242 20.7653 250.829 19.3789 250.829 17.7236C250.829 15.6751 251.305 14.1233 252.277 13.068C253.25 12.0127 254.491 11.4954 256.043 11.4954C257.616 11.4954 258.857 12.0127 259.788 13.0887C260.699 14.144 261.154 15.551 261.154 17.2891C261.154 18.9444 260.761 20.4135 259.974 21.6757ZM272.727 10.1091H265.857V24.945H267.865V18.572H272.437C273.265 18.572 273.865 18.6754 274.258 18.8617C274.92 19.1927 275.272 19.8342 275.334 20.8067L275.458 23.269C275.479 23.8483 275.52 24.2415 275.562 24.4484C275.603 24.6553 275.645 24.8209 275.707 24.945H278.19V24.6139C277.859 24.4898 277.652 24.1794 277.528 23.7035C277.465 23.4345 277.403 23 277.403 22.4413L277.321 20.4549C277.3 19.5859 277.134 18.9651 276.845 18.572C276.534 18.1995 276.1 17.8891 275.52 17.6408C276.183 17.3098 276.7 16.8546 277.072 16.2959C277.424 15.7165 277.61 14.9923 277.61 14.1026C277.61 12.4059 276.927 11.2264 275.52 10.6057C274.796 10.2746 273.865 10.1091 272.727 10.1091ZM272.52 16.8959H267.865V11.8265H272.768C273.472 11.8265 274.01 11.9299 274.424 12.1369C275.189 12.5093 275.583 13.2335 275.583 14.2888C275.583 15.282 275.293 15.9648 274.755 16.3373C274.196 16.7097 273.451 16.8959 272.52 16.8959ZM285.588 11.8679H290.595V10.1091H278.553V11.8679H283.56V24.945H285.588V11.8679ZM82.9035 40.9299V39.1091H72.599V53.945H74.6268V47.1995H81.9103V45.42H74.6268V40.9299H82.9035ZM96.0702 40.9299V39.1091H85.2484V53.945H96.2357V52.1862H87.2141V47.1374H95.408V45.42H87.2141V40.9299H96.0702ZM104.967 39.1091H98.9668V53.945H104.947C107.492 53.945 109.292 52.8277 110.327 50.5723C110.927 49.2894 111.216 47.8823 111.216 46.2891C111.216 44.2613 110.72 42.5853 109.727 41.2817C108.588 39.8333 107.016 39.1091 104.967 39.1091ZM104.574 52.2276H100.974V40.8265H104.554C106.168 40.8265 107.347 41.3438 108.071 42.3577C108.816 43.3716 109.168 44.7993 109.168 46.6408C109.168 47.1168 109.126 47.634 109.023 48.1927C108.857 49.1445 108.547 49.9101 108.154 50.4895C107.657 51.2551 107.016 51.7517 106.25 52.0207C105.816 52.1655 105.236 52.2276 104.574 52.2276ZM124.804 40.9299V39.1091H113.982V53.945H124.97V52.1862H115.948V47.1374H124.142V45.42H115.948V40.9299H124.804ZM134.715 39.1091H127.846V53.945H129.853V47.572H134.426C135.253 47.572 135.853 47.6754 136.246 47.8617C136.909 48.1927 137.26 48.8342 137.322 49.8067L137.447 52.269C137.467 52.8483 137.509 53.2415 137.55 53.4484C137.591 53.6553 137.633 53.8209 137.695 53.945H140.178V53.6139C139.847 53.4898 139.64 53.1794 139.516 52.7035C139.454 52.4345 139.392 52 139.392 51.4413L139.309 49.4549C139.288 48.5859 139.123 47.9651 138.833 47.572C138.523 47.1995 138.088 46.8891 137.509 46.6408C138.171 46.3098 138.688 45.8546 139.061 45.2959C139.412 44.7165 139.598 43.9923 139.598 43.1026C139.598 41.4059 138.916 40.2264 137.509 39.6057C136.784 39.2746 135.853 39.1091 134.715 39.1091ZM134.508 45.8959H129.853V40.8265H134.757C135.46 40.8265 135.998 40.9299 136.412 41.1369C137.178 41.5093 137.571 42.2335 137.571 43.2888C137.571 44.282 137.281 44.9648 136.743 45.3373C136.184 45.7097 135.439 45.8959 134.508 45.8959ZM154.511 53.945L149.131 39.1091H146.855L141.268 53.945H143.316L144.93 49.4963H150.807L152.297 53.945H154.511ZM145.51 47.8617L147.889 41.3024L150.145 47.8617H145.51ZM158.993 40.8679H164V39.1091H151.958V40.8679H156.965V53.945H158.993V40.8679ZM168.332 53.945V39.1091H166.304V53.945H168.332ZM183.836 41.2196C182.574 39.5436 180.629 38.6952 178.022 38.6952C175.518 38.6952 173.615 39.6264 172.332 41.4472C171.339 42.875 170.842 44.5924 170.842 46.5995C170.842 48.8135 171.421 50.655 172.601 52.1241C173.904 53.6139 175.684 54.3795 177.981 54.3795C180.422 54.3795 182.305 53.5105 183.629 51.7931C184.747 50.324 185.305 48.4824 185.305 46.2684C185.305 44.2199 184.809 42.5439 183.836 41.2196ZM182.078 50.6757C181.271 51.9379 179.988 52.5794 178.229 52.5794C176.346 52.5794 175.001 52.0207 174.173 50.8826C173.346 49.7653 172.932 48.3789 172.932 46.7236C172.932 44.6751 173.408 43.1233 174.38 42.068C175.353 41.0127 176.594 40.4954 178.146 40.4954C179.719 40.4954 180.96 41.0127 181.891 42.0887C182.802 43.144 183.257 44.551 183.257 46.2891C183.257 47.9444 182.864 49.4135 182.078 50.6757ZM197.582 51.1309L190.092 39.1091H187.712V53.945H189.637V41.9231L197.251 53.945H199.507V39.1091H197.582V51.1309Z" fill="white"/>
<path d="M82.6966 24.3863L83.1879 23.737L82.7781 23.4269L82.3218 23.6635L82.6966 24.3863ZM84.9933 26.1244L84.502 26.7737L85.1289 27.2481L85.625 26.6383L84.9933 26.1244ZM85.9865 24.9036L86.6182 25.4175L87.1408 24.775L86.4896 24.2634L85.9865 24.9036ZM83.9588 23.3104L83.383 22.7346L82.734 23.3836L83.4557 23.9506L83.9588 23.3104ZM85.7589 20.0204L84.9712 19.8141L84.9712 19.8144L85.7589 20.0204ZM84.6416 12.2196L85.2979 11.7376L85.292 11.7298L84.6416 12.2196ZM73.137 12.4472L72.4714 11.9783L72.4686 11.9822L73.137 12.4472ZM73.3853 23.1241L72.746 23.6284L72.7589 23.6447L72.7725 23.6603L73.3853 23.1241ZM80.8964 25.1105L81.1234 25.8925L80.8964 25.1105ZM80.2136 23.4966L80.3474 24.2998L80.3551 24.2985L80.2136 23.4966ZM75.082 21.9861L74.4595 22.511L74.4604 22.5121L75.082 21.9861ZM75.1441 13.0059L75.7433 13.5572L75.7438 13.5567L75.1441 13.0059ZM82.6966 13.0887L83.3131 12.5568L83.3123 12.5559L82.6966 13.0887ZM83.7311 19.7928L84.5188 19.9991L84.5211 19.9903L84.5233 19.9814L83.7311 19.7928ZM82.469 22.1516L81.9662 22.7921L82.5709 23.2668L83.0795 22.6904L82.469 22.1516ZM80.5446 20.6411L81.0474 20.0006L80.4192 19.5075L79.914 20.1261L80.5446 20.6411ZM79.5307 21.8826L78.9001 21.3676L78.3749 22.0106L79.028 22.5232L79.5307 21.8826ZM81.1654 23.1655L81.5694 23.8725L82.6201 23.2721L81.6681 22.525L81.1654 23.1655ZM82.2052 25.0356L84.502 26.7737L85.4847 25.4751L83.1879 23.737L82.2052 25.0356ZM85.625 26.6383L86.6182 25.4175L85.3549 24.3898L84.3617 25.6106L85.625 26.6383ZM86.4896 24.2634L84.4618 22.6701L83.4557 23.9506L85.4835 25.5439L86.4896 24.2634ZM84.5345 23.8861C85.5004 22.9203 86.1642 21.6888 86.5467 20.2264L84.9712 19.8144C84.6501 21.0419 84.1138 22.0038 83.383 22.7346L84.5345 23.8861ZM86.5466 20.2267C86.7918 19.2907 86.9249 18.2903 86.9249 17.2684H85.2964C85.2964 18.1501 85.1813 19.0119 84.9712 19.8141L86.5466 20.2267ZM86.9249 17.2684C86.9249 15.0853 86.3938 13.23 85.2979 11.7377L83.9853 12.7016C84.8344 13.8578 85.2964 15.3545 85.2964 17.2684H86.9249ZM85.292 11.7298C83.8396 9.8012 81.6229 8.88099 78.8272 8.88099V10.5095C81.2458 10.5095 82.9192 11.286 83.9911 12.7095L85.292 11.7298ZM78.8272 8.88099C76.0925 8.88099 73.9253 9.91469 72.4714 11.9783L73.8027 12.9162C74.9145 11.3381 76.5546 10.5095 78.8272 10.5095V8.88099ZM72.4686 11.9822C71.3664 13.5666 70.833 15.4525 70.833 17.5995H72.4615C72.4615 15.7322 72.9212 14.1833 73.8054 12.9122L72.4686 11.9822ZM70.833 17.5995C70.833 19.9616 71.4541 21.9905 72.746 23.6284L74.0246 22.6199C72.9991 21.3196 72.4615 19.6654 72.4615 17.5995H70.833ZM72.7725 23.6603C74.2526 25.3518 76.2896 26.1938 78.7858 26.1938V24.5653C76.6885 24.5653 75.1252 23.8761 73.9981 22.5879L72.7725 23.6603ZM78.7858 26.1938C79.6086 26.1938 80.3914 26.105 81.1234 25.8925L80.6694 24.3286C80.1185 24.4885 79.4943 24.5653 78.7858 24.5653V26.1938ZM81.1234 25.8925C81.8205 25.6901 82.47 25.421 83.0714 25.1092L82.3218 23.6635C81.8058 23.931 81.2551 24.1585 80.6694 24.3286L81.1234 25.8925ZM80.0797 22.6934C79.7678 22.7454 79.4234 22.7651 79.0341 22.7651V24.3936C79.4726 24.3936 79.9145 24.3719 80.3474 24.2998L80.0797 22.6934ZM79.0341 22.7651C77.4693 22.7651 76.4211 22.3081 75.7036 21.4601L74.4604 22.5121C75.5638 23.816 77.1228 24.3936 79.0341 24.3936V22.7651ZM75.7045 21.4612C74.9686 20.5884 74.5513 19.384 74.5513 17.7236H72.9228C72.9228 19.6635 73.4159 21.2732 74.4595 22.511L75.7045 21.4612ZM74.5513 17.7236C74.5513 15.7089 74.9889 14.3773 75.7433 13.5572L74.5449 12.4546C73.3957 13.7037 72.9228 15.5172 72.9228 17.7236H74.5513ZM75.7438 13.5567C76.4923 12.7416 77.5197 12.3097 78.9514 12.3097V10.6812C77.1551 10.6812 75.6581 11.2424 74.5444 12.4551L75.7438 13.5567ZM78.9514 12.3097C80.3225 12.3097 81.3258 12.7491 82.0809 13.6215L83.3123 12.5559C82.205 11.2764 80.7254 10.6812 78.9514 10.6812V12.3097ZM82.08 13.6206C82.833 14.4933 83.248 15.695 83.248 17.2891H84.8765C84.8765 15.407 84.381 13.7946 83.3131 12.5568L82.08 13.6206ZM83.248 17.2891C83.248 18.0135 83.1364 18.7752 82.939 19.6042L84.5233 19.9814C84.7397 19.0723 84.8765 18.1786 84.8765 17.2891H83.248ZM82.9435 19.5865C82.7481 20.3323 82.395 21.0048 81.8584 21.6129L83.0795 22.6904C83.7844 21.8914 84.259 20.9913 84.5188 19.9991L82.9435 19.5865ZM82.9717 21.5111L81.0474 20.0006L80.0419 21.2816L81.9662 22.7921L82.9717 21.5111ZM79.914 20.1261L78.9001 21.3676L80.1614 22.3977L81.1753 21.1562L79.914 20.1261ZM79.028 22.5232L80.6627 23.8061L81.6681 22.525L80.0334 21.2421L79.028 22.5232ZM80.7614 22.4586C80.5671 22.5696 80.3489 22.6459 80.0721 22.6947L80.3551 24.2985C80.7817 24.2232 81.1843 24.0926 81.5694 23.8725L80.7614 22.4586ZM100.498 24.945V25.7593H101.659L101.264 24.6674L100.498 24.945ZM95.1182 10.1091L95.8837 9.8315L95.6891 9.29483H95.1182V10.1091ZM92.8421 10.1091V9.29483H92.2787L92.0801 9.82213L92.8421 10.1091ZM87.2554 24.945L86.4933 24.6581L86.0787 25.7593H87.2554V24.945ZM89.3038 24.945V25.7593H89.8746L90.0693 25.2227L89.3038 24.945ZM90.9178 20.4963V19.682H90.347L90.1523 20.2186L90.9178 20.4963ZM96.7942 20.4963L97.5663 20.2377L97.3802 19.682H96.7942V20.4963ZM98.284 24.945L97.5119 25.2036L97.698 25.7593H98.284V24.945ZM91.4972 18.8617L90.7317 18.584L90.3356 19.6759H91.4972V18.8617ZM93.8767 12.3024L94.6467 12.0376L93.8973 9.85806L93.1113 12.0247L93.8767 12.3024ZM96.1321 18.8617V19.6759H97.2731L96.9021 18.5969L96.1321 18.8617ZM101.264 24.6674L95.8837 9.8315L94.3527 10.3867L99.7325 25.2226L101.264 24.6674ZM95.1182 9.29483H92.8421V10.9233H95.1182V9.29483ZM92.0801 9.82213L86.4933 24.6581L88.0174 25.232L93.6041 10.396L92.0801 9.82213ZM87.2554 25.7593H89.3038V24.1308H87.2554V25.7593ZM90.0693 25.2227L91.6832 20.774L90.1523 20.2186L88.5384 24.6673L90.0693 25.2227ZM90.9178 21.3106H96.7942V19.682H90.9178V21.3106ZM96.0221 20.7549L97.5119 25.2036L99.0561 24.6864L97.5663 20.2377L96.0221 20.7549ZM98.284 25.7593H100.498V24.1308H98.284V25.7593ZM92.2626 19.1393L94.6421 12.5801L93.1113 12.0247L90.7317 18.584L92.2626 19.1393ZM93.1067 12.5672L95.3621 19.1264L96.9021 18.5969L94.6467 12.0376L93.1067 12.5672ZM96.1321 18.0474H91.4972V19.6759H96.1321V18.0474ZM101.884 11.8679H101.07V12.6821H101.884V11.8679ZM110.326 11.8679L110.963 12.376L112.019 11.0536H110.326V11.8679ZM101.222 23.269L100.586 22.7609L100.408 22.9838V23.269H101.222ZM101.222 24.945H100.408V25.7593H101.222V24.945ZM112.913 24.945V25.7593H113.727V24.945H112.913ZM112.913 23.1862H113.727V22.372H112.913V23.1862ZM103.767 23.1862L103.133 22.6756L102.066 24.0005H103.767V23.1862ZM112.913 11.8265L113.547 12.3371L113.727 12.1135V11.8265H112.913ZM112.913 10.1091H113.727V9.29483H112.913V10.1091ZM101.884 10.1091V9.29483H101.07V10.1091H101.884ZM101.884 12.6821H110.326V11.0536H101.884V12.6821ZM109.69 11.3598L100.586 22.7609L101.858 23.7771L110.963 12.376L109.69 11.3598ZM100.408 23.269V24.945H102.036V23.269H100.408ZM101.222 25.7593H112.913V24.1308H101.222V25.7593ZM113.727 24.945V23.1862H112.099V24.945H113.727ZM112.913 22.372H103.767V24.0005H112.913V22.372ZM104.401 23.6968L113.547 12.3371L112.279 11.3159L103.133 22.6756L104.401 23.6968ZM113.727 11.8265V10.1091H112.099V11.8265H113.727ZM112.913 9.29483H101.884V10.9233H112.913V9.29483ZM101.07 10.1091V11.8679H102.698V10.1091H101.07ZM126.949 24.945V25.7593H128.11L127.714 24.6674L126.949 24.945ZM121.569 10.1091L122.334 9.8315L122.14 9.29483H121.569V10.1091ZM119.293 10.1091V9.29483H118.729L118.531 9.82213L119.293 10.1091ZM113.706 24.945L112.944 24.6581L112.529 25.7593H113.706V24.945ZM115.754 24.945V25.7593H116.325L116.52 25.2227L115.754 24.945ZM117.368 20.4963V19.682H116.798L116.603 20.2186L117.368 20.4963ZM123.245 20.4963L124.017 20.2377L123.831 19.682H123.245V20.4963ZM124.735 24.945L123.962 25.2036L124.149 25.7593H124.735V24.945ZM117.948 18.8617L117.182 18.584L116.786 19.6759H117.948V18.8617ZM120.327 12.3024L121.097 12.0376L120.348 9.85806L119.562 12.0247L120.327 12.3024ZM122.583 18.8617V19.6759H123.724L123.353 18.5969L122.583 18.8617ZM127.714 24.6674L122.334 9.8315L120.803 10.3867L126.183 25.2226L127.714 24.6674ZM121.569 9.29483H119.293V10.9233H121.569V9.29483ZM118.531 9.82213L112.944 24.6581L114.468 25.232L120.055 10.396L118.531 9.82213ZM113.706 25.7593H115.754V24.1308H113.706V25.7593ZM116.52 25.2227L118.134 20.774L116.603 20.2186L114.989 24.6673L116.52 25.2227ZM117.368 21.3106H123.245V19.682H117.368V21.3106ZM122.473 20.7549L123.962 25.2036L125.507 24.6864L124.017 20.2377L122.473 20.7549ZM124.735 25.7593H126.949V24.1308H124.735V25.7593ZM118.713 19.1393L121.093 12.5801L119.562 12.0247L117.182 18.584L118.713 19.1393ZM119.557 12.5672L121.813 19.1264L123.353 18.5969L121.097 12.0376L119.557 12.5672ZM122.583 18.0474H117.948V19.6759H122.583V18.0474ZM139.053 24.3863L139.544 23.737L139.135 23.4269L138.678 23.6635L139.053 24.3863ZM141.35 26.1244L140.858 26.7737L141.485 27.2481L141.981 26.6383L141.35 26.1244ZM142.343 24.9036L142.975 25.4175L143.497 24.775L142.846 24.2634L142.343 24.9036ZM140.315 23.3104L139.74 22.7346L139.091 23.3836L139.812 23.9506L140.315 23.3104ZM142.115 20.0204L141.328 19.8141L141.328 19.8144L142.115 20.0204ZM140.998 12.2196L141.654 11.7376L141.649 11.7298L140.998 12.2196ZM129.494 12.4472L128.828 11.9783L128.825 11.9822L129.494 12.4472ZM129.742 23.1241L129.102 23.6284L129.115 23.6447L129.129 23.6603L129.742 23.1241ZM137.253 25.1105L137.48 25.8925L137.253 25.1105ZM136.57 23.4966L136.704 24.2998L136.712 24.2985L136.57 23.4966ZM131.439 21.9861L130.816 22.511L130.817 22.5121L131.439 21.9861ZM131.501 13.0059L132.1 13.5572L132.1 13.5567L131.501 13.0059ZM139.053 13.0887L139.67 12.5568L139.669 12.5559L139.053 13.0887ZM140.088 19.7928L140.875 19.9991L140.878 19.9903L140.88 19.9814L140.088 19.7928ZM138.825 22.1516L138.323 22.7921L138.927 23.2668L139.436 22.6904L138.825 22.1516ZM136.901 20.6411L137.404 20.0006L136.776 19.5075L136.27 20.1261L136.901 20.6411ZM135.887 21.8826L135.257 21.3676L134.731 22.0106L135.385 22.5232L135.887 21.8826ZM137.522 23.1655L137.926 23.8725L138.977 23.2721L138.025 22.525L137.522 23.1655ZM138.562 25.0356L140.858 26.7737L141.841 25.4751L139.544 23.737L138.562 25.0356ZM141.981 26.6383L142.975 25.4175L141.711 24.3898L140.718 25.6106L141.981 26.6383ZM142.846 24.2634L140.818 22.6701L139.812 23.9506L141.84 25.5439L142.846 24.2634ZM140.891 23.8861C141.857 22.9203 142.521 21.6888 142.903 20.2264L141.328 19.8144C141.007 21.0419 140.47 22.0038 139.74 22.7346L140.891 23.8861ZM142.903 20.2267C143.148 19.2907 143.281 18.2903 143.281 17.2684H141.653C141.653 18.1501 141.538 19.0119 141.328 19.8141L142.903 20.2267ZM143.281 17.2684C143.281 15.0853 142.75 13.23 141.654 11.7377L140.342 12.7016C141.191 13.8578 141.653 15.3545 141.653 17.2684H143.281ZM141.649 11.7298C140.196 9.8012 137.979 8.88099 135.184 8.88099V10.5095C137.602 10.5095 139.276 11.286 140.348 12.7095L141.649 11.7298ZM135.184 8.88099C132.449 8.88099 130.282 9.91469 128.828 11.9783L130.159 12.9162C131.271 11.3381 132.911 10.5095 135.184 10.5095V8.88099ZM128.825 11.9822C127.723 13.5666 127.189 15.4525 127.189 17.5995H128.818C128.818 15.7322 129.278 14.1833 130.162 12.9122L128.825 11.9822ZM127.189 17.5995C127.189 19.9616 127.811 21.9905 129.102 23.6284L130.381 22.6199C129.356 21.3196 128.818 19.6654 128.818 17.5995H127.189ZM129.129 23.6603C130.609 25.3518 132.646 26.1938 135.142 26.1938V24.5653C133.045 24.5653 131.482 23.8761 130.355 22.5879L129.129 23.6603ZM135.142 26.1938C135.965 26.1938 136.748 26.105 137.48 25.8925L137.026 24.3286C136.475 24.4885 135.851 24.5653 135.142 24.5653V26.1938ZM137.48 25.8925C138.177 25.6901 138.826 25.421 139.428 25.1092L138.678 23.6635C138.162 23.931 137.612 24.1585 137.026 24.3286L137.48 25.8925ZM136.436 22.6934C136.124 22.7454 135.78 22.7651 135.391 22.7651V24.3936C135.829 24.3936 136.271 24.3719 136.704 24.2998L136.436 22.6934ZM135.391 22.7651C133.826 22.7651 132.778 22.3081 132.06 21.4601L130.817 22.5121C131.92 23.816 133.479 24.3936 135.391 24.3936V22.7651ZM132.061 21.4612C131.325 20.5884 130.908 19.384 130.908 17.7236H129.279C129.279 19.6635 129.772 21.2732 130.816 22.511L132.061 21.4612ZM130.908 17.7236C130.908 15.7089 131.345 14.3773 132.1 13.5572L130.901 12.4546C129.752 13.7037 129.279 15.5172 129.279 17.7236H130.908ZM132.1 13.5567C132.849 12.7416 133.876 12.3097 135.308 12.3097V10.6812C133.512 10.6812 132.015 11.2424 130.901 12.4551L132.1 13.5567ZM135.308 12.3097C136.679 12.3097 137.682 12.7491 138.437 13.6215L139.669 12.5559C138.562 11.2764 137.082 10.6812 135.308 10.6812V12.3097ZM138.437 13.6206C139.189 14.4933 139.604 15.695 139.604 17.2891H141.233C141.233 15.407 140.738 13.7946 139.67 12.5568L138.437 13.6206ZM139.604 17.2891C139.604 18.0135 139.493 18.7752 139.296 19.6042L140.88 19.9814C141.096 19.0723 141.233 18.1786 141.233 17.2891H139.604ZM139.3 19.5865C139.105 20.3323 138.751 21.0048 138.215 21.6129L139.436 22.6904C140.141 21.8914 140.615 20.9913 140.875 19.9991L139.3 19.5865ZM139.328 21.5111L137.404 20.0006L136.398 21.2816L138.323 22.7921L139.328 21.5111ZM136.27 20.1261L135.257 21.3676L136.518 22.3977L137.532 21.1562L136.27 20.1261ZM135.385 22.5232L137.019 23.8061L138.025 22.525L136.39 21.2421L135.385 22.5232ZM137.118 22.4586C136.924 22.5696 136.705 22.6459 136.429 22.6947L136.712 24.2985C137.138 24.2232 137.541 24.0926 137.926 23.8725L137.118 22.4586ZM161.268 11.185L160.705 11.7724V11.7724L161.268 11.185ZM151.709 11.992L152.334 12.5143L152.341 12.5048L151.709 11.992ZM152.288 23.7656L151.746 24.3728L151.746 24.373L152.288 23.7656ZM161.393 23.4138L160.8 22.8557L160.793 22.8627L161.393 23.4138ZM163.131 19.4824L163.941 19.5676L164.035 18.6682H163.131V19.4824ZM161.165 19.4824V18.6682H160.489L160.365 19.3323L161.165 19.4824ZM160.255 21.8619L160.925 22.3248L160.925 22.3242L160.255 21.8619ZM153.24 21.924L153.896 21.4414L153.892 21.4355L153.24 21.924ZM153.364 12.9852L152.758 12.4412L152.753 12.4477L152.747 12.4543L153.364 12.9852ZM159.717 12.2817L160.251 11.6677L160.242 11.6595L160.232 11.6515L159.717 12.2817ZM161.041 14.5578L160.249 14.7472L160.398 15.372H161.041V14.5578ZM162.986 14.5578V15.372H163.87L163.797 14.4913L162.986 14.5578ZM161.832 10.5977C160.603 9.41706 158.906 8.88099 156.882 8.88099V10.5095C158.624 10.5095 159.865 10.9666 160.705 11.7724L161.832 10.5977ZM156.882 8.88099C154.477 8.88099 152.493 9.73227 151.076 11.4792L152.341 12.5048C153.408 11.1894 154.9 10.5095 156.882 10.5095V8.88099ZM151.084 11.4698C149.778 13.0329 149.157 15.0311 149.157 17.3719H150.785C150.785 15.3259 151.323 13.7239 152.334 12.5142L151.084 11.4698ZM149.157 17.3719C149.157 20.3849 149.961 22.7784 151.746 24.3728L152.831 23.1583C151.512 21.9801 150.785 20.1111 150.785 17.3719H149.157ZM151.746 24.373C153.067 25.5522 154.713 26.1524 156.634 26.1524V24.5239C155.078 24.5239 153.827 24.0481 152.831 23.1582L151.746 24.373ZM156.634 26.1524C158.811 26.1524 160.635 25.4407 161.992 23.9649L160.793 22.8627C159.791 23.9528 158.429 24.5239 156.634 24.5239V26.1524ZM161.986 23.9719C163.111 22.7761 163.758 21.3019 163.941 19.5676L162.321 19.3972C162.172 20.808 161.661 21.941 160.8 22.8558L161.986 23.9719ZM163.131 18.6682H161.165V20.2967H163.131V18.6682ZM160.365 19.3323C160.194 20.2442 159.918 20.9161 159.584 21.3997L160.925 22.3242C161.419 21.6076 161.764 20.707 161.965 19.6325L160.365 19.3323ZM159.585 21.3991C158.964 22.2978 158.108 22.7444 156.861 22.7444V24.3729C158.594 24.3729 159.973 23.7021 160.925 22.3248L159.585 21.3991ZM156.861 22.7444C155.468 22.7444 154.518 22.2862 153.896 21.4414L152.584 22.4066C153.577 23.7552 155.068 24.3729 156.861 24.3729V22.7444ZM153.892 21.4355C153.216 20.5341 152.834 19.3122 152.834 17.7029H151.205C151.205 19.5699 151.651 21.162 152.589 22.4126L153.892 21.4355ZM152.834 17.7029C152.834 15.6897 153.271 14.3429 153.982 13.5161L152.747 12.4543C151.678 13.6967 151.205 15.495 151.205 17.7029H152.834ZM153.97 13.5292C154.718 12.696 155.673 12.2683 156.903 12.2683V10.6398C155.235 10.6398 153.831 11.2467 152.758 12.4412L153.97 13.5292ZM156.903 12.2683C157.987 12.2683 158.711 12.5111 159.201 12.9119L160.232 11.6515C159.356 10.9349 158.218 10.6398 156.903 10.6398V12.2683ZM159.182 12.8957C159.683 13.332 160.057 13.943 160.249 14.7472L161.833 14.3684C161.57 13.2689 161.033 12.3488 160.251 11.6677L159.182 12.8957ZM161.041 15.372H162.986V13.7435H161.041V15.372ZM163.797 14.4913C163.675 12.9988 162.985 11.7042 161.832 10.5977L160.705 11.7724C161.621 12.6523 162.09 13.5924 162.174 14.6243L163.797 14.4913ZM171.028 17.227L170.33 17.6453L171.028 18.8119L171.727 17.6453L171.028 17.227ZM166.766 10.1091L167.464 9.69075L167.227 9.29483H166.766V10.1091ZM164.428 10.1091V9.29483H162.948L163.74 10.5447L164.428 10.1091ZM170.035 18.9651H170.849V18.729L170.723 18.5295L170.035 18.9651ZM170.035 24.945H169.221V25.7593H170.035V24.945ZM172.042 24.945V25.7593H172.856V24.945H172.042ZM172.042 18.9651L171.354 18.5295L171.228 18.729V18.9651H172.042ZM177.65 10.1091L178.338 10.5447L179.129 9.29483H177.65V10.1091ZM175.291 10.1091V9.29483H174.829L174.592 9.69075L175.291 10.1091ZM171.727 16.8087L167.464 9.69075L166.067 10.5274L170.33 17.6453L171.727 16.8087ZM166.766 9.29483H164.428V10.9233H166.766V9.29483ZM163.74 10.5447L169.347 19.4007L170.723 18.5295L165.116 9.67349L163.74 10.5447ZM169.221 18.9651V24.945H170.849V18.9651H169.221ZM170.035 25.7593H172.042V24.1308H170.035V25.7593ZM172.856 24.945V18.9651H171.228V24.945H172.856ZM172.73 19.4007L178.338 10.5447L176.962 9.67349L171.354 18.5295L172.73 19.4007ZM177.65 9.29483H175.291V10.9233H177.65V9.29483ZM174.592 9.69075L170.33 16.8087L171.727 17.6453L175.989 10.5274L174.592 9.69075ZM179.326 10.1091V9.29483H178.511V10.1091H179.326ZM179.326 24.945H178.511V25.7593H179.326V24.945ZM189.858 23.2069L190.503 23.7028L190.505 23.7009L189.858 23.2069ZM189.775 17.9305L190.341 17.3457L190.334 17.3386L189.775 17.9305ZM188.057 16.958L187.682 16.2356L186.067 17.0754L187.769 17.7196L188.057 16.958ZM189.258 16.089L188.651 15.5453L188.642 15.5557L189.258 16.089ZM189.402 11.661L190.069 11.194L190.063 11.1852L189.402 11.661ZM181.291 16.3787H180.477V17.1929H181.291V16.3787ZM181.291 11.7851V10.9709H180.477V11.7851H181.291ZM186.857 12.0541L187.19 11.3107L187.178 11.3057L186.857 12.0541ZM186.919 16.0269L187.271 16.7615L187.277 16.7584L187.284 16.7552L186.919 16.0269ZM181.291 23.2276H180.477V24.0419H181.291V23.2276ZM181.291 18.0133V17.199H180.477V18.0133H181.291ZM187.313 18.3237L186.985 19.069L186.993 19.0727L187.002 19.0763L187.313 18.3237ZM188.264 22.1516L188.918 22.6372L188.923 22.6306L188.264 22.1516ZM185.699 9.29483H179.326V10.9233H185.699V9.29483ZM178.511 10.1091V24.945H180.14V10.1091H178.511ZM179.326 25.7593H185.595V24.1308H179.326V25.7593ZM185.595 25.7593C187.701 25.7593 189.411 25.1256 190.503 23.7028L189.212 22.711C188.525 23.6057 187.379 24.1308 185.595 24.1308V25.7593ZM190.505 23.7009C191.202 22.7872 191.582 21.7682 191.582 20.6204H189.954C189.954 21.3763 189.713 22.054 189.21 22.7129L190.505 23.7009ZM191.582 20.6204C191.582 19.2988 191.199 18.1764 190.341 17.3457L189.208 18.5154C189.675 18.9675 189.954 19.6246 189.954 20.6204H191.582ZM190.334 17.3386C189.852 16.8837 189.162 16.5055 188.346 16.1965L187.769 17.7196C188.484 17.9899 188.952 18.2738 189.216 18.5225L190.334 17.3386ZM188.433 17.6804C188.992 17.39 189.508 17.0436 189.873 16.6223L188.642 15.5557C188.469 15.755 188.158 15.9881 187.682 16.2356L188.433 17.6804ZM189.864 16.6325C190.566 15.849 190.858 14.8729 190.858 13.7715H189.23C189.23 14.5738 189.025 15.1288 188.651 15.5454L189.864 16.6325ZM190.858 13.7715C190.858 12.8327 190.608 11.9631 190.069 11.194L188.735 12.1279C189.066 12.6003 189.23 13.1377 189.23 13.7715H190.858ZM190.063 11.1852C189.115 9.86881 187.6 9.29483 185.699 9.29483V10.9233C187.274 10.9233 188.2 11.3839 188.742 12.1367L190.063 11.1852ZM184.954 15.5644H181.291V17.1929H184.954V15.5644ZM182.105 16.3787V11.7851H180.477V16.3787H182.105ZM181.291 12.5994H184.871V10.9709H181.291V12.5994ZM184.871 12.5994C185.742 12.5994 186.263 12.6852 186.537 12.8025L187.178 11.3057C186.583 11.0506 185.78 10.9709 184.871 10.9709V12.5994ZM186.525 12.7974C186.79 12.9159 186.946 13.0617 187.045 13.2247C187.146 13.3936 187.222 13.6422 187.222 14.0198H188.851C188.851 13.4249 188.73 12.8665 188.439 12.3836C188.144 11.8949 187.711 11.544 187.19 11.3108L186.525 12.7974ZM187.222 14.0198C187.222 14.4038 187.149 14.6676 187.046 14.8515C186.948 15.0283 186.796 15.178 186.555 15.2986L187.284 16.7552C187.787 16.5034 188.195 16.1357 188.468 15.6452C188.738 15.1618 188.851 14.6083 188.851 14.0198H187.222ZM186.568 15.2923C186.241 15.449 185.732 15.5644 184.954 15.5644V17.1929C185.872 17.1929 186.646 17.06 187.271 16.7615L186.568 15.2923ZM185.616 22.4133H181.291V24.0419H185.616V22.4133ZM182.105 23.2276V18.0133H180.477V23.2276H182.105ZM181.291 18.8276H185.285V17.199H181.291V18.8276ZM185.285 18.8276C186.08 18.8276 186.625 18.9108 186.985 19.069L187.64 17.5784C186.965 17.2813 186.145 17.199 185.285 17.199V18.8276ZM187.002 19.0763C187.358 19.2235 187.579 19.4104 187.716 19.6159C187.853 19.8218 187.947 20.1067 187.947 20.517H189.575C189.575 19.8513 189.42 19.2361 189.071 18.7126C188.722 18.1888 188.219 17.817 187.623 17.5711L187.002 19.0763ZM187.947 20.517C187.947 21.0082 187.824 21.3733 187.606 21.6727L188.923 22.6306C189.367 22.0195 189.575 21.3087 189.575 20.517H187.947ZM187.611 21.6661C187.28 22.1114 186.705 22.4133 185.616 22.4133V24.0419C187.01 24.0419 188.173 23.6403 188.918 22.6372L187.611 21.6661ZM204.176 11.9299V12.7442H204.99V11.9299H204.176ZM204.176 10.1091H204.99V9.29483H204.176V10.1091ZM193.354 10.1091V9.29483H192.54V10.1091H193.354ZM193.354 24.945H192.54V25.7593H193.354V24.945ZM204.342 24.945V25.7593H205.156V24.945H204.342ZM204.342 23.1862H205.156V22.372H204.342V23.1862ZM195.32 23.1862H194.506V24.0005H195.32V23.1862ZM195.32 18.1374V17.3232H194.506V18.1374H195.32ZM203.514 18.1374V18.9517H204.328V18.1374H203.514ZM203.514 16.42H204.328V15.6058H203.514V16.42ZM195.32 16.42H194.506V17.2343H195.32V16.42ZM195.32 11.9299V11.1157H194.506V11.9299H195.32ZM204.99 11.9299V10.1091H203.362V11.9299H204.99ZM204.176 9.29483H193.354V10.9233H204.176V9.29483ZM192.54 10.1091V24.945H194.169V10.1091H192.54ZM193.354 25.7593H204.342V24.1308H193.354V25.7593ZM205.156 24.945V23.1862H203.527V24.945H205.156ZM204.342 22.372H195.32V24.0005H204.342V22.372ZM196.134 23.1862V18.1374H194.506V23.1862H196.134ZM195.32 18.9517H203.514V17.3232H195.32V18.9517ZM204.328 18.1374V16.42H202.7V18.1374H204.328ZM203.514 15.6058H195.32V17.2343H203.514V15.6058ZM196.134 16.42V11.9299H194.506V16.42H196.134ZM195.32 12.7442H204.176V11.1157H195.32V12.7442ZM207.218 10.1091V9.29483H206.403V10.1091H207.218ZM207.218 24.945H206.403V25.7593H207.218V24.945ZM209.225 24.945V25.7593H210.039V24.945H209.225ZM209.225 18.572V17.7577H208.41V18.572H209.225ZM215.618 18.8617L215.983 18.1334L215.975 18.1295L215.967 18.1258L215.618 18.8617ZM216.694 20.8067L217.508 20.7657L217.507 20.7548L216.694 20.8067ZM216.818 23.269L217.632 23.2399L217.632 23.228L216.818 23.269ZM216.922 24.4484L217.72 24.2887V24.2887L216.922 24.4484ZM217.067 24.945L216.339 25.3091L216.564 25.7593H217.067V24.945ZM219.55 24.945V25.7593H220.364V24.945H219.55ZM219.55 24.6139H220.364V24.0497L219.836 23.8515L219.55 24.6139ZM218.888 23.7035L218.094 23.8866L218.097 23.8979L218.1 23.909L218.888 23.7035ZM218.764 22.4413H219.578V22.4244L219.577 22.4074L218.764 22.4413ZM218.681 20.4549L217.867 20.4743L217.867 20.4816L217.867 20.4888L218.681 20.4549ZM218.205 18.572L218.86 18.089L218.846 18.0694L218.83 18.0507L218.205 18.572ZM216.881 17.6408L216.516 16.9126L214.946 17.6977L216.56 18.3893L216.881 17.6408ZM218.432 16.2959L219.11 16.7476L219.12 16.7332L219.128 16.7185L218.432 16.2959ZM216.881 10.6057L216.542 11.3463L216.552 11.3507L216.881 10.6057ZM209.225 16.8959H208.41V17.7102H209.225V16.8959ZM209.225 11.8265V11.0122H208.41V11.8265H209.225ZM215.784 12.1369L215.42 12.8652L215.428 12.8691L215.784 12.1369ZM216.115 16.3373L216.567 17.0148L216.573 17.0108L216.578 17.0067L216.115 16.3373ZM214.087 9.29483H207.218V10.9233H214.087V9.29483ZM206.403 10.1091V24.945H208.032V10.1091H206.403ZM207.218 25.7593H209.225V24.1308H207.218V25.7593ZM210.039 24.945V18.572H208.41V24.945H210.039ZM209.225 19.3862H213.798V17.7577H209.225V19.3862ZM213.798 19.3862C214.581 19.3862 215.038 19.4877 215.27 19.5975L215.967 18.1258C215.412 17.8631 214.67 17.7577 213.798 17.7577V19.3862ZM215.254 19.5899C215.573 19.7493 215.831 20.0669 215.882 20.8585L217.507 20.7548C217.433 19.6014 216.988 18.6362 215.983 18.1334L215.254 19.5899ZM215.881 20.8477L216.005 23.31L217.632 23.228L217.508 20.7657L215.881 20.8477ZM216.005 23.298C216.026 23.8903 216.069 24.3358 216.124 24.6081L217.72 24.2887C217.692 24.1472 217.652 23.8064 217.632 23.2399L216.005 23.298ZM216.124 24.6081C216.164 24.8128 216.222 25.0767 216.339 25.3091L217.795 24.5809C217.796 24.5819 217.793 24.577 217.788 24.5642C217.784 24.5514 217.778 24.533 217.77 24.5073C217.755 24.4541 217.74 24.3845 217.72 24.2887L216.124 24.6081ZM217.067 25.7593H219.55V24.1308H217.067V25.7593ZM220.364 24.945V24.6139H218.736V24.945H220.364ZM219.836 23.8515C219.833 23.8505 219.832 23.8501 219.831 23.8489C219.829 23.8473 219.819 23.8394 219.804 23.8184C219.772 23.7724 219.722 23.6769 219.676 23.498L218.1 23.909C218.251 24.4903 218.568 25.1154 219.264 25.3764L219.836 23.8515ZM219.681 23.5204C219.634 23.3157 219.578 22.9429 219.578 22.4413H217.949C217.949 23.0571 218.017 23.5533 218.094 23.8866L219.681 23.5204ZM219.577 22.4074L219.494 20.421L217.867 20.4888L217.95 22.4752L219.577 22.4074ZM219.495 20.4355C219.472 19.4998 219.296 18.6797 218.86 18.089L217.549 19.055C217.693 19.2505 217.848 19.6719 217.867 20.4743L219.495 20.4355ZM218.83 18.0507C218.42 17.5586 217.871 17.1794 217.201 16.8924L216.56 18.3893C217.049 18.5989 217.369 18.8404 217.579 19.0932L218.83 18.0507ZM217.245 18.3691C218.026 17.9784 218.654 17.4308 219.11 16.7476L217.755 15.8442C217.466 16.2783 217.059 16.6412 216.516 16.9126L217.245 18.3691ZM219.128 16.7185C219.574 15.9848 219.785 15.1063 219.785 14.1026H218.156C218.156 14.8783 217.994 15.4483 217.736 15.8733L219.128 16.7185ZM219.785 14.1026C219.785 13.1467 219.592 12.2751 219.154 11.5354C218.711 10.7885 218.05 10.2315 217.209 9.8607L216.552 11.3507C217.119 11.6006 217.502 11.9437 217.753 12.3659C218.007 12.7952 218.156 13.3617 218.156 14.1026H219.785ZM217.219 9.86514C216.353 9.46931 215.296 9.29483 214.087 9.29483V10.9233C215.155 10.9233 215.96 11.0799 216.542 11.3462L217.219 9.86514ZM213.88 16.0817H209.225V17.7102H213.88V16.0817ZM210.039 16.8959V11.8265H208.41V16.8959H210.039ZM209.225 12.6407H214.129V11.0122H209.225V12.6407ZM214.129 12.6407C214.761 12.6407 215.16 12.7352 215.42 12.8652L216.148 11.4086C215.58 11.1247 214.903 11.0122 214.129 11.0122V12.6407ZM215.428 12.8691C215.843 13.0711 216.128 13.4587 216.128 14.2888H217.757C217.757 13.0083 217.256 11.9475 216.14 11.4047L215.428 12.8691ZM216.128 14.2888C216.128 15.1406 215.883 15.5072 215.652 15.6678L216.578 17.0067C217.422 16.4224 217.757 15.4234 217.757 14.2888H216.128ZM215.663 15.6598C215.281 15.9147 214.711 16.0817 213.88 16.0817V17.7102C214.912 17.7102 215.832 17.5047 216.567 17.0148L215.663 15.6598ZM223.226 20.1652L224.04 20.1246L224.001 19.351H223.226V20.1652ZM221.323 20.1652V19.351H220.519L220.508 20.1547L221.323 20.1652ZM222.875 23.9725L222.329 24.5771L222.33 24.5777L222.875 23.9725ZM231.379 24.3243L231.791 25.0267L231.796 25.0236L231.379 24.3243ZM231.751 17.765L232.242 17.1153L232.231 17.107L232.22 17.0991L231.751 17.765ZM229.413 16.8339L229.231 17.6274L229.235 17.6284L229.413 16.8339ZM227.344 16.358L227.157 17.1506L227.161 17.1515L227.344 16.358ZM224.633 15.551L224.24 16.2639L224.254 16.2719L224.269 16.2793L224.633 15.551ZM224.509 12.2196L225.073 12.807L224.509 12.2196ZM230.199 12.6335L229.56 13.138L229.564 13.1421L230.199 12.6335ZM230.841 14.4543L230.034 14.5606L230.127 15.2686H230.841V14.4543ZM232.724 14.4543V15.2686H233.538V14.4543H232.724ZM231.11 10.854L231.573 10.1845L231.567 10.1804L231.11 10.854ZM223.206 11.0195L223.761 11.6152L223.761 11.6148L223.206 11.0195ZM223.247 17.0822L223.693 16.4007L223.692 16.4001L223.247 17.0822ZM226.02 18.0547L226.198 17.2602L226.196 17.2598L226.02 18.0547ZM228.047 18.5099L228.231 17.7165L228.226 17.7154L228.047 18.5099ZM230.448 19.3789L230.918 18.7145L230.903 18.7034L230.887 18.6931L230.448 19.3789ZM229.392 23.3517L229.131 22.5806L229.117 22.5853L229.104 22.5904L229.392 23.3517ZM223.806 22.2137L223.124 22.6593L223.132 22.6706L223.139 22.6816L223.806 22.2137ZM223.226 19.351H221.323V20.9795H223.226V19.351ZM220.508 20.1547C220.485 21.9522 221.079 23.4495 222.329 24.5771L223.42 23.3679C222.56 22.5919 222.119 21.5648 222.137 20.1758L220.508 20.1547ZM222.33 24.5777C223.555 25.6805 225.22 26.1938 227.199 26.1938V24.5653C225.495 24.5653 224.263 24.1267 223.419 23.3673L222.33 24.5777ZM227.199 26.1938C228.917 26.1938 230.449 25.8131 231.791 25.0267L230.967 23.6218C229.908 24.2425 228.668 24.5653 227.199 24.5653V26.1938ZM231.796 25.0236C233.272 24.143 233.973 22.6638 233.973 20.786H232.344C232.344 22.2188 231.844 23.0985 230.962 23.625L231.796 25.0236ZM233.973 20.786C233.973 19.2353 233.399 17.9894 232.242 17.1153L231.26 18.4147C231.966 18.9477 232.344 19.6881 232.344 20.786H233.973ZM232.22 17.0991C231.544 16.6233 230.667 16.2807 229.591 16.0394L229.235 17.6284C230.187 17.8422 230.841 18.1204 231.283 18.4309L232.22 17.0991ZM229.596 16.0403L227.526 15.5644L227.161 17.1515L229.231 17.6274L229.596 16.0403ZM227.53 15.5654C226.11 15.231 225.313 14.9803 224.997 14.8227L224.269 16.2793C224.782 16.5355 225.764 16.8228 227.157 17.1506L227.53 15.5654ZM225.027 14.838C224.716 14.6668 224.558 14.4213 224.558 13.9577H222.929C222.929 14.9425 223.35 15.773 224.24 16.2639L225.027 14.838ZM224.558 13.9577C224.558 13.5284 224.708 13.1579 225.073 12.807L223.945 11.6322C223.276 12.2745 222.929 13.0628 222.929 13.9577H224.558ZM225.073 12.807C225.364 12.5275 225.973 12.289 227.075 12.289V10.6605C225.818 10.6605 224.689 10.9186 223.945 11.6322L225.073 12.807ZM227.075 12.289C228.407 12.289 229.161 12.6322 229.56 13.138L230.838 12.1289C229.996 11.0622 228.64 10.6605 227.075 10.6605V12.289ZM229.564 13.1421C229.76 13.3872 229.938 13.8358 230.034 14.5606L231.648 14.3481C231.537 13.5003 231.301 12.7074 230.835 12.1248L229.564 13.1421ZM230.841 15.2686H232.724V13.6401H230.841V15.2686ZM233.538 14.4543C233.538 12.634 232.928 11.1227 231.573 10.1845L230.646 11.5235C231.443 12.0751 231.91 13.0053 231.91 14.4543H233.538ZM231.567 10.1804C230.314 9.32903 228.824 8.92238 227.137 8.92238V10.5509C228.554 10.5509 229.712 10.8891 230.652 11.5275L231.567 10.1804ZM227.137 8.92238C225.312 8.92238 223.781 9.36899 222.65 10.4242L223.761 11.6148C224.493 10.9319 225.568 10.5509 227.137 10.5509V8.92238ZM222.65 10.4238C221.569 11.4319 221.005 12.7472 221.005 14.2888H222.634C222.634 13.1819 223.022 12.3038 223.761 11.6152L222.65 10.4238ZM221.005 14.2888C221.005 15.7752 221.596 16.9773 222.802 17.7642L223.692 16.4001C222.995 15.9455 222.634 15.2854 222.634 14.2888H221.005ZM222.801 17.7637C223.468 18.1995 224.52 18.5555 225.843 18.8495L226.196 17.2598C224.913 16.9745 224.102 16.6683 223.693 16.4007L222.801 17.7637ZM225.841 18.8492L227.869 19.3044L228.226 17.7154L226.198 17.2602L225.841 18.8492ZM227.864 19.3033C228.913 19.5453 229.611 19.8099 230.009 20.0648L230.887 18.6931C230.25 18.2859 229.334 17.9711 228.231 17.7165L227.864 19.3033ZM229.977 20.0434C230.191 20.195 230.378 20.4796 230.378 21.117H232.007C232.007 20.1405 231.698 19.2664 230.918 18.7145L229.977 20.0434ZM230.378 21.117C230.378 21.5002 230.279 21.7681 230.114 21.9746C229.941 22.1909 229.642 22.4074 229.131 22.5806L229.654 24.1229C230.364 23.8823 230.964 23.5194 231.387 22.9908C231.817 22.4524 232.007 21.8099 232.007 21.117H230.378ZM229.104 22.5904C228.62 22.774 228.019 22.8686 227.344 22.8686V24.4971C228.158 24.4971 228.965 24.3847 229.681 24.1131L229.104 22.5904ZM227.344 22.8686C225.803 22.8686 224.949 22.4248 224.472 21.7458L223.139 22.6816C224.028 23.9476 225.491 24.4971 227.344 24.4971V22.8686ZM224.487 21.7681C224.238 21.3869 224.076 20.8578 224.04 20.1246L222.413 20.2059C222.459 21.128 222.67 21.9646 223.124 22.6593L224.487 21.7681ZM235.889 10.1091V9.29483H235.075V10.1091H235.889ZM235.889 24.945H235.075V25.7593H235.889V24.945ZM237.917 24.945V25.7593H238.731V24.945H237.917ZM237.917 18.6754V17.8612H237.103V18.6754H237.917ZM245.904 17.3719L245.285 16.8432L245.279 16.8506L245.904 17.3719ZM245.759 11.2057L246.312 10.6079L246.303 10.5997L245.759 11.2057ZM243.732 12.1369L244.088 11.4048L244.082 11.4017L243.732 12.1369ZM244.104 16.3993L244.556 17.0768L244.564 17.0712L244.573 17.0653L244.104 16.3993ZM237.917 16.9787H237.103V17.793H237.917V16.9787ZM237.917 11.8265V11.0122H237.103V11.8265H237.917ZM242.573 9.29483H235.889V10.9233H242.573V9.29483ZM235.075 10.1091V24.945H236.704V10.1091H235.075ZM235.889 25.7593H237.917V24.1308H235.889V25.7593ZM238.731 24.945V18.6754H237.103V24.945H238.731ZM237.917 19.4897H242.573V17.8612H237.917V19.4897ZM242.573 19.4897C244.22 19.4897 245.604 19.0039 246.53 17.8931L245.279 16.8506C244.756 17.4779 243.905 17.8612 242.573 17.8612V19.4897ZM246.523 17.9005C247.383 16.8933 247.794 15.6879 247.794 14.3509H246.166C246.166 15.3314 245.874 16.1537 245.285 16.8432L246.523 17.9005ZM247.794 14.3509C247.794 12.8333 247.343 11.5611 246.312 10.608L245.206 11.8035C245.831 12.3816 246.166 13.1786 246.166 14.3509H247.794ZM246.303 10.5997C245.32 9.71743 244.059 9.29483 242.573 9.29483V10.9233C243.735 10.9233 244.585 11.2456 245.216 11.8117L246.303 10.5997ZM243.375 12.8689C243.637 12.9966 243.813 13.1669 243.931 13.382C244.053 13.6057 244.138 13.9231 244.138 14.3716H245.767C245.767 13.7234 245.644 13.12 245.358 12.5988C245.068 12.069 244.633 11.6702 244.088 11.4049L243.375 12.8689ZM244.138 14.3716C244.138 15.1823 243.905 15.5439 243.635 15.7334L244.573 17.0653C245.421 16.4686 245.767 15.5058 245.767 14.3716H244.138ZM243.652 15.7218C243.256 15.9858 242.679 16.1645 241.911 16.1645V17.793C242.922 17.793 243.834 17.5578 244.556 17.0768L243.652 15.7218ZM241.911 16.1645H237.917V17.793H241.911V16.1645ZM238.731 16.9787V11.8265H237.103V16.9787H238.731ZM237.917 12.6407H241.911V11.0122H237.917V12.6407ZM241.911 12.6407C242.642 12.6407 243.103 12.7395 243.382 12.872L244.082 11.4017C243.491 11.1204 242.752 11.0122 241.911 11.0122V12.6407ZM261.733 12.2196L262.39 11.7376L262.384 11.7298L261.733 12.2196ZM250.229 12.4472L249.563 11.9783L249.56 11.9822L250.229 12.4472ZM250.498 23.1241L249.863 23.6339L249.873 23.6473L249.885 23.6603L250.498 23.1241ZM261.526 22.7931L262.171 23.2903L262.174 23.286L261.526 22.7931ZM259.974 21.6757L260.66 22.1144L260.665 22.1063L259.974 21.6757ZM252.07 21.8826L252.729 21.4037L252.724 21.398L252.07 21.8826ZM252.277 13.068L252.876 13.6198L252.277 13.068ZM259.788 13.0887L260.405 12.5568L260.404 12.5559L259.788 13.0887ZM262.384 11.7298C260.931 9.8012 258.714 8.88099 255.919 8.88099V10.5095C258.337 10.5095 260.011 11.286 261.083 12.7095L262.384 11.7298ZM255.919 8.88099C253.184 8.88099 251.017 9.91469 249.563 11.9783L250.894 12.9162C252.006 11.3381 253.646 10.5095 255.919 10.5095V8.88099ZM249.56 11.9822C248.458 13.5666 247.925 15.4525 247.925 17.5995H249.553C249.553 15.7322 250.013 14.1833 250.897 12.9122L249.56 11.9822ZM247.925 17.5995C247.925 19.9618 248.546 21.9937 249.863 23.6339L251.133 22.6144C250.09 21.3163 249.553 19.6652 249.553 17.5995H247.925ZM249.885 23.6603C251.363 25.3501 253.379 26.1938 255.877 26.1938V24.5653C253.783 24.5653 252.239 23.8778 251.11 22.5879L249.885 23.6603ZM255.877 26.1938C258.538 26.1938 260.673 25.2326 262.171 23.2903L260.881 22.2959C259.731 23.7883 258.1 24.5653 255.877 24.5653V26.1938ZM262.174 23.286C263.42 21.6486 264.017 19.6239 264.017 17.2684H262.388C262.388 19.341 261.867 20.9994 260.878 22.3001L262.174 23.286ZM264.017 17.2684C264.017 15.0853 263.485 13.23 262.389 11.7377L261.077 12.7016C261.926 13.8578 262.388 15.3545 262.388 17.2684H264.017ZM259.288 21.2371C258.657 22.2246 257.659 22.7651 256.126 22.7651V24.3936C258.11 24.3936 259.678 23.6513 260.66 22.1143L259.288 21.2371ZM256.126 22.7651C254.405 22.7651 253.353 22.2624 252.729 21.4037L251.412 22.3616C252.443 23.779 254.081 24.3936 256.126 24.3936V22.7651ZM252.724 21.398C252.019 20.4461 251.643 19.2386 251.643 17.7236H250.014C250.014 19.5193 250.466 21.0845 251.416 22.3673L252.724 21.398ZM251.643 17.7236C251.643 15.7884 252.093 14.469 252.876 13.6198L251.678 12.5162C250.516 13.7776 250.014 15.5618 250.014 17.7236H251.643ZM252.876 13.6198C253.68 12.7469 254.697 12.3097 256.043 12.3097V10.6812C254.285 10.6812 252.819 11.2785 251.678 12.5162L252.876 13.6198ZM256.043 12.3097C257.414 12.3097 258.417 12.7491 259.172 13.6215L260.404 12.5559C259.297 11.2764 257.817 10.6812 256.043 10.6812V12.3097ZM259.172 13.6206C259.925 14.4933 260.34 15.695 260.34 17.2891H261.968C261.968 15.407 261.473 13.7946 260.405 12.5568L259.172 13.6206ZM260.34 17.2891C260.34 18.811 259.98 20.1273 259.283 21.2452L260.665 22.1063C261.542 20.6998 261.968 19.0778 261.968 17.2891H260.34ZM265.857 10.1091V9.29483H265.043V10.1091H265.857ZM265.857 24.945H265.043V25.7593H265.857V24.945ZM267.865 24.945V25.7593H268.679V24.945H267.865ZM267.865 18.572V17.7577H267.05V18.572H267.865ZM274.258 18.8617L274.622 18.1334L274.615 18.1295L274.607 18.1258L274.258 18.8617ZM275.334 20.8067L276.148 20.7657L276.147 20.7548L275.334 20.8067ZM275.458 23.269L276.272 23.2399L276.272 23.228L275.458 23.269ZM275.562 24.4484L276.36 24.2887V24.2887L275.562 24.4484ZM275.707 24.945L274.978 25.3091L275.203 25.7593H275.707V24.945ZM278.19 24.945V25.7593H279.004V24.945H278.19ZM278.19 24.6139H279.004V24.0497L278.476 23.8515L278.19 24.6139ZM277.528 23.7035L276.734 23.8866L276.737 23.8979L276.74 23.909L277.528 23.7035ZM277.403 22.4413H278.218V22.4244L278.217 22.4074L277.403 22.4413ZM277.321 20.4549L276.507 20.4743L276.507 20.4816L276.507 20.4888L277.321 20.4549ZM276.845 18.572L277.5 18.089L277.486 18.0694L277.47 18.0507L276.845 18.572ZM275.52 17.6408L275.156 16.9126L273.586 17.6977L275.2 18.3893L275.52 17.6408ZM277.072 16.2959L277.75 16.7476L277.759 16.7332L277.768 16.7185L277.072 16.2959ZM275.52 10.6057L275.182 11.3463L275.192 11.3507L275.52 10.6057ZM267.865 16.8959H267.05V17.7102H267.865V16.8959ZM267.865 11.8265V11.0122H267.05V11.8265H267.865ZM274.424 12.1369L274.06 12.8652L274.068 12.8691L274.424 12.1369ZM274.755 16.3373L275.207 17.0148L275.212 17.0108L275.218 17.0067L274.755 16.3373ZM272.727 9.29483H265.857V10.9233H272.727V9.29483ZM265.043 10.1091V24.945H266.672V10.1091H265.043ZM265.857 25.7593H267.865V24.1308H265.857V25.7593ZM268.679 24.945V18.572H267.05V24.945H268.679ZM267.865 19.3862H272.437V17.7577H267.865V19.3862ZM272.437 19.3862C273.22 19.3862 273.678 19.4877 273.91 19.5975L274.607 18.1258C274.052 17.8631 273.31 17.7577 272.437 17.7577V19.3862ZM273.894 19.5899C274.213 19.7493 274.471 20.0669 274.522 20.8585L276.147 20.7548C276.073 19.6014 275.628 18.6362 274.622 18.1334L273.894 19.5899ZM274.521 20.8477L274.645 23.31L276.272 23.228L276.147 20.7657L274.521 20.8477ZM274.645 23.298C274.666 23.8903 274.709 24.3358 274.763 24.6081L276.36 24.2887C276.332 24.1472 276.292 23.8064 276.272 23.2399L274.645 23.298ZM274.763 24.6081C274.804 24.8128 274.862 25.0767 274.978 25.3091L276.435 24.5809C276.435 24.5819 276.433 24.577 276.428 24.5642C276.424 24.5514 276.418 24.533 276.41 24.5073C276.395 24.4541 276.379 24.3845 276.36 24.2887L274.763 24.6081ZM275.707 25.7593H278.19V24.1308H275.707V25.7593ZM279.004 24.945V24.6139H277.375V24.945H279.004ZM278.476 23.8515C278.473 23.8505 278.472 23.8501 278.471 23.8489C278.469 23.8473 278.459 23.8394 278.444 23.8184C278.412 23.7724 278.362 23.6769 278.315 23.498L276.74 23.909C276.891 24.4903 277.208 25.1154 277.904 25.3764L278.476 23.8515ZM278.321 23.5204C278.274 23.3157 278.218 22.9429 278.218 22.4413H276.589C276.589 23.0571 276.657 23.5533 276.734 23.8866L278.321 23.5204ZM278.217 22.4074L278.134 20.421L276.507 20.4888L276.59 22.4752L278.217 22.4074ZM278.135 20.4355C278.112 19.4998 277.936 18.6797 277.5 18.089L276.189 19.055C276.333 19.2505 276.487 19.6719 276.507 20.4743L278.135 20.4355ZM277.47 18.0507C277.06 17.5586 276.511 17.1794 275.841 16.8924L275.2 18.3893C275.689 18.5989 276.008 18.8404 276.219 19.0932L277.47 18.0507ZM275.885 18.3691C276.666 17.9784 277.294 17.4308 277.75 16.7476L276.395 15.8442C276.105 16.2783 275.699 16.6412 275.156 16.9126L275.885 18.3691ZM277.768 16.7185C278.214 15.9848 278.425 15.1063 278.425 14.1026H276.796C276.796 14.8783 276.634 15.4483 276.376 15.8733L277.768 16.7185ZM278.425 14.1026C278.425 13.1467 278.232 12.2751 277.793 11.5354C277.351 10.7885 276.69 10.2315 275.849 9.8607L275.192 11.3507C275.758 11.6006 276.142 11.9437 276.393 12.3659C276.647 12.7952 276.796 13.3617 276.796 14.1026H278.425ZM275.859 9.86514C274.993 9.46931 273.935 9.29483 272.727 9.29483V10.9233C273.795 10.9233 274.599 11.0799 275.182 11.3462L275.859 9.86514ZM272.52 16.0817H267.865V17.7102H272.52V16.0817ZM268.679 16.8959V11.8265H267.05V16.8959H268.679ZM267.865 12.6407H272.768V11.0122H267.865V12.6407ZM272.768 12.6407C273.401 12.6407 273.8 12.7352 274.06 12.8652L274.788 11.4086C274.22 11.1247 273.543 11.0122 272.768 11.0122V12.6407ZM274.068 12.8691C274.483 13.0711 274.768 13.4587 274.768 14.2888H276.397C276.397 13.0083 275.896 11.9475 274.78 11.4047L274.068 12.8691ZM274.768 14.2888C274.768 15.1406 274.523 15.5072 274.291 15.6678L275.218 17.0067C276.062 16.4224 276.397 15.4234 276.397 14.2888H274.768ZM274.303 15.6598C273.921 15.9147 273.351 16.0817 272.52 16.0817V17.7102C273.552 17.7102 274.472 17.5047 275.207 17.0148L274.303 15.6598ZM285.588 11.8679V11.0536H284.774V11.8679H285.588ZM290.595 11.8679V12.6821H291.41V11.8679H290.595ZM290.595 10.1091H291.41V9.29483H290.595V10.1091ZM278.553 10.1091V9.29483H277.738V10.1091H278.553ZM278.553 11.8679H277.738V12.6821H278.553V11.8679ZM283.56 11.8679H284.374V11.0536H283.56V11.8679ZM283.56 24.945H282.746V25.7593H283.56V24.945ZM285.588 24.945V25.7593H286.402V24.945H285.588ZM285.588 12.6821H290.595V11.0536H285.588V12.6821ZM291.41 11.8679V10.1091H289.781V11.8679H291.41ZM290.595 9.29483H278.553V10.9233H290.595V9.29483ZM277.738 10.1091V11.8679H279.367V10.1091H277.738ZM278.553 12.6821H283.56V11.0536H278.553V12.6821ZM282.746 11.8679V24.945H284.374V11.8679H282.746ZM283.56 25.7593H285.588V24.1308H283.56V25.7593ZM286.402 24.945V11.8679H284.774V24.945H286.402ZM82.9035 40.9299V41.7442H83.7177V40.9299H82.9035ZM82.9035 39.1091H83.7177V38.2948H82.9035V39.1091ZM72.599 39.1091V38.2948H71.7848V39.1091H72.599ZM72.599 53.945H71.7848V54.7593H72.599V53.945ZM74.6268 53.945V54.7593H75.4411V53.945H74.6268ZM74.6268 47.1995V46.3853H73.8126V47.1995H74.6268ZM81.9103 47.1995V48.0138H82.7245V47.1995H81.9103ZM81.9103 45.42H82.7245V44.6058H81.9103V45.42ZM74.6268 45.42H73.8126V46.2343H74.6268V45.42ZM74.6268 40.9299V40.1157H73.8126V40.9299H74.6268ZM83.7177 40.9299V39.1091H82.0892V40.9299H83.7177ZM82.9035 38.2948H72.599V39.9233H82.9035V38.2948ZM71.7848 39.1091V53.945H73.4133V39.1091H71.7848ZM72.599 54.7593H74.6268V53.1308H72.599V54.7593ZM75.4411 53.945V47.1995H73.8126V53.945H75.4411ZM74.6268 48.0138H81.9103V46.3853H74.6268V48.0138ZM82.7245 47.1995V45.42H81.096V47.1995H82.7245ZM81.9103 44.6058H74.6268V46.2343H81.9103V44.6058ZM75.4411 45.42V40.9299H73.8126V45.42H75.4411ZM74.6268 41.7442H82.9035V40.1157H74.6268V41.7442ZM96.0702 40.9299V41.7442H96.8844V40.9299H96.0702ZM96.0702 39.1091H96.8844V38.2948H96.0702V39.1091ZM85.2484 39.1091V38.2948H84.4342V39.1091H85.2484ZM85.2484 53.945H84.4342V54.7593H85.2484V53.945ZM96.2357 53.945V54.7593H97.05V53.945H96.2357ZM96.2357 52.1862H97.05V51.372H96.2357V52.1862ZM87.2141 52.1862H86.3999V53.0005H87.2141V52.1862ZM87.2141 47.1374V46.3232H86.3999V47.1374H87.2141ZM95.408 47.1374V47.9517H96.2223V47.1374H95.408ZM95.408 45.42H96.2223V44.6058H95.408V45.42ZM87.2141 45.42H86.3999V46.2343H87.2141V45.42ZM87.2141 40.9299V40.1157H86.3999V40.9299H87.2141ZM96.8844 40.9299V39.1091H95.2559V40.9299H96.8844ZM96.0702 38.2948H85.2484V39.9233H96.0702V38.2948ZM84.4342 39.1091V53.945H86.0627V39.1091H84.4342ZM85.2484 54.7593H96.2357V53.1308H85.2484V54.7593ZM97.05 53.945V52.1862H95.4215V53.945H97.05ZM96.2357 51.372H87.2141V53.0005H96.2357V51.372ZM88.0284 52.1862V47.1374H86.3999V52.1862H88.0284ZM87.2141 47.9517H95.408V46.3232H87.2141V47.9517ZM96.2223 47.1374V45.42H94.5938V47.1374H96.2223ZM95.408 44.6058H87.2141V46.2343H95.408V44.6058ZM88.0284 45.42V40.9299H86.3999V45.42H88.0284ZM87.2141 41.7442H96.0702V40.1157H87.2141V41.7442ZM98.9668 39.1091V38.2948H98.1526V39.1091H98.9668ZM98.9668 53.945H98.1526V54.7593H98.9668V53.945ZM110.327 50.5723L109.589 50.2273L109.586 50.2328L110.327 50.5723ZM109.727 41.2817L110.374 40.7882L110.367 40.7786L109.727 41.2817ZM100.974 52.2276H100.16V53.0419H100.974V52.2276ZM100.974 40.8265V40.0122H100.16V40.8265H100.974ZM108.071 42.3577L107.409 42.831L107.415 42.8398L108.071 42.3577ZM109.023 48.1927L108.222 48.0444L108.221 48.0532L109.023 48.1927ZM108.154 50.4895L107.48 50.0323L107.475 50.0393L107.471 50.0464L108.154 50.4895ZM106.25 52.0207L106.508 52.7933L106.52 52.7889L106.25 52.0207ZM104.967 38.2948H98.9668V39.9233H104.967V38.2948ZM98.1526 39.1091V53.945H99.7811V39.1091H98.1526ZM98.9668 54.7593H104.947V53.1308H98.9668V54.7593ZM104.947 54.7593C106.34 54.7593 107.583 54.4524 108.635 53.7948C109.688 53.136 110.494 52.1595 111.067 50.9118L109.586 50.2328C109.124 51.2404 108.513 51.9503 107.771 52.414C107.028 52.8789 106.099 53.1308 104.947 53.1308V54.7593ZM111.064 50.9173C111.721 49.5124 112.031 47.9851 112.031 46.2891H110.402C110.402 47.7796 110.132 49.0664 109.589 50.2273L111.064 50.9173ZM112.031 46.2891C112.031 44.1273 111.5 42.2652 110.374 40.7882L109.079 41.7752C109.94 42.9054 110.402 44.3953 110.402 46.2891H112.031ZM110.367 40.7786C109.057 39.1121 107.237 38.2948 104.967 38.2948V39.9233C106.795 39.9233 108.12 40.5544 109.086 41.7848L110.367 40.7786ZM104.574 51.4133H100.974V53.0419H104.574V51.4133ZM101.788 52.2276V40.8265H100.16V52.2276H101.788ZM100.974 41.6407H104.554V40.0122H100.974V41.6407ZM104.554 41.6407C105.988 41.6407 106.88 42.0906 107.409 42.8309L108.734 41.8844C107.814 40.5969 106.348 40.0122 104.554 40.0122V41.6407ZM107.415 42.8398C108.016 43.6575 108.354 44.8864 108.354 46.6409H109.982C109.982 44.7121 109.616 43.0856 108.727 41.8756L107.415 42.8398ZM108.354 46.6409C108.354 47.069 108.316 47.5366 108.222 48.0445L109.824 48.341C109.937 47.7315 109.982 47.1645 109.982 46.6409H108.354ZM108.221 48.0532C108.072 48.91 107.799 49.5632 107.48 50.0323L108.828 50.9467C109.296 50.2571 109.643 49.379 109.825 48.3322L108.221 48.0532ZM107.471 50.0464C107.068 50.6669 106.57 51.0455 105.98 51.2525L106.52 52.7889C107.462 52.4579 108.246 51.8433 108.837 50.9326L107.471 50.0464ZM105.993 51.2482C105.68 51.3526 105.201 51.4133 104.574 51.4133V53.0419C105.272 53.0419 105.952 52.9784 106.508 52.7932L105.993 51.2482ZM124.804 40.9299V41.7442H125.618V40.9299H124.804ZM124.804 39.1091H125.618V38.2948H124.804V39.1091ZM113.982 39.1091V38.2948H113.168V39.1091H113.982ZM113.982 53.945H113.168V54.7593H113.982V53.945ZM124.97 53.945V54.7593H125.784V53.945H124.97ZM124.97 52.1862H125.784V51.372H124.97V52.1862ZM115.948 52.1862H115.134V53.0005H115.948V52.1862ZM115.948 47.1374V46.3232H115.134V47.1374H115.948ZM124.142 47.1374V47.9517H124.956V47.1374H124.142ZM124.142 45.42H124.956V44.6058H124.142V45.42ZM115.948 45.42H115.134V46.2343H115.948V45.42ZM115.948 40.9299V40.1157H115.134V40.9299H115.948ZM125.618 40.9299V39.1091H123.99V40.9299H125.618ZM124.804 38.2948H113.982V39.9233H124.804V38.2948ZM113.168 39.1091V53.945H114.797V39.1091H113.168ZM113.982 54.7593H124.97V53.1308H113.982V54.7593ZM125.784 53.945V52.1862H124.155V53.945H125.784ZM124.97 51.372H115.948V53.0005H124.97V51.372ZM116.762 52.1862V47.1374H115.134V52.1862H116.762ZM115.948 47.9517H124.142V46.3232H115.948V47.9517ZM124.956 47.1374V45.42H123.328V47.1374H124.956ZM124.142 44.6058H115.948V46.2343H124.142V44.6058ZM116.762 45.42V40.9299H115.134V45.42H116.762ZM115.948 41.7442H124.804V40.1157H115.948V41.7442ZM127.846 39.1091V38.2948H127.031V39.1091H127.846ZM127.846 53.945H127.031V54.7593H127.846V53.945ZM129.853 53.945V54.7593H130.667V53.945H129.853ZM129.853 47.572V46.7577H129.038V47.572H129.853ZM136.246 47.8617L136.611 47.1334L136.603 47.1295L136.595 47.1258L136.246 47.8617ZM137.322 49.8067L138.136 49.7657L138.135 49.7548L137.322 49.8067ZM137.447 52.269L138.26 52.2399L138.26 52.228L137.447 52.269ZM137.55 53.4484L138.348 53.2887V53.2887L137.55 53.4484ZM137.695 53.945L136.967 54.3092L137.192 54.7593H137.695V53.945ZM140.178 53.945V54.7593H140.992V53.945H140.178ZM140.178 53.6139H140.992V53.0497L140.464 52.8515L140.178 53.6139ZM139.516 52.7035L138.722 52.8866L138.725 52.8979L138.728 52.909L139.516 52.7035ZM139.392 51.4413H140.206V51.4244L140.205 51.4074L139.392 51.4413ZM139.309 49.4549L138.495 49.4743L138.495 49.4816L138.495 49.4888L139.309 49.4549ZM138.833 47.572L139.488 47.089L139.474 47.0694L139.458 47.0507L138.833 47.572ZM137.509 46.6409L137.144 45.9126L135.574 46.6977L137.188 47.3893L137.509 46.6409ZM139.061 45.2959L139.738 45.7476L139.748 45.7332L139.757 45.7185L139.061 45.2959ZM137.509 39.6057L137.17 40.3463L137.18 40.3507L137.509 39.6057ZM129.853 45.8959H129.038V46.7102H129.853V45.8959ZM129.853 40.8265V40.0122H129.038V40.8265H129.853ZM136.412 41.1369L136.048 41.8652L136.056 41.8691L136.412 41.1369ZM136.743 45.3373L137.195 46.0148L137.201 46.0108L137.207 46.0067L136.743 45.3373ZM134.715 38.2948H127.846V39.9233H134.715V38.2948ZM127.031 39.1091V53.945H128.66V39.1091H127.031ZM127.846 54.7593H129.853V53.1308H127.846V54.7593ZM130.667 53.945V47.572H129.038V53.945H130.667ZM129.853 48.3862H134.426V46.7577H129.853V48.3862ZM134.426 48.3862C135.209 48.3862 135.666 48.4877 135.898 48.5975L136.595 47.1258C136.041 46.8631 135.298 46.7577 134.426 46.7577V48.3862ZM135.882 48.59C136.201 48.7493 136.459 49.0669 136.51 49.8585L138.135 49.7548C138.061 48.6014 137.616 47.6362 136.611 47.1334L135.882 48.59ZM136.509 49.8477L136.633 52.31L138.26 52.228L138.136 49.7657L136.509 49.8477ZM136.633 52.298C136.654 52.8903 136.697 53.3358 136.752 53.6081L138.348 53.2887C138.32 53.1472 138.281 52.8064 138.26 52.2399L136.633 52.298ZM136.752 53.6081C136.793 53.8128 136.85 54.0767 136.967 54.3092L138.423 53.5809C138.424 53.5819 138.421 53.577 138.416 53.5642C138.412 53.5514 138.406 53.533 138.399 53.5073C138.384 53.4541 138.368 53.3845 138.348 53.2887L136.752 53.6081ZM137.695 54.7593H140.178V53.1308H137.695V54.7593ZM140.992 53.945V53.6139H139.364V53.945H140.992ZM140.464 52.8515C140.461 52.8505 140.46 52.8501 140.459 52.8489C140.457 52.8473 140.447 52.8394 140.433 52.8184C140.4 52.7724 140.35 52.6769 140.304 52.498L138.728 52.909C138.879 53.4903 139.196 54.1154 139.892 54.3764L140.464 52.8515ZM140.309 52.5204C140.262 52.3157 140.206 51.9429 140.206 51.4413H138.577C138.577 52.0571 138.645 52.5533 138.722 52.8866L140.309 52.5204ZM140.205 51.4074L140.122 49.421L138.495 49.4888L138.578 51.4752L140.205 51.4074ZM140.123 49.4355C140.101 48.4998 139.924 47.6797 139.488 47.089L138.177 48.055C138.321 48.2505 138.476 48.6719 138.495 49.4743L140.123 49.4355ZM139.458 47.0507C139.048 46.5586 138.499 46.1794 137.829 45.8924L137.188 47.3893C137.677 47.5989 137.997 47.8404 138.207 48.0932L139.458 47.0507ZM137.873 47.3691C138.654 46.9784 139.283 46.4308 139.738 45.7476L138.383 44.8442C138.094 45.2783 137.687 45.6412 137.144 45.9126L137.873 47.3691ZM139.757 45.7185C140.202 44.9848 140.413 44.1063 140.413 43.1026H138.784C138.784 43.8783 138.623 44.4483 138.364 44.8733L139.757 45.7185ZM140.413 43.1026C140.413 42.1467 140.22 41.2751 139.782 40.5354C139.339 39.7885 138.678 39.2315 137.837 38.8607L137.18 40.3507C137.747 40.6006 138.13 40.9437 138.381 41.3659C138.635 41.7952 138.784 42.3617 138.784 43.1026H140.413ZM137.847 38.8651C136.981 38.4693 135.924 38.2948 134.715 38.2948V39.9233C135.783 39.9233 136.588 40.0799 137.17 40.3462L137.847 38.8651ZM134.508 45.0817H129.853V46.7102H134.508V45.0817ZM130.667 45.8959V40.8265H129.038V45.8959H130.667ZM129.853 41.6407H134.757V40.0122H129.853V41.6407ZM134.757 41.6407C135.389 41.6407 135.788 41.7352 136.048 41.8652L136.776 40.4086C136.208 40.1247 135.531 40.0122 134.757 40.0122V41.6407ZM136.056 41.8691C136.471 42.0711 136.756 42.4587 136.756 43.2888H138.385C138.385 42.0083 137.884 40.9475 136.768 40.4047L136.056 41.8691ZM136.756 43.2888C136.756 44.1406 136.512 44.5072 136.28 44.6678L137.207 46.0067C138.051 45.4224 138.385 44.4234 138.385 43.2888H136.756ZM136.291 44.6598C135.909 44.9147 135.339 45.0817 134.508 45.0817V46.7102C135.54 46.7102 136.46 46.5047 137.195 46.0148L136.291 44.6598ZM154.511 53.945V54.7593H155.672L155.276 53.6674L154.511 53.945ZM149.131 39.1091L149.896 38.8315L149.702 38.2948H149.131V39.1091ZM146.855 39.1091V38.2948H146.291L146.093 38.8221L146.855 39.1091ZM141.268 53.945L140.506 53.6581L140.091 54.7593H141.268V53.945ZM143.316 53.945V54.7593H143.887L144.082 54.2227L143.316 53.945ZM144.93 49.4963V48.682H144.36L144.165 49.2186L144.93 49.4963ZM150.807 49.4963L151.579 49.2377L151.393 48.682H150.807V49.4963ZM152.297 53.945L151.524 54.2036L151.711 54.7593H152.297V53.945ZM145.51 47.8617L144.744 47.584L144.348 48.6759H145.51V47.8617ZM147.889 41.3024L148.659 41.0376L147.91 38.8581L147.124 41.0247L147.889 41.3024ZM150.145 47.8617V48.6759H151.286L150.915 47.5969L150.145 47.8617ZM155.276 53.6674L149.896 38.8315L148.365 39.3867L153.745 54.2226L155.276 53.6674ZM149.131 38.2948H146.855V39.9233H149.131V38.2948ZM146.093 38.8221L140.506 53.6581L142.03 54.232L147.617 39.396L146.093 38.8221ZM141.268 54.7593H143.316V53.1308H141.268V54.7593ZM144.082 54.2227L145.696 49.774L144.165 49.2186L142.551 53.6673L144.082 54.2227ZM144.93 50.3106H150.807V48.682H144.93V50.3106ZM150.035 49.7549L151.524 54.2036L153.069 53.6864L151.579 49.2377L150.035 49.7549ZM152.297 54.7593H154.511V53.1308H152.297V54.7593ZM146.275 48.1393L148.655 41.5801L147.124 41.0247L144.744 47.584L146.275 48.1393ZM147.119 41.5672L149.375 48.1264L150.915 47.5969L148.659 41.0376L147.119 41.5672ZM150.145 47.0474H145.51V48.6759H150.145V47.0474ZM158.993 40.8679V40.0536H158.179V40.8679H158.993ZM164 40.8679V41.6821H164.815V40.8679H164ZM164 39.1091H164.815V38.2948H164V39.1091ZM151.958 39.1091V38.2948H151.143V39.1091H151.958ZM151.958 40.8679H151.143V41.6821H151.958V40.8679ZM156.965 40.8679H157.779V40.0536H156.965V40.8679ZM156.965 53.945H156.151V54.7593H156.965V53.945ZM158.993 53.945V54.7593H159.807V53.945H158.993ZM158.993 41.6821H164V40.0536H158.993V41.6821ZM164.815 40.8679V39.1091H163.186V40.8679H164.815ZM164 38.2948H151.958V39.9233H164V38.2948ZM151.143 39.1091V40.8679H152.772V39.1091H151.143ZM151.958 41.6821H156.965V40.0536H151.958V41.6821ZM156.151 40.8679V53.945H157.779V40.8679H156.151ZM156.965 54.7593H158.993V53.1308H156.965V54.7593ZM159.807 53.945V40.8679H158.179V53.945H159.807ZM168.332 53.945V54.7593H169.146V53.945H168.332ZM168.332 39.1091H169.146V38.2948H168.332V39.1091ZM166.304 39.1091V38.2948H165.49V39.1091H166.304ZM166.304 53.945H165.49V54.7593H166.304V53.945ZM169.146 53.945V39.1091H167.517V53.945H169.146ZM168.332 38.2948H166.304V39.9233H168.332V38.2948ZM165.49 39.1091V53.945H167.118V39.1091H165.49ZM166.304 54.7593H168.332V53.1308H166.304V54.7593ZM183.836 41.2196L184.493 40.7376L184.487 40.7298L183.836 41.2196ZM172.332 41.4472L171.666 40.9783L171.663 40.9822L172.332 41.4472ZM172.601 52.1241L171.966 52.6339L171.977 52.6473L171.988 52.6603L172.601 52.1241ZM183.629 51.7931L184.274 52.2903L184.277 52.286L183.629 51.7931ZM182.078 50.6757L182.764 51.1144L182.769 51.1063L182.078 50.6757ZM174.173 50.8826L174.832 50.4037L174.828 50.398L174.173 50.8826ZM174.38 42.068L174.979 42.6198L174.38 42.068ZM181.891 42.0887L182.508 41.5568L182.507 41.5559L181.891 42.0887ZM184.487 40.7298C183.034 38.8012 180.818 37.881 178.022 37.881V39.5095C180.441 39.5095 182.114 40.286 183.186 41.7095L184.487 40.7298ZM178.022 37.881C175.287 37.881 173.12 38.9147 171.666 40.9783L172.997 41.9162C174.109 40.3381 175.749 39.5095 178.022 39.5095V37.881ZM171.663 40.9822C170.561 42.5666 170.028 44.4525 170.028 46.5995H171.656C171.656 44.7322 172.116 43.1833 173 41.9122L171.663 40.9822ZM170.028 46.5995C170.028 48.9618 170.649 50.9937 171.966 52.6339L173.236 51.6144C172.194 50.3163 171.656 48.6652 171.656 46.5995H170.028ZM171.988 52.6603C173.466 54.3501 175.482 55.1938 177.981 55.1938V53.5653C175.886 53.5653 174.342 52.8778 173.214 51.5879L171.988 52.6603ZM177.981 55.1938C180.641 55.1938 182.777 54.2326 184.274 52.2903L182.985 51.2959C181.834 52.7883 180.203 53.5653 177.981 53.5653V55.1938ZM184.277 52.286C185.523 50.6486 186.12 48.6239 186.12 46.2684H184.491C184.491 48.341 183.971 49.9994 182.981 51.3002L184.277 52.286ZM186.12 46.2684C186.12 44.0853 185.589 42.23 184.493 40.7377L183.18 41.7016C184.029 42.8578 184.491 44.3545 184.491 46.2684H186.12ZM181.391 50.2371C180.76 51.2246 179.762 51.7651 178.229 51.7651V53.3936C180.213 53.3936 181.781 52.6513 182.764 51.1143L181.391 50.2371ZM178.229 51.7651C176.508 51.7651 175.456 51.2624 174.832 50.4037L173.515 51.3616C174.546 52.779 176.184 53.3936 178.229 53.3936V51.7651ZM174.828 50.398C174.122 49.4461 173.746 48.2386 173.746 46.7236H172.118C172.118 48.5193 172.569 50.0845 173.519 51.3673L174.828 50.398ZM173.746 46.7236C173.746 44.7884 174.196 43.469 174.979 42.6198L173.781 41.5162C172.619 42.7776 172.118 44.5618 172.118 46.7236H173.746ZM174.979 42.6198C175.783 41.7469 176.8 41.3097 178.146 41.3097V39.6812C176.388 39.6812 174.922 40.2785 173.781 41.5162L174.979 42.6198ZM178.146 41.3097C179.517 41.3097 180.521 41.7491 181.276 42.6215L182.507 41.5559C181.4 40.2764 179.92 39.6812 178.146 39.6812V41.3097ZM181.275 42.6206C182.028 43.4933 182.443 44.695 182.443 46.2891H184.071C184.071 44.407 183.576 42.7946 182.508 41.5568L181.275 42.6206ZM182.443 46.2891C182.443 47.811 182.083 49.1273 181.386 50.2452L182.769 51.1063C183.645 49.6998 184.071 48.0778 184.071 46.2891H182.443ZM197.582 51.1309L196.891 51.5615L198.396 53.9776V51.1309H197.582ZM190.092 39.1091L190.783 38.6785L190.544 38.2948H190.092V39.1091ZM187.712 39.1091V38.2948H186.898V39.1091H187.712ZM187.712 53.945H186.898V54.7593H187.712V53.945ZM189.637 53.945V54.7593H190.451V53.945H189.637ZM189.637 41.9231L190.324 41.4874L188.822 39.1159V41.9231H189.637ZM197.251 53.945L196.563 54.3807L196.803 54.7593H197.251V53.945ZM199.507 53.945V54.7593H200.321V53.945H199.507ZM199.507 39.1091H200.321V38.2948H199.507V39.1091ZM197.582 39.1091V38.2948H196.768V39.1091H197.582ZM198.273 50.7003L190.783 38.6785L189.401 39.5397L196.891 51.5615L198.273 50.7003ZM190.092 38.2948H187.712V39.9233H190.092V38.2948ZM186.898 39.1091V53.945H188.527V39.1091H186.898ZM187.712 54.7593H189.637V53.1308H187.712V54.7593ZM190.451 53.945V41.9231H188.822V53.945H190.451ZM188.949 42.3588L196.563 54.3807L197.939 53.5093L190.324 41.4874L188.949 42.3588ZM197.251 54.7593H199.507V53.1308H197.251V54.7593ZM200.321 53.945V39.1091H198.692V53.945H200.321ZM199.507 38.2948H197.582V39.9233H199.507V38.2948ZM196.768 39.1091V51.1309H198.396V39.1091H196.768Z" fill="white"/>
<defs>
<clipPath id="clip0">
<rect width="56.1836" height="56.1836" fill="white" transform="translate(0 3.38776)"/>
</clipPath>
</defs>
</svg>
