<svg width="26" height="26" viewBox="0 0 26 26" fill="none" xmlns="http://www.w3.org/2000/svg">
<g clip-path="url(#clip0)">
<path d="M13.0043 6.32449C9.31771 6.32449 6.33313 9.31233 6.33313 12.9957C6.33313 16.6822 9.32096 19.6668 13.0043 19.6668C16.6909 19.6668 19.6755 16.679 19.6755 12.9957C19.6755 9.30908 16.6876 6.32449 13.0043 6.32449ZM13.0043 17.3257C10.6112 17.3257 8.67421 15.3877 8.67421 12.9957C8.67421 10.6037 10.6123 8.66558 13.0043 8.66558C15.3963 8.66558 17.3344 10.6037 17.3344 12.9957C17.3355 15.3877 15.3974 17.3257 13.0043 17.3257Z" fill="white"/>
<path d="M18.3602 0.0827065C15.9682 -0.0288769 10.0435 -0.0234602 7.6493 0.0827065C5.54546 0.18129 3.68971 0.689373 2.19363 2.18546C-0.306703 4.68579 0.01288 8.05496 0.01288 12.996C0.01288 18.053 -0.268787 21.3442 2.19363 23.8066C4.70371 26.3156 8.12163 25.9874 13.0042 25.9874C18.0135 25.9874 19.7425 25.9906 21.5138 25.3049C23.922 24.37 25.7399 22.2174 25.9175 18.351C26.0302 15.9579 26.0237 10.0342 25.9175 7.64004C25.703 3.07596 23.2536 0.30804 18.3602 0.0827065ZM22.1465 22.1524C20.5074 23.7915 18.2335 23.6452 12.9728 23.6452C7.55613 23.6452 5.38405 23.7254 3.79913 22.1361C1.97371 20.3194 2.30413 17.402 2.30413 12.9787C2.30413 6.99329 1.68988 2.68271 7.69696 2.37504C9.07713 2.32629 9.48338 2.31004 12.9576 2.31004L13.0064 2.34254C18.7795 2.34254 23.3089 1.73804 23.5808 7.74404C23.6425 9.11446 23.6566 9.52613 23.6566 12.995C23.6555 18.3488 23.7574 20.5339 22.1465 22.1524Z" fill="white"/>
<path d="M19.9398 7.62016C20.8007 7.62016 21.4987 6.9222 21.4987 6.06124C21.4987 5.20027 20.8007 4.50232 19.9398 4.50232C19.0788 4.50232 18.3809 5.20027 18.3809 6.06124C18.3809 6.9222 19.0788 7.62016 19.9398 7.62016Z" fill="white"/>
</g>
<defs>
<clipPath id="clip0">
<rect width="26" height="26" fill="white"/>
</clipPath>
</defs>
</svg>
