<svg width="26" height="20" viewBox="0 0 26 20" fill="none" xmlns="http://www.w3.org/2000/svg">
<path d="M22.616 2.89283C22.616 2.89283 20.7515 0.91887 16.518 0.633179V1.25646C16.518 1.25646 18.84 1.12157 21.7142 3.95086C19.5447 2.38997 16.4496 1.41218 13.0118 1.41218C9.57397 1.41218 6.47894 2.38983 4.30936 3.95086C7.18362 1.12157 9.50558 1.25646 9.50558 1.25646V0.633179C5.27212 0.91887 3.40761 2.89283 3.40761 2.89283C0.181738 7.04807 0 16.1383 0 16.1383C3.03865 19.8002 6.85658 19.3329 6.85658 19.3329L8.25901 17.3072C6.45045 16.8179 5.15892 15.6947 4.38267 14.82C6.54834 16.3507 9.61228 17.3072 13.0118 17.3072C16.4113 17.3072 19.4753 16.3508 21.6409 14.82C20.8647 15.6945 19.5731 16.8179 17.7646 17.3072L19.167 19.3329C19.167 19.3329 22.985 19.8005 26.0236 16.1383C26.0239 16.1381 25.842 7.04807 22.616 2.89283ZM8.96037 13.5671C7.74112 13.5671 6.75277 12.517 6.75277 11.2214C6.75277 9.92594 7.74112 8.87571 8.96037 8.87571C10.1796 8.87571 11.168 9.92594 11.168 11.2214C11.168 12.5168 10.1796 13.5671 8.96037 13.5671ZM17.0635 13.5671C15.8443 13.5671 14.8559 12.517 14.8559 11.2214C14.8559 9.92594 15.8443 8.87571 17.0635 8.87571C18.2828 8.87571 19.2711 9.92594 19.2711 11.2214C19.2711 12.5168 18.2829 13.5671 17.0635 13.5671Z" fill="white"/>
</svg>
