<svg width="100" height="100" viewBox="0 0 100 100" fill="none" xmlns="http://www.w3.org/2000/svg">
<path d="M96.5156 87.2531L88.575 59.4609C87.9147 57.1794 86.5328 55.1733 84.6365 53.7431C82.7401 52.313 80.4314 51.5358 78.0562 51.5281H42.2C39.825 51.5357 37.5164 52.3128 35.6202 53.743C33.7241 55.1732 32.3426 57.1794 31.6828 59.4609L23.7406 87.2531C23.2085 89.1166 23.3101 91.104 24.0294 92.9035C24.7487 94.703 26.045 96.2128 27.7151 97.196C29.3851 98.1792 31.3342 98.5801 33.2567 98.336C35.1792 98.0918 36.9663 97.2163 38.3375 95.8469L48.2812 85.9031H71.9812L81.9203 95.8422C83.2915 97.2098 85.0777 98.0839 86.999 98.3275C88.9203 98.5711 90.8681 98.1703 92.5372 97.1881C94.2063 96.2058 95.5024 94.6976 96.2224 92.8997C96.9423 91.1018 97.0455 89.1159 96.5156 87.2531ZM49.7125 72.8781H47.1078V75.4813C47.1163 75.8286 47.0552 76.1741 46.9282 76.4974C46.8012 76.8208 46.6107 77.1155 46.3681 77.3641C46.1255 77.6128 45.8355 77.8104 45.5154 77.9453C45.1952 78.0802 44.8513 78.1497 44.5039 78.1497C44.1565 78.1497 43.8126 78.0802 43.4924 77.9453C43.1722 77.8104 42.8823 77.6128 42.6397 77.3641C42.397 77.1155 42.2066 76.8208 42.0796 76.4974C41.9525 76.1741 41.8915 75.8286 41.9 75.4813V72.8828H39.2953C38.6045 72.8828 37.942 72.6084 37.4535 72.1199C36.965 71.6314 36.6906 70.9689 36.6906 70.2781C36.6906 69.5873 36.965 68.9248 37.4535 68.4363C37.942 67.9479 38.6045 67.6734 39.2953 67.6734H41.9V65.0703C41.8915 64.723 41.9525 64.3775 42.0796 64.0541C42.2066 63.7308 42.397 63.4361 42.6397 63.1874C42.8823 62.9388 43.1722 62.7412 43.4924 62.6063C43.8126 62.4713 44.1565 62.4018 44.5039 62.4018C44.8513 62.4018 45.1952 62.4713 45.5154 62.6063C45.8355 62.7412 46.1255 62.9388 46.3681 63.1874C46.6107 63.4361 46.8012 63.7308 46.9282 64.0541C47.0552 64.3775 47.1163 64.723 47.1078 65.0703V67.6734H49.7125C50.4033 67.6734 51.0658 67.9479 51.5543 68.4363C52.0428 68.9248 52.3172 69.5873 52.3172 70.2781C52.3172 70.9689 52.0428 71.6314 51.5543 72.1199C51.0658 72.6084 50.4033 72.8828 49.7125 72.8828V72.8781ZM57.0047 79.6484H55.4422C55.0278 79.6484 54.6303 79.4838 54.3373 79.1908C54.0443 78.8978 53.8797 78.5003 53.8797 78.0859C53.8797 77.6715 54.0443 77.2741 54.3373 76.9811C54.6303 76.6881 55.0278 76.5234 55.4422 76.5234H57.0047C57.4191 76.5234 57.8165 76.6881 58.1095 76.9811C58.4026 77.2741 58.5672 77.6715 58.5672 78.0859C58.5672 78.5003 58.4026 78.8978 58.1095 79.1908C57.8165 79.4838 57.4191 79.6484 57.0047 79.6484ZM64.8172 79.6484H63.2547C62.8403 79.6484 62.4428 79.4838 62.1498 79.1908C61.8568 78.8978 61.6922 78.5003 61.6922 78.0859C61.6922 77.6715 61.8568 77.2741 62.1498 76.9811C62.4428 76.6881 62.8403 76.5234 63.2547 76.5234H64.8172C65.2316 76.5234 65.629 76.6881 65.922 76.9811C66.2151 77.2741 66.3797 77.6715 66.3797 78.0859C66.3797 78.5003 66.2151 78.8978 65.922 79.1908C65.629 79.4838 65.2316 79.6484 64.8172 79.6484ZM53.7344 57.7734L51.9125 54.6484H68.3453L66.5219 57.7734H53.7344ZM70.025 72.3563C69.613 72.3563 69.2104 72.2341 68.8678 72.0052C68.5253 71.7764 68.2584 71.4511 68.1007 71.0705C67.9431 70.6899 67.9018 70.2711 67.9822 69.8671C68.0626 69.4631 68.2609 69.092 68.5522 68.8007C68.8435 68.5094 69.2146 68.311 69.6187 68.2307C70.0227 68.1503 70.4415 68.1915 70.822 68.3492C71.2026 68.5068 71.5279 68.7738 71.7568 69.1163C71.9856 69.4588 72.1078 69.8615 72.1078 70.2734C72.1084 70.5474 72.055 70.8187 71.9506 71.0719C71.8462 71.3252 71.6929 71.5553 71.4994 71.7492C71.306 71.9431 71.0761 72.097 70.8231 72.202C70.5701 72.3069 70.2989 72.3609 70.025 72.3609V72.3563ZM75.7531 78.0859C75.3408 78.0859 74.9377 77.9637 74.5949 77.7346C74.2521 77.5054 73.985 77.1798 73.8273 76.7989C73.6695 76.4179 73.6284 75.9987 73.7089 75.5944C73.7895 75.19 73.9881 74.8186 74.2798 74.5271C74.5715 74.2357 74.943 74.0373 75.3474 73.9571C75.7519 73.8768 76.171 73.9183 76.5519 74.0763C76.9327 74.2343 77.2581 74.5017 77.487 74.8447C77.7158 75.1877 77.8378 75.5908 77.8375 76.0031C77.8381 76.2772 77.7846 76.5486 77.6801 76.802C77.5756 77.0553 77.4222 77.2856 77.2286 77.4795C77.0349 77.6734 76.8049 77.8272 76.5517 77.9321C76.2985 78.037 76.0272 78.0908 75.7531 78.0906V78.0859ZM75.7531 66.6281C75.3409 66.6281 74.9379 66.5059 74.5951 66.2768C74.2523 66.0478 73.9852 65.7223 73.8274 65.3414C73.6696 64.9605 73.6284 64.5414 73.7088 64.1371C73.7892 63.7328 73.9877 63.3614 74.2792 63.0699C74.5707 62.7784 74.9421 62.5799 75.3465 62.4994C75.7508 62.419 76.1699 62.4603 76.5508 62.618C76.9316 62.7758 77.2572 63.043 77.4862 63.3857C77.7152 63.7285 77.8375 64.1315 77.8375 64.5438C77.8383 64.8179 77.785 65.0896 77.6806 65.3431C77.5762 65.5966 77.4228 65.827 77.2291 66.0211C77.0355 66.2152 76.8054 66.3692 76.5521 66.4741C76.2988 66.5791 76.0273 66.633 75.7531 66.6328V66.6281ZM81.4828 72.3563C81.0709 72.3563 80.6682 72.2341 80.3257 72.0052C79.9831 71.7764 79.7162 71.4511 79.5585 71.0705C79.4009 70.6899 79.3596 70.2711 79.44 69.8671C79.5204 69.4631 79.7187 69.092 80.01 68.8007C80.3013 68.5094 80.6724 68.311 81.0765 68.2307C81.4805 68.1503 81.8993 68.1915 82.2799 68.3492C82.6604 68.5068 82.9857 68.7738 83.2146 69.1163C83.4435 69.4588 83.5656 69.8615 83.5656 70.2734C83.5662 70.5474 83.5128 70.8187 83.4084 71.0719C83.304 71.3252 83.1507 71.5553 82.9572 71.7492C82.7638 71.9431 82.5339 72.097 82.2809 72.202C82.0279 72.3069 81.7567 72.3609 81.4828 72.3609V72.3563Z" fill="#FF335A"/>
<path d="M3.125 32.8125V43.75C3.12802 44.5691 3.3461 45.373 3.75742 46.0812C4.16874 46.7895 4.75887 47.3774 5.46875 47.7859V51.5625C5.47123 53.6337 6.29513 55.6194 7.75972 57.084C9.22431 58.5486 11.21 59.3725 13.2812 59.375H14.9578C15.6377 60.0798 16.3892 60.7118 17.2 61.2609L20.0234 63.1359L18.7734 71.6391C18.7276 71.95 18.7766 72.2675 18.914 72.5502C19.0514 72.8328 19.2709 73.0675 19.5438 73.2234C23.1136 75.2532 27.1497 76.3203 31.2563 76.3203C35.3628 76.3203 39.3989 75.2532 42.9688 73.2234C43.2416 73.0675 43.4611 72.8328 43.5985 72.5502C43.7359 72.2675 43.7849 71.95 43.7391 71.6391L42.4891 63.1359L45.3125 61.2609C47.2384 59.9775 48.8169 58.2375 49.9074 56.1961C50.9979 54.1548 51.5665 51.8753 51.5625 49.5609V48.4375H54.6875C55.9307 48.4375 57.123 47.9436 58.0021 47.0646C58.8811 46.1855 59.375 44.9932 59.375 43.75V32.8125C59.375 31.5693 58.8811 30.377 58.0021 29.4979C57.123 28.6189 55.9307 28.125 54.6875 28.125V25C54.6875 18.784 52.2182 12.8226 47.8228 8.42719C43.4274 4.0318 37.466 1.5625 31.25 1.5625C25.034 1.5625 19.0726 4.0318 14.6772 8.42719C10.2818 12.8226 7.8125 18.784 7.8125 25V28.125C6.5693 28.125 5.37701 28.6189 4.49794 29.4979C3.61886 30.377 3.125 31.5693 3.125 32.8125ZM7.8125 31.25H10.9375V45.3125H7.8125C7.3981 45.3125 7.00067 45.1479 6.70765 44.8549C6.41462 44.5618 6.25 44.1644 6.25 43.75V32.8125C6.25 32.3981 6.41462 32.0007 6.70765 31.7076C7.00067 31.4146 7.3981 31.25 7.8125 31.25ZM48.4375 38.4813C48.0418 38.1545 47.7596 37.7109 47.6312 37.2141L46.8281 33.9969C46.7438 33.6587 46.5488 33.3584 46.2742 33.1438C45.9995 32.9292 45.661 32.8126 45.3125 32.8125H34.375C29.6435 32.8028 25.0411 31.2686 21.25 28.4375C20.9795 28.2347 20.6506 28.125 20.3125 28.125C19.014 28.1266 17.7606 28.6016 16.7873 29.4611C15.8139 30.3205 15.1874 31.5054 15.025 32.7938L14.4609 37.3328C14.4103 37.6666 14.2729 37.9813 14.0625 38.2453V23.4375C14.0625 23.0231 14.2271 22.6257 14.5201 22.3326C14.8132 22.0396 15.2106 21.875 15.625 21.875H17.1875C17.6019 21.875 17.9993 21.7104 18.2924 21.4174C18.5854 21.1243 18.75 20.7269 18.75 20.3125V18.75C18.75 17.0924 19.4085 15.5027 20.5806 14.3306C21.7527 13.1585 23.3424 12.5 25 12.5H34.375C38.1033 12.5041 41.6778 13.987 44.3141 16.6234C46.9505 19.2597 48.4334 22.8342 48.4375 26.5625V38.4813ZM51.5625 26.5625C51.5571 22.0057 49.7446 17.6372 46.5225 14.415C43.3003 11.1929 38.9318 9.38038 34.375 9.375H25C22.5144 9.37748 20.1312 10.366 18.3736 12.1236C16.616 13.8812 15.6275 16.2644 15.625 18.75C14.6343 18.7534 13.6702 19.0713 12.8719 19.6579C12.0735 20.2446 11.482 21.0696 11.1828 22.0141C11.9359 16.9444 14.5787 12.3472 18.5809 9.14532C22.583 5.94348 27.6482 4.37401 32.7595 4.75198C37.8709 5.12994 42.6501 7.42737 46.1378 11.1831C49.6254 14.9387 51.5633 19.8747 51.5625 25V26.5625ZM51.5625 45.3125V31.25H54.6875C55.1019 31.25 55.4993 31.4146 55.7924 31.7076C56.0854 32.0007 56.25 32.3981 56.25 32.8125V43.75C56.25 44.1644 56.0854 44.5618 55.7924 44.8549C55.4993 45.1479 55.1019 45.3125 54.6875 45.3125H51.5625ZM22.8984 65.0609L23.45 65.4281C25.7582 66.9725 28.4728 67.7969 31.25 67.7969C34.0272 67.7969 36.7418 66.9725 39.05 65.4281L39.6016 65.0609L40.4813 71.0188C37.6163 72.456 34.4553 73.2044 31.25 73.2044C28.0447 73.2044 24.8837 72.456 22.0187 71.0188L22.8984 65.0609ZM20 59.375H29.6875C30.1019 59.375 30.4993 59.2104 30.7924 58.9174C31.0854 58.6243 31.25 58.2269 31.25 57.8125C31.25 57.3981 31.0854 57.0007 30.7924 56.7076C30.4993 56.4146 30.1019 56.25 29.6875 56.25H16.3672C14.8769 54.3384 14.066 51.9848 14.0625 49.5609V41.9422C14.9861 41.6439 15.8057 41.0887 16.4252 40.3416C17.0448 39.5944 17.4387 38.6863 17.5609 37.7234L18.1266 33.1844C18.1842 32.7283 18.3827 32.3016 18.6945 31.9638C19.0062 31.626 19.4157 31.394 19.8656 31.3C24.107 34.3073 29.1756 35.9274 34.375 35.9375H44.0922L44.6016 37.9688C44.8348 38.9124 45.3119 39.7782 45.9852 40.4795C46.6584 41.1807 47.5041 41.6926 48.4375 41.9641V49.5609C48.4394 51.3618 47.9956 53.1352 47.1459 54.7229C46.2961 56.3107 45.0667 57.6636 43.5672 58.6609L37.3172 62.8281C35.5217 64.0291 33.4101 64.6702 31.25 64.6702C29.0899 64.6702 26.9783 64.0291 25.1828 62.8281L20 59.375ZM8.59375 51.5625V48.4375H10.9375V49.5609C10.936 51.8694 11.5032 54.1426 12.5891 56.1797C11.4813 56.0143 10.4694 55.4578 9.73655 54.6108C9.00367 53.7639 8.59827 52.6825 8.59375 51.5625Z" fill="#151A6A"/>
</svg>
