<svg width="100" height="100" viewBox="0 0 100 100" fill="none" xmlns="http://www.w3.org/2000/svg">
<path d="M66.737 61.4567C62.7138 61.4567 59.4407 58.1836 59.4407 54.1604C59.4407 50.1373 62.7138 46.8641 66.737 46.8641C70.7601 46.8641 74.0333 50.1373 74.0333 54.1604C74.0333 58.1836 70.7601 61.4567 66.737 61.4567Z" fill="#FF335A"/>
<path d="M97.8401 66.8658C96.7647 66.2011 95.4217 66.1408 94.2907 66.706L88.6259 69.5384V89.8564L94.2907 92.6888C94.8056 92.9464 95.3645 93.0738 95.9219 93.0738C96.5891 93.0738 97.2545 92.8912 97.8401 92.5291C98.9158 91.8644 99.5703 90.6901 99.5703 89.4257V69.9689C99.5703 68.7047 98.9158 67.5305 97.8401 66.8658Z" fill="#FF335A"/>
<path d="M78.0997 63.3018C75.4227 66.6228 71.3249 68.7531 66.737 68.7531C62.0177 68.7531 57.8168 66.4993 55.1475 63.0136C52.0264 66.5309 47.4769 68.7531 42.416 68.7531C37.2191 68.7531 32.5616 66.4098 29.4361 62.7274C27.0111 64.2289 25.3913 66.913 25.3913 69.9692V89.426C25.3913 94.1197 29.2099 97.9383 33.9036 97.9383H72.8172C77.5109 97.9383 81.3296 94.1197 81.3296 89.426V69.9692C81.3296 67.2703 80.0654 64.8625 78.0997 63.3018Z" fill="#FF335A"/>
<path d="M42.416 61.4568C37.0517 61.4568 32.6876 57.0926 32.6876 51.7284C32.6876 46.3642 37.0517 42 42.416 42C47.7802 42 52.1444 46.3642 52.1444 51.7284C52.1444 57.0926 47.7802 61.4568 42.416 61.4568Z" fill="#FF335A"/>
<path d="M69.3172 25.7598H43.6852C42.7484 21.1613 38.3203 18.1809 33.7219 19.1176C30.4008 19.7988 27.7609 22.3535 27.0797 25.7598H1.53281C0.681251 25.7598 0.0851563 26.441 0 27.2926V60.9293C0 61.7809 0.681251 62.4621 1.53281 62.4621H69.3172C70.1688 62.4621 70.85 61.7809 70.85 60.9293V27.2926C70.7648 26.441 70.1688 25.7598 69.3172 25.7598ZM35.425 22.0129C38.4906 22.0129 40.875 24.4824 40.875 27.4629C40.875 30.5285 38.4055 32.9129 35.425 32.9129C32.3594 32.9129 29.975 30.4434 29.975 27.4629C29.975 24.1418 32.7852 22.0129 35.425 22.0129ZM67.8695 59.3965H3.06563V28.7402H27.0797C27.7609 33.3387 32.1039 36.4895 36.7023 35.8082C40.3641 35.2121 43.1742 32.402 43.7703 28.7402H67.7844L67.8695 59.3965Z" fill="#151A6A"/>
<path d="M12.7734 40.2363H9.96327V53.8613H19.6711V51.5621H12.7734V40.2363Z" fill="#151A6A"/>
<path d="M25.1211 40.1512H27.9313V53.8613H25.1211V40.1512Z" fill="#151A6A"/>
<path d="M39.1719 50.2848L35.6805 40.1512H32.7L37.5539 53.8613H40.5344L45.4735 40.1512H42.493L39.1719 50.2848Z" fill="#151A6A"/>
<path d="M60.8867 51.5621H53.2227V47.8152H60.1203V45.516H53.2227V42.4504H60.6312V40.1512H50.4125V53.8613H60.8867V51.5621Z" fill="#151A6A"/>
<path d="M22.6516 14.6894C22.0555 15.2855 22.0555 16.2223 22.6516 16.8183C23.2477 17.4144 24.1844 17.4144 24.7805 16.8183C30.6562 10.9426 40.1937 10.9426 46.0695 16.8183C46.6656 17.4144 47.6023 17.4144 48.1984 16.8183C48.7945 16.2223 48.7945 15.2855 48.1984 14.6894C41.1305 7.70663 29.7195 7.70663 22.6516 14.6894Z" fill="#151A6A"/>
<path d="M18.1383 10.1762C27.6758 0.553516 43.1742 0.553516 52.7117 10.1762C53.3078 10.7723 54.2445 10.7723 54.8406 10.1762C55.4367 9.58008 55.4367 8.64336 54.8406 8.04726C44.1109 -2.68242 26.7391 -2.68242 16.0094 8.04726C15.4133 8.64336 15.4133 9.58008 16.0094 10.1762C16.7758 10.9426 17.7125 10.5168 18.1383 10.1762Z" fill="#151A6A"/>
</svg>
