<svg width="100" height="100" viewBox="0 0 100 100" fill="none" xmlns="http://www.w3.org/2000/svg">
<path d="M87.0361 52.8411V75.0577H62.351V52.8411H52.477L74.6935 25.6628L96.9101 52.8411H87.0361Z" fill="#FF335A"/>
<path d="M96.9126 55.3098C96.1967 55.3098 95.4883 55.0012 94.9995 54.4038L74.6886 29.578L54.3802 54.4038C53.5138 55.4628 51.9635 55.6134 50.907 54.7543C49.8505 53.8879 49.695 52.3352 50.5565 51.2812L72.7755 24.1202C73.716 22.9723 75.6587 22.9723 76.5992 24.1202L98.8208 51.2812C99.6847 52.3352 99.5267 53.8904 98.4702 54.7543C98.0136 55.1271 97.4631 55.3098 96.9126 55.3098Z" fill="#FF335A"/>
<path d="M62.3461 77.5264C60.981 77.5264 59.8776 76.423 59.8776 75.0579V52.8413C59.8776 51.4762 60.981 50.3728 62.3461 50.3728C63.7112 50.3728 64.8146 51.4762 64.8146 52.8413V75.0579C64.8146 76.423 63.7112 77.5264 62.3461 77.5264Z" fill="#FF335A"/>
<path d="M87.0312 77.5266H62.3461C60.981 77.5266 59.8776 76.4232 59.8776 75.0581C59.8776 73.693 60.981 72.5896 62.3461 72.5896H87.0312C88.3963 72.5896 89.4997 73.693 89.4997 75.0581C89.4997 76.4232 88.3963 77.5266 87.0312 77.5266Z" fill="#FF335A"/>
<path d="M87.0312 77.5264C85.6661 77.5264 84.5627 76.423 84.5627 75.0579V52.8413C84.5627 51.4762 85.6661 50.3728 87.0312 50.3728C88.3963 50.3728 89.4997 51.4762 89.4997 52.8413V75.0579C89.4997 76.423 88.3963 77.5264 87.0312 77.5264Z" fill="#FF335A"/>
<path d="M87.0337 84.9319H62.3461C60.981 84.9319 59.8776 83.8285 59.8776 82.4634C59.8776 81.0983 60.981 79.9949 62.3461 79.9949H87.0337C88.3987 79.9949 89.5022 81.0983 89.5022 82.4634C89.5022 83.8285 88.3987 84.9319 87.0337 84.9319Z" fill="#FF335A"/>
<path d="M87.0337 92.3376H62.3461C60.981 92.3376 59.8776 91.2342 59.8776 89.8691C59.8776 88.5041 60.981 87.4006 62.3461 87.4006H87.0337C88.3987 87.4006 89.5022 88.5041 89.5022 89.8691C89.5022 91.2342 88.3987 92.3376 87.0337 92.3376Z" fill="#FF335A"/>
<path d="M87.0337 99.7429H62.3461C60.981 99.7429 59.8776 98.6395 59.8776 97.2744C59.8776 95.9093 60.981 94.8059 62.3461 94.8059H87.0337C88.3987 94.8059 89.5022 95.9093 89.5022 97.2744C89.5022 98.6395 88.3987 99.7429 87.0337 99.7429Z" fill="#FF335A"/>
<path d="M62.3461 55.3098H52.4696C51.1045 55.3098 50.0011 54.2064 50.0011 52.8413C50.0011 51.4762 51.1045 50.3728 52.4696 50.3728H62.3461C63.7112 50.3728 64.8146 51.4762 64.8146 52.8413C64.8146 54.2064 63.7112 55.3098 62.3461 55.3098Z" fill="#FF335A"/>
<path d="M96.9102 55.3098H87.0312C85.6661 55.3098 84.5627 54.2064 84.5627 52.8413C84.5627 51.4762 85.6661 50.3728 87.0312 50.3728H96.9102C98.2753 50.3728 99.3787 51.4762 99.3787 52.8413C99.3787 54.2064 98.2753 55.3098 96.9102 55.3098Z" fill="#FF335A"/>
<path d="M64.8196 18.2795C63.4545 18.2795 62.351 17.1761 62.351 15.811V3.46851C62.351 2.10342 63.4545 1 64.8196 1C66.1846 1 67.2881 2.10342 67.2881 3.46851V15.811C67.2881 17.1761 66.1846 18.2795 64.8196 18.2795Z" fill="#FF335A"/>
<path d="M74.696 18.2795C73.7901 18.2795 72.9187 17.7809 72.4842 16.9144L68.779 9.50642C68.1693 8.28698 68.663 6.8034 69.8824 6.19368C71.1019 5.5889 72.5855 6.07766 73.1952 7.2971L76.9004 14.7051C77.5101 15.9245 77.0164 17.4081 75.797 18.0178C75.444 18.1956 75.0663 18.2795 74.696 18.2795Z" fill="#FF335A"/>
<path d="M74.6912 18.2796C74.3209 18.2796 73.9432 18.1957 73.5902 18.0204C72.3708 17.4107 71.8771 15.9271 72.4868 14.7077L76.1896 7.29967C76.7968 6.08023 78.2804 5.59146 79.5023 6.19624C80.7217 6.80597 81.2154 8.28954 80.6057 9.50899L76.903 16.917C76.471 17.781 75.5971 18.2796 74.6912 18.2796Z" fill="#FF335A"/>
<path d="M84.5701 18.2795C83.205 18.2795 82.1016 17.1761 82.1016 15.811V3.46851C82.1016 2.10342 83.205 1 84.5701 1C85.9352 1 87.0386 2.10342 87.0386 3.46851V15.811C87.0386 17.1761 85.9352 18.2795 84.5701 18.2795Z" fill="#FF335A"/>
<path d="M59.1771 82.8477V85.8066H50.3005H47.3417H14.7944V72.4918H11.8355V85.8066H2.95896V73.0096C2.94993 70.169 3.85372 67.4007 5.5371 65.1127C7.22048 62.8247 9.59439 61.138 12.3089 60.3013L18.5817 58.3485C20.4901 62.3281 25.461 65.0947 31.068 65.0947C36.675 65.0947 41.6459 62.3281 43.5544 58.3485L49.8271 60.3013L52.0486 61.2285L55.1066 62.5048L55.58 60.8479L55.8635 60.1658L54.8544 59.4438L52.9138 58.3485L50.7148 57.4904L38.4651 53.6439V51.4692C40.6819 50.3309 42.6089 48.7007 44.0987 46.7031C45.5886 44.7056 46.6017 42.3937 47.0606 39.9445H48.8211C50.519 39.9425 52.1645 39.3564 53.4814 38.2848C54.7983 37.2131 55.7064 35.7211 56.0534 34.059C56.4004 32.397 56.1651 30.6662 55.3869 29.1572C54.6088 27.6481 53.3352 26.4527 51.78 25.7716V19.2325C51.7753 14.1332 49.7475 9.24404 46.1417 5.63826C42.5359 2.03249 37.6468 0.00470058 32.5474 0H29.5886C24.4893 0.00470058 19.6001 2.03249 15.9943 5.63826C12.3886 9.24404 10.3608 14.1332 10.3561 19.2325V25.7716C8.80085 26.4527 7.52727 27.6481 6.74912 29.1572C5.97098 30.6662 5.73565 32.397 6.08263 34.059C6.4296 35.7211 7.33777 37.2131 8.65468 38.2848C9.97159 39.3564 11.6171 39.9425 13.3149 39.9445H15.0754C15.5344 42.3937 16.5475 44.7056 18.0373 46.7031C19.5271 48.7007 21.4541 50.3309 23.6709 51.4692V53.6439L11.4213 57.4756C8.10386 58.4985 5.20301 60.5605 3.14661 63.3574C1.09021 66.1543 -0.0128577 69.5381 0.000113094 73.0096V87.286C0.000113094 87.6784 0.15598 88.0547 0.433426 88.3321C0.710872 88.6096 1.08717 88.7654 1.47954 88.7654H60.6565C61.0489 88.7654 61.4252 88.6096 61.7026 88.3321C61.9801 88.0547 62.1359 87.6784 62.1359 87.286V82.8477H59.1771ZM44.3828 24.7656C42.4448 23.8335 40.7878 21.1558 40.2109 17.6791C40.1747 17.4635 40.0912 17.2585 39.9664 17.079C39.8415 16.8995 39.6785 16.7499 39.4889 16.641C39.2993 16.5321 39.0879 16.4665 38.87 16.449C38.6521 16.4316 38.4329 16.4626 38.2284 16.54C33.586 18.1226 28.55 18.1226 23.9076 16.54C23.7024 16.4685 23.4845 16.4408 23.2679 16.4586C23.0513 16.4764 22.8409 16.5394 22.6501 16.6435C22.4611 16.7528 22.2982 16.9022 22.173 17.0811C22.0478 17.26 21.9632 17.4641 21.9252 17.6791C21.3482 21.1558 19.6912 23.8335 17.7532 24.7656V22.1914C17.7532 18.6601 19.156 15.2734 21.653 12.7764C24.15 10.2794 27.5367 8.87654 31.068 8.87654C34.5993 8.87654 37.986 10.2794 40.483 12.7764C42.98 15.2734 44.3828 18.6601 44.3828 22.1914V24.7656ZM53.2594 32.5473C53.2559 33.7234 52.7871 34.8502 51.9556 35.6818C51.124 36.5134 49.9971 36.9821 48.8211 36.9856H47.3417V28.1091H48.8211C49.9971 28.1126 51.124 28.5813 51.9556 29.4129C52.7871 30.2445 53.2559 31.3713 53.2594 32.5473ZM14.7944 36.9856H13.3149C12.1378 36.9856 11.0089 36.518 10.1766 35.6857C9.34426 34.8533 8.87666 33.7244 8.87666 32.5473C8.87666 31.3702 9.34426 30.2413 10.1766 29.409C11.0089 28.5767 12.1378 28.1091 13.3149 28.1091H14.7944V36.9856ZM14.7944 22.1914V25.1502H13.3149V19.2325C13.3177 14.9173 15.0331 10.7796 18.0844 7.72832C21.1357 4.67701 25.2734 2.96159 29.5886 2.95885H32.5474C36.8626 2.96159 41.0003 4.67701 44.0516 7.72832C47.1029 10.7796 48.8184 14.9173 48.8211 19.2325V25.1502H47.3417V22.1914C47.3417 17.8753 45.6271 13.736 42.5752 10.6841C39.5233 7.63224 35.3841 5.9177 31.068 5.9177C26.752 5.9177 22.6127 7.63224 19.5608 10.6841C16.5089 13.736 14.7944 17.8753 14.7944 22.1914ZM17.7532 36.9856V27.9167C20.786 27.1474 23.3454 24.0998 24.4846 19.8391C28.7977 20.993 33.3383 20.993 37.6515 19.8391C38.7906 24.0998 41.35 27.1474 44.3828 27.9167V36.9856C44.3828 40.5169 42.98 43.9036 40.483 46.4006C37.986 48.8976 34.5993 50.3004 31.068 50.3004C27.5367 50.3004 24.15 48.8976 21.653 46.4006C19.156 43.9036 17.7532 40.5169 17.7532 36.9856ZM35.5063 52.6231V54.7387C35.5063 55.1085 33.9381 56.2181 31.068 56.2181C28.1979 56.2181 26.6297 55.1085 26.6297 54.7387V52.6231C29.5278 53.4713 32.6082 53.4713 35.5063 52.6231ZM24.2923 56.5584C25.4018 58.1266 27.9464 59.177 31.068 59.177C34.1896 59.177 36.7342 58.1266 37.8438 56.5584L40.6991 57.446C39.1457 60.2274 35.3731 62.1358 31.068 62.1358C26.7629 62.1358 22.9904 60.2274 21.437 57.446L24.2923 56.5584Z" fill="#151A6A"/>
<path d="M55.1066 62.5048L52.0486 61.2285C53.8338 62.1589 55.3934 63.489 56.5989 65.1275C58.2823 67.4155 59.1861 70.1838 59.1771 73.0244L59.1771 82.8477H62.1359V73.0244C62.1489 69.5529 61.0458 66.1691 58.9894 63.3722C58.0953 62.1561 57.0416 61.079 55.8635 60.1658L55.58 60.8479L55.1066 62.5048Z" fill="#151A6A"/>
<path d="M47.3417 85.8066H50.3005V72.5066H47.3417V85.8066Z" fill="#151A6A"/>
</svg>
