<svg width="100" height="100" viewBox="0 0 100 100" fill="none" xmlns="http://www.w3.org/2000/svg">
<g clip-path="url(#clip0)">
<path d="M94.2018 72.8217L91.9385 89.6628L100 86.4374V76.3005L94.2018 72.8217Z" fill="#FF335A"/>
<path d="M63.7982 72.8217L58 76.3005V86.4374L66.0615 89.6628L63.7982 72.8217Z" fill="#FF335A"/>
<path d="M84.7273 44.8L80.9091 48.6182H79H77.0909L73.2727 44.8L61.8182 53.3238V54.3454C61.8182 70.1072 63.1549 78.0458 65.7892 93.8538C71.5827 98.1139 76.9092 98.5091 79 98.5091C83.0368 98.5091 87.3416 97.3716 92.263 93.5425C94.8516 78.008 96.1818 70.0702 96.1818 54.3454V53.3238L84.7273 44.8Z" fill="#FF335A"/>
<path d="M96.1818 54.3454V53.3238L84.7273 44.8L80.9091 48.6182H79V98.5091C83.0368 98.5091 87.3416 97.3716 92.263 93.5425C94.8516 78.008 96.1818 70.0702 96.1818 54.3454Z" fill="#FF335A"/>
<path d="M86.517 33.3455C83.436 33.3455 80.721 34.8521 79 37.1448C77.8175 38.7199 77.0909 40.6549 77.0909 42.7717V46.7091H79H80.9091V42.7717C80.9091 39.6787 83.4242 37.1636 86.517 37.1636H88.5455V33.3455H86.517Z" fill="#FF335A"/>
<path d="M80.9091 42.7717C80.9091 39.6787 83.4241 37.1636 86.517 37.1636H88.5455V33.3455H86.517C83.436 33.3455 80.721 34.8521 79 37.1448V46.7091H80.9091V42.7717Z" fill="#FF335A"/>
<path d="M79 44.8H73.2727V64.0182H79H84.7273V44.8H79Z" fill="#FF335A"/>
<path d="M79 44.8H84.7273V64.0182H79V44.8Z" fill="#FF335A"/>
<path d="M21.7969 21.7031H24.7031V24.6094H21.7969V21.7031Z" fill="#151A6A"/>
<path d="M30.5156 21.7031H33.4219V24.6094H30.5156V21.7031Z" fill="#151A6A"/>
<path d="M66.8438 60.9375H69.75V63.8438H66.8438V60.9375Z" fill="#151A6A"/>
<path d="M52.3125 40.5938H55.2188V43.5H52.3125V40.5938Z" fill="#151A6A"/>
<path d="M58.125 40.5938H69.75V43.5H58.125V40.5938Z" fill="#151A6A"/>
<path d="M52.3125 46.4062H69.75V49.3125H52.3125V46.4062Z" fill="#151A6A"/>
<path d="M77.0156 5.71876H59.5781C57.5397 5.72159 55.5378 6.26004 53.7729 7.28017C52.0081 8.30029 50.5424 9.76628 49.5225 11.5313H42.9689C42.0241 8.18334 40.0119 5.23555 37.2381 3.13619C34.4643 1.03682 31.0808 -0.0992432 27.6021 -0.0992432C24.1234 -0.0992432 20.7399 1.03682 17.9661 3.13619C15.1924 5.23555 13.1801 8.18334 12.2353 11.5313H10.1719C8.24491 11.5313 6.39687 12.2967 5.0343 13.6593C3.67173 15.0219 2.90625 16.8699 2.90625 18.7969V62.3906C2.90625 64.3176 3.67173 66.1656 5.0343 67.5282C6.39687 68.8908 8.24491 69.6563 10.1719 69.6563H31.7798L30.69 78.375H27.6094C26.4532 78.375 25.3444 78.8343 24.5268 79.6518C23.7093 80.4694 23.25 81.5782 23.25 82.7344C23.25 83.8906 23.7093 84.9994 24.5268 85.8169C25.3444 86.6345 26.4532 87.0938 27.6094 87.0938H53.7656C54.9218 87.0938 56.0306 86.6345 56.8482 85.8169C57.6657 84.9994 58.125 83.8906 58.125 82.7344C58.125 81.5782 57.6657 80.4694 56.8482 79.6518C56.0306 78.8343 54.9218 78.375 53.7656 78.375H50.685L49.5952 69.6563H71.2031C73.1301 69.6563 74.9781 68.8908 76.3407 67.5282C77.7033 66.1656 78.4688 64.3176 78.4688 62.3906V28.2131L79.0209 28.6491C79.2777 28.8522 79.5945 28.9646 79.9219 28.9688H84.2812C85.4364 28.9653 86.5432 28.5049 87.36 27.6881C88.1768 26.8713 88.6372 25.7645 88.6406 24.6094V17.3438C88.6364 14.2619 87.4103 11.3075 85.2311 9.12832C83.0519 6.94912 80.0975 5.72299 77.0156 5.71876ZM42.1406 21.7031C42.1383 22.4732 41.8314 23.2111 41.2869 23.7556C40.7423 24.3002 40.0045 24.6071 39.2344 24.6094V18.7969C40.0045 18.7992 40.7423 19.1061 41.2869 19.6507C41.8314 20.1952 42.1383 20.9331 42.1406 21.7031ZM40.6875 27.3122V28.9688H38.377C38.5738 28.4874 38.7341 27.992 38.8566 27.4866C38.9873 27.4866 39.1036 27.5156 39.2344 27.5156C39.7253 27.5081 40.2134 27.4398 40.6875 27.3122ZM40.6875 15.8906V16.0941C40.2134 15.9665 39.7253 15.8982 39.2344 15.8906C39.1036 15.8906 38.9873 15.9197 38.8566 15.9197C38.7341 15.4143 38.5738 14.9189 38.377 14.4375H40.6003C40.6587 14.9197 40.6879 15.4049 40.6875 15.8906ZM18.3675 6.64876C19.9261 5.08511 21.8559 3.9425 23.9763 3.32789C26.0968 2.71329 28.3386 2.64679 30.4917 3.13463C32.6449 3.62247 34.6391 4.64868 36.2875 6.11721C37.936 7.58574 39.1849 9.44855 39.9173 11.5313H36.6769C35.5892 10.1711 34.2094 9.07315 32.6398 8.31859C31.0702 7.56403 29.3509 7.17224 27.6094 7.17224C25.8678 7.17224 24.1486 7.56403 22.579 8.31859C21.0093 9.07315 19.6296 10.1711 18.5419 11.5313H15.2869C15.9299 9.69106 16.9834 8.02138 18.3675 6.64876ZM27.6094 43.5C28.7854 43.4942 29.9323 43.1331 30.8995 42.4641C31.8667 41.7951 32.6092 40.8493 33.0295 39.751L39.278 42.5264C40.561 43.0994 41.651 44.0311 42.4167 45.2093C43.1824 46.3876 43.5912 47.762 43.5938 49.1672V55.125H11.625V49.1672C11.6276 47.762 12.0363 46.3876 12.802 45.2093C13.5677 44.0311 14.6577 43.0994 15.9408 42.5264L22.1892 39.751C22.6095 40.8493 23.352 41.7951 24.3192 42.4641C25.2865 43.1331 26.4333 43.4942 27.6094 43.5ZM24.7031 37.6875V35.8566C26.6079 36.3603 28.6109 36.3603 30.5156 35.8566V37.6875C30.5156 38.4583 30.2094 39.1975 29.6644 39.7425C29.1194 40.2876 28.3802 40.5938 27.6094 40.5938C26.8386 40.5938 26.0994 40.2876 25.5543 39.7425C25.0093 39.1975 24.7031 38.4583 24.7031 37.6875ZM32.4192 31.875C31.1062 32.7464 29.5814 33.2453 28.0073 33.3186C26.4332 33.3919 24.8686 33.0368 23.4804 32.2912C22.0921 31.5457 20.932 30.4375 20.1238 29.0847C19.3155 27.7319 18.8893 26.1852 18.8906 24.6094V20.25H26.1562C26.3837 20.2486 26.6077 20.1939 26.8102 20.0902L31.6781 17.6635L33.8433 19.8286C34.1204 20.0963 34.4898 20.2471 34.875 20.25H36.3281V24.6094C36.3265 26.1408 35.9205 27.6446 35.1511 28.9688H27.6094V31.875H32.4192ZM19.0214 17.3438C19.3629 15.313 20.413 13.469 21.9853 12.1391C23.5575 10.8092 25.5501 10.0795 27.6094 10.0795C29.6686 10.0795 31.6613 10.8092 33.2335 12.1391C34.8057 13.469 35.8558 15.313 36.1973 17.3438H35.4708L33.0005 14.8589C32.7829 14.6432 32.5028 14.5018 32.2001 14.4548C31.8973 14.4078 31.5875 14.4577 31.3148 14.5974L25.8075 17.3438H19.0214ZM14.5312 15.8906C14.5309 15.4049 14.56 14.9197 14.6184 14.4375H16.8417C16.645 14.9189 16.4847 15.4143 16.3622 15.9197C16.2314 15.9197 16.1152 15.8906 15.9844 15.8906C15.4935 15.8982 15.0054 15.9665 14.5312 16.0941V15.8906ZM15.9844 18.7969V24.6094C15.2136 24.6094 14.4744 24.3032 13.9293 23.7582C13.3843 23.2131 13.0781 22.4739 13.0781 21.7031C13.0781 20.9324 13.3843 20.1931 13.9293 19.6481C14.4744 19.1031 15.2136 18.7969 15.9844 18.7969ZM5.8125 18.7969C5.81595 17.6418 6.27635 16.5349 7.09314 15.7182C7.90994 14.9014 9.01676 14.441 10.1719 14.4375H11.6977C11.6541 14.917 11.625 15.3966 11.625 15.8906V17.896C10.8848 18.732 10.4023 19.7644 10.2359 20.8686C10.0694 21.9728 10.2261 23.1015 10.687 24.1186C11.148 25.1357 11.8934 25.9977 12.8334 26.6005C13.7734 27.2032 14.8677 27.5211 15.9844 27.5156C16.1152 27.5156 16.2314 27.4866 16.3622 27.4866C16.7447 28.9846 17.4224 30.3912 18.3557 31.6238C19.2889 32.8565 20.4588 33.8904 21.7969 34.665V36.743L14.7638 39.8672C12.965 40.6671 11.4366 41.9712 10.3637 43.6218C9.29085 45.2724 8.71947 47.1986 8.71875 49.1672V55.125H5.8125V18.7969ZM53.7656 81.2813C54.151 81.2813 54.5206 81.4344 54.7931 81.7069C55.0657 81.9794 55.2188 82.349 55.2188 82.7344C55.2188 83.1198 55.0657 83.4894 54.7931 83.7619C54.5206 84.0344 54.151 84.1875 53.7656 84.1875H27.6094C27.224 84.1875 26.8544 84.0344 26.5819 83.7619C26.3093 83.4894 26.1562 83.1198 26.1562 82.7344C26.1562 82.349 26.3093 81.9794 26.5819 81.7069C26.8544 81.4344 27.224 81.2813 27.6094 81.2813H53.7656ZM33.6108 78.375L34.7006 69.6563H46.6744L47.7642 78.375H33.6108ZM75.5625 62.3906C75.5591 63.5458 75.0987 64.6526 74.2819 65.4694C73.4651 66.2862 72.3582 66.7466 71.2031 66.75H10.1719C9.01676 66.7466 7.90994 66.2862 7.09314 65.4694C6.27635 64.6526 5.81595 63.5458 5.8125 62.3906V58.0313H75.5625V62.3906ZM75.5625 55.125H46.5V49.1672C46.4993 47.1986 45.9279 45.2724 44.855 43.6218C43.7822 41.9712 42.2538 40.6671 40.455 39.8672L33.4219 36.743V34.665C34.6685 33.9421 35.7718 32.9964 36.6769 31.875H40.6875C41.4576 31.8727 42.1955 31.5658 42.74 31.0213C43.2845 30.4767 43.5914 29.7388 43.5938 28.9688V25.5103C44.5296 24.463 45.047 23.1077 45.047 21.7031C45.047 20.2986 44.5296 18.9433 43.5938 17.896V15.8906C43.5938 15.3966 43.5647 14.917 43.5211 14.4375H48.3309C48.0865 15.3871 47.9596 16.3632 47.9531 17.3438V24.6094C47.9566 25.7645 48.417 26.8713 49.2338 27.6881C50.0506 28.5049 51.1574 28.9653 52.3125 28.9688H56.6719C56.9993 28.9646 57.316 28.8522 57.5728 28.6491L64.1409 23.476C64.3977 23.2728 64.7145 23.1604 65.0419 23.1563H71.5519C71.8766 23.1619 72.1915 23.2686 72.4528 23.4614L75.5625 25.9317V55.125ZM85.7344 24.6094C85.7344 24.9948 85.5813 25.3644 85.3088 25.6369C85.0363 25.9094 84.6666 26.0625 84.2812 26.0625H80.4305L74.2547 21.1945C73.4854 20.585 72.5333 20.2523 71.5519 20.25H65.0419C64.0604 20.2523 63.1083 20.585 62.3391 21.1945L56.1633 26.0625H52.3125C51.9271 26.0625 51.5575 25.9094 51.285 25.6369C51.0125 25.3644 50.8594 24.9948 50.8594 24.6094V17.3438C50.8594 15.0314 51.778 12.8138 53.413 11.1787C55.0481 9.54359 57.2658 8.62501 59.5781 8.62501H77.0156C79.328 8.62501 81.5456 9.54359 83.1807 11.1787C84.8158 12.8138 85.7344 15.0314 85.7344 17.3438V24.6094Z" fill="#151A6A"/>
<path d="M59.5781 11.5312H56.6719V14.4375H53.7656V17.3437H56.6719V20.25H59.5781V17.3437H62.4844V14.4375H59.5781V11.5312Z" fill="#151A6A"/>
<path d="M77.0156 11.5312H79.9219V14.4375H77.0156V11.5312Z" fill="#151A6A"/>
<path d="M79.9219 14.4375H82.8281V17.3438H79.9219V14.4375Z" fill="#151A6A"/>
<path d="M77.0156 17.3438H79.9219V20.25H77.0156V17.3438Z" fill="#151A6A"/>
<path d="M74.1094 14.4375H77.0156V17.3438H74.1094V14.4375Z" fill="#151A6A"/>
<path d="M63.9375 11.5312H66.8438V14.4375H63.9375V11.5312Z" fill="#151A6A"/>
<path d="M69.75 11.5312H72.6562V14.4375H69.75V11.5312Z" fill="#151A6A"/>
</g>
<defs>
<clipPath id="clip0">
<rect width="100" height="100" fill="white"/>
</clipPath>
</defs>
</svg>
