<svg width="100" height="100" viewBox="0 0 100 100" fill="none" xmlns="http://www.w3.org/2000/svg">
<g clip-path="url(#clip0)">
<path d="M71.875 76.564C73.6009 76.564 75 75.1649 75 73.439C75 71.7131 73.6009 70.314 71.875 70.314C70.1491 70.314 68.75 71.7131 68.75 73.439C68.75 75.1649 70.1491 76.564 71.875 76.564Z" fill="#FF335A"/>
<path d="M88.7858 49.3312C88.6246 48.9928 88.3466 48.724 88.003 48.5743C79.5894 44.4058 70.3266 42.2369 60.937 42.2369C51.5473 42.2369 42.2846 44.4058 33.8709 48.5743C33.5273 48.724 33.2493 48.9928 33.0881 49.3312C32.4335 50.7121 17.2098 83.2881 30.2805 96.4167C30.5113 96.6477 30.8084 96.8008 31.1304 96.8546L37.3545 98.4171C37.7079 98.4764 38.0709 98.4123 38.3826 98.2356C38.6944 98.0589 38.9358 97.7803 39.0665 97.4467L44.8145 82.8135H77.0595L82.8074 97.4467C82.9381 97.7803 83.1796 98.0589 83.4913 98.2356C83.8031 98.4123 84.1661 98.4764 84.5195 98.4171L90.7435 96.8546C91.0656 96.8008 91.3627 96.6477 91.5935 96.4167C104.664 83.2881 89.4404 50.7121 88.7858 49.3312ZM42.187 60.9385V64.0635C42.187 64.4779 42.0224 64.8753 41.7294 65.1684C41.4364 65.4614 41.0389 65.626 40.6245 65.626C40.2101 65.626 39.8127 65.4614 39.5197 65.1684C39.2266 64.8753 39.062 64.4779 39.062 64.0635V60.9385H35.937C35.5226 60.9385 35.1252 60.7739 34.8322 60.4809C34.5391 60.1878 34.3745 59.7904 34.3745 59.376C34.3745 58.9616 34.5391 58.5642 34.8322 58.2712C35.1252 57.9781 35.5226 57.8135 35.937 57.8135H39.062V54.6885C39.062 54.2741 39.2266 53.8767 39.5197 53.5837C39.8127 53.2906 40.2101 53.126 40.6245 53.126C41.0389 53.126 41.4364 53.2906 41.7294 53.5837C42.0224 53.8767 42.187 54.2741 42.187 54.6885V57.8135H45.312C45.7264 57.8135 46.1239 57.9781 46.4169 58.2712C46.7099 58.5642 46.8745 58.9616 46.8745 59.376C46.8745 59.7904 46.7099 60.1878 46.4169 60.4809C46.1239 60.7739 45.7264 60.9385 45.312 60.9385H42.187ZM49.9995 79.6885C48.7634 79.6885 47.555 79.322 46.5272 78.6352C45.4994 77.9484 44.6983 76.9723 44.2253 75.8303C43.7522 74.6882 43.6285 73.4316 43.8696 72.2192C44.1108 71.0068 44.706 69.8932 45.5801 69.0191C46.4542 68.145 47.5678 67.5498 48.7802 67.3086C49.9926 67.0674 51.2493 67.1912 52.3913 67.6643C53.5333 68.1373 54.5095 68.9384 55.1962 69.9662C55.883 70.994 56.2495 72.2024 56.2495 73.4385C56.2479 75.0956 55.5889 76.6844 54.4171 77.8561C53.2454 79.0278 51.6566 79.6869 49.9995 79.6885ZM57.812 60.9385C57.3976 60.9385 57.0002 60.7739 56.7072 60.4809C56.4141 60.1878 56.2495 59.7904 56.2495 59.376C56.2495 58.9616 56.4141 58.5642 56.7072 58.2712C57.0002 57.9781 57.3976 57.8135 57.812 57.8135H64.062C64.4764 57.8135 64.8739 57.9781 65.1669 58.2712C65.4599 58.5642 65.6245 58.9616 65.6245 59.376C65.6245 59.7904 65.4599 60.1878 65.1669 60.4809C64.8739 60.7739 64.4764 60.9385 64.062 60.9385H57.812ZM71.8745 79.6885C70.6384 79.6885 69.43 79.322 68.4022 78.6352C67.3744 77.9484 66.5733 76.9723 66.1003 75.8303C65.6272 74.6882 65.5035 73.4316 65.7446 72.2192C65.9858 71.0068 66.581 69.8932 67.4551 69.0191C68.3292 68.145 69.4428 67.5498 70.6552 67.3086C71.8676 67.0674 73.1243 67.1912 74.2663 67.6643C75.4083 68.1373 76.3845 68.9384 77.0712 69.9662C77.758 70.994 78.1245 72.2024 78.1245 73.4385C78.1229 75.0956 77.4639 76.6844 76.2921 77.8561C75.1204 79.0278 73.5316 79.6869 71.8745 79.6885ZM85.937 60.9385H82.812V64.0635C82.812 64.4779 82.6474 64.8753 82.3544 65.1684C82.0614 65.4614 81.6639 65.626 81.2495 65.626C80.8351 65.626 80.4377 65.4614 80.1447 65.1684C79.8516 64.8753 79.687 64.4779 79.687 64.0635V60.9385H76.562C76.1476 60.9385 75.7502 60.7739 75.4572 60.4809C75.1641 60.1878 74.9995 59.7904 74.9995 59.376C74.9995 58.9616 75.1641 58.5642 75.4572 58.2712C75.7502 57.9781 76.1476 57.8135 76.562 57.8135H79.687V54.6885C79.687 54.2741 79.8516 53.8767 80.1447 53.5837C80.4377 53.2906 80.8351 53.126 81.2495 53.126C81.6639 53.126 82.0614 53.2906 82.3544 53.5837C82.6474 53.8767 82.812 54.2741 82.812 54.6885V57.8135H85.937C86.3514 57.8135 86.7489 57.9781 87.0419 58.2712C87.3349 58.5642 87.4995 58.9616 87.4995 59.376C87.4995 59.7904 87.3349 60.1878 87.0419 60.4809C86.7489 60.7739 86.3514 60.9385 85.937 60.9385Z" fill="#FF335A"/>
<path d="M50 76.564C51.7259 76.564 53.125 75.1649 53.125 73.439C53.125 71.7131 51.7259 70.314 50 70.314C48.2741 70.314 46.875 71.7131 46.875 73.439C46.875 75.1649 48.2741 76.564 50 76.564Z" fill="#FF335A"/>
<path d="M29.6875 26.432V51.6914C29.6877 51.9656 29.7601 52.2349 29.8973 52.4723C30.0345 52.7097 30.2317 52.9068 30.4691 53.044C30.7065 53.1811 30.9759 53.2533 31.2501 53.2535C31.5242 53.2536 31.7937 53.1817 32.0312 53.0449L53.9062 40.4152C54.1436 40.2778 54.3406 40.0804 54.4775 39.8429C54.6145 39.6053 54.6866 39.3359 54.6866 39.0617C54.6866 38.7875 54.6145 38.5181 54.4775 38.2806C54.3406 38.043 54.1436 37.8456 53.9062 37.7083L32.0312 25.0786C31.7936 24.9418 31.5242 24.8699 31.2501 24.8701C30.9759 24.8703 30.7066 24.9426 30.4692 25.0797C30.2318 25.2168 30.0346 25.4139 29.8974 25.6513C29.7602 25.8886 29.6878 26.1579 29.6875 26.432ZM32.8125 29.1389L50 39.0617L32.8125 48.9845V29.1389Z" fill="#151A6A"/>
<path d="M74.2188 21.6179L39.8438 1.77078C39.606 1.63431 39.3366 1.5625 39.0625 1.5625C38.7884 1.5625 38.519 1.63431 38.2812 1.77078L3.90625 21.6179C3.66866 21.755 3.47137 21.9523 3.33423 22.1899C3.19709 22.4275 3.12493 22.697 3.125 22.9713V25.9635C3.125 46.8284 18.2831 69.8585 38.385 79.5326C38.5965 79.634 38.828 79.6866 39.0625 79.6866C39.297 79.6866 39.5285 79.634 39.74 79.5326C59.8419 69.8585 75 46.8284 75 25.9636V22.9714C75.0001 22.6971 74.9279 22.4275 74.7908 22.1899C74.6536 21.9523 74.4563 21.755 74.2188 21.6179ZM71.875 25.9636C71.875 45.475 57.8171 67.0113 39.0625 76.3832C20.3079 67.0113 6.25 45.475 6.25 25.9636V23.8731L39.0625 4.92782L71.875 23.8731V25.9636Z" fill="#151A6A"/>
<path d="M38.2812 10.7918L11.7538 26.107C11.5054 26.2504 11.3013 26.4593 11.1638 26.711C11.0263 26.9626 10.9606 27.2473 10.9741 27.5337C11.6257 41.3796 21.2128 60.6285 38.2721 70.6261C38.5117 70.767 38.7846 70.8412 39.0625 70.8412C39.3405 70.8412 39.6133 70.767 39.8529 70.6261C56.9123 60.6285 66.4994 41.3796 67.1509 27.5337C67.1644 27.2473 67.0988 26.9626 66.9613 26.711C66.8237 26.4593 66.6196 26.2504 66.3712 26.107L39.8437 10.7918C39.606 10.6553 39.3366 10.5835 39.0625 10.5835C38.7884 10.5835 38.519 10.6553 38.2812 10.7918ZM63.971 28.3302C62.9975 41.0362 54.2892 58.1322 39.0625 67.4568C23.8357 58.1322 15.1275 41.0362 14.154 28.3302L39.0625 13.9488L63.971 28.3302Z" fill="#151A6A"/>
</g>
<defs>
<clipPath id="clip0">
<rect width="100" height="100" fill="white"/>
</clipPath>
</defs>
</svg>
