<svg width="26" height="16" viewBox="0 0 26 16" fill="none" xmlns="http://www.w3.org/2000/svg">
<path d="M21.5746 9.11366C21.1543 8.58282 21.2745 8.34666 21.5746 7.87216C21.58 7.86674 25.0499 3.07191 25.4074 1.44582L25.4096 1.44474C25.5873 0.852156 25.4096 0.416656 24.5505 0.416656H21.7078C20.9842 0.416656 20.6505 0.790407 20.4718 1.20857C20.4718 1.20857 19.0244 4.67307 16.9769 6.91882C16.3161 7.56774 16.0106 7.77574 15.6498 7.77574C15.4722 7.77574 15.1959 7.56774 15.1959 6.97516V1.44474C15.1959 0.734073 14.9933 0.416656 14.3942 0.416656H9.92442C9.4705 0.416656 9.20075 0.748157 9.20075 1.05691C9.20075 1.73074 10.2245 1.88566 10.3307 3.78149V7.89491C10.3307 8.79624 10.1671 8.96199 9.80417 8.96199C8.83783 8.96199 6.49242 5.48341 5.1025 1.50216C4.82192 0.72974 4.54783 0.41774 3.81875 0.41774H0.975C0.163583 0.41774 0 0.79149 0 1.20966C0 1.94849 0.966333 5.62207 4.49367 10.4754C6.8445 13.7882 10.1552 15.5833 13.1668 15.5833C14.9771 15.5833 15.1981 15.1847 15.1981 14.4989C15.1981 11.3334 15.0345 11.0344 15.9413 11.0344C16.3616 11.0344 17.0853 11.2424 18.7752 12.8403C20.7068 14.7351 21.0243 15.5833 22.1054 15.5833H24.9481C25.7584 15.5833 26.169 15.1847 25.9328 14.3982C25.3923 12.7439 21.7393 9.34116 21.5746 9.11366Z" fill="white"/>
</svg>
