<svg width="26" height="18" viewBox="0 0 26 18" fill="none" xmlns="http://www.w3.org/2000/svg">
<path d="M17.164 8.61689L11.3247 6.18026C11.0873 6.05954 10.8764 6.05215 10.689 6.15809C10.503 6.2628 10.4114 6.45127 10.4114 6.72228V11.2777C10.4114 11.5192 10.503 11.6916 10.689 11.7976C10.875 11.9023 11.0873 11.8949 11.3247 11.7742L17.164 9.38434C17.4347 9.26362 17.5707 9.12811 17.5707 8.97783C17.5707 8.82754 17.4347 8.70681 17.164 8.61689ZM13 18C6.60132 18 2.83568 17.4962 1.70169 16.4885C0.567692 15.4808 0 12.9777 0 8.97783C0 4.97796 0.567692 2.48097 1.70169 1.48809C2.83568 0.496441 6.60132 0 13 0C19.3987 0 23.1643 0.496441 24.2983 1.48809C25.4323 2.48097 26 4.97796 26 8.97783C26 12.9777 25.4323 15.4821 24.2983 16.4885C23.1643 17.4962 19.3987 18 13 18Z" fill="white"/>
</svg>
